M48
;DRILL file {KiCad 4.0.4+e1-6308~48~ubuntu14.04.1-stable} date Wed Oct 26 00:07:39 2016
;FORMAT={-:-/ absolute / inch / decimal}
FMAT,2
INCH,TZ
T1C0.040
%
G90
G05
M72
T1
X0.Y0.
X0.Y-0.1
X0.Y-0.2
X0.Y-0.3
X0.Y-0.4
X0.Y-0.5
X0.Y-0.9016
X0.Y-1.0016
X0.Y-1.1016
X0.Y-1.2016
X0.Y-1.3016
X0.Y-1.4016
X0.1Y0.
X0.1Y-0.1
X0.1Y-0.2
X0.1Y-0.3
X0.1Y-0.4
X0.1Y-0.5
X0.1Y-0.9016
X0.1Y-1.0016
X0.1Y-1.1016
X0.1Y-1.2016
X0.1Y-1.3016
X0.1Y-1.4016
X0.5594Y-0.0709
X0.5594Y-0.1709
X0.5594Y-0.2709
X0.5594Y-0.3709
X0.5594Y-0.4709
X0.5594Y-0.5709
X0.5594Y-0.6709
X0.5594Y-0.7709
X0.5594Y-0.8709
X0.5594Y-0.9709
X0.6594Y-0.0709
X0.6594Y-0.1709
X0.6594Y-0.2709
X0.6594Y-0.3709
X0.6594Y-0.4709
X0.6594Y-0.5709
X0.6594Y-0.6709
X0.6594Y-0.7709
X0.6594Y-0.8709
X0.6594Y-0.9709
T0
M30
