G04 #@! TF.FileFunction,Copper,L1,Top,Signal*
%FSLAX46Y46*%
G04 Gerber Fmt 4.6, Leading zero omitted, Abs format (unit mm)*
G04 Created by KiCad (PCBNEW 4.0.4+e1-6308~48~ubuntu14.04.1-stable) date Wed Oct 26 00:07:37 2016*
%MOMM*%
%LPD*%
G01*
G04 APERTURE LIST*
%ADD10C,0.100000*%
%ADD11R,1.727200X1.727200*%
%ADD12O,1.727200X1.727200*%
%ADD13R,0.700000X1.300000*%
%ADD14C,0.320000*%
%ADD15C,0.240000*%
G04 APERTURE END LIST*
D10*
D11*
X14210000Y-1800000D03*
D12*
X16750000Y-1800000D03*
X14210000Y-4340000D03*
X16750000Y-4340000D03*
X14210000Y-6880000D03*
X16750000Y-6880000D03*
X14210000Y-9420000D03*
X16750000Y-9420000D03*
X14210000Y-11960000D03*
X16750000Y-11960000D03*
X14210000Y-14500000D03*
X16750000Y-14500000D03*
X14210000Y-17040000D03*
X16750000Y-17040000D03*
X14210000Y-19580000D03*
X16750000Y-19580000D03*
X14210000Y-22120000D03*
X16750000Y-22120000D03*
X14210000Y-24660000D03*
X16750000Y-24660000D03*
D11*
X0Y0D03*
D12*
X2540000Y0D03*
X0Y-2540000D03*
X2540000Y-2540000D03*
X0Y-5080000D03*
X2540000Y-5080000D03*
X0Y-7620000D03*
X2540000Y-7620000D03*
X0Y-10160000D03*
X2540000Y-10160000D03*
X0Y-12700000D03*
X2540000Y-12700000D03*
D11*
X0Y-22900000D03*
D12*
X2540000Y-22900000D03*
X0Y-25440000D03*
X2540000Y-25440000D03*
X0Y-27980000D03*
X2540000Y-27980000D03*
X0Y-30520000D03*
X2540000Y-30520000D03*
X0Y-33060000D03*
X2540000Y-33060000D03*
X0Y-35600000D03*
X2540000Y-35600000D03*
D13*
X8500000Y-32000000D03*
X6600000Y-32000000D03*
X8500000Y-35000000D03*
X6600000Y-35000000D03*
D14*
X8500000Y-32000000D02*
X8500000Y-30370000D01*
X8500000Y-30370000D02*
X14210000Y-24660000D01*
X7870000Y-36600000D02*
X3540000Y-36600000D01*
X3540000Y-36600000D02*
X2540000Y-35600000D01*
X8500000Y-35000000D02*
X8500000Y-35970000D01*
X8500000Y-35970000D02*
X7870000Y-36600000D01*
X0Y-35600000D02*
X2540000Y-35600000D01*
X-2700000Y-34800000D02*
X-1900000Y-35600000D01*
X-1900000Y-35600000D02*
X0Y-35600000D01*
X-2700000Y-19100000D02*
X-2700000Y-34800000D01*
X0Y-16400000D02*
X-2700000Y-19100000D01*
X0Y-12700000D02*
X0Y-16400000D01*
X2540000Y-12700000D02*
X0Y-12700000D01*
D15*
X8500000Y-35000000D02*
X8500000Y-34110000D01*
X8500000Y-34110000D02*
X8500000Y-32000000D01*
X4400000Y-1300000D02*
X196400Y-1300000D01*
X196400Y-1300000D02*
X0Y-1103600D01*
X0Y-1103600D02*
X0Y0D01*
X7440000Y-4340000D02*
X4400000Y-1300000D01*
X14210000Y-4340000D02*
X7440000Y-4340000D01*
X4500000Y0D02*
X2540000Y0D01*
X7600000Y-3100000D02*
X4500000Y0D01*
X15510000Y-3100000D02*
X7600000Y-3100000D01*
X16750000Y-4340000D02*
X15510000Y-3100000D01*
X11900000Y-20800000D02*
X4720000Y-27980000D01*
X4720000Y-27980000D02*
X2540000Y-27980000D01*
X15530000Y-20800000D02*
X11900000Y-20800000D01*
X16750000Y-19580000D02*
X15530000Y-20800000D01*
X-1200000Y-30500000D02*
X-20000Y-30500000D01*
X-20000Y-30500000D02*
X0Y-30520000D01*
X-1900000Y-29800000D02*
X-1200000Y-30500000D01*
X-1900000Y-25000000D02*
X-1900000Y-29800000D01*
X-1100000Y-24200000D02*
X-1900000Y-25000000D01*
X3600000Y-24200000D02*
X-1100000Y-24200000D01*
X4400000Y-23400000D02*
X3600000Y-24200000D01*
X4400000Y-21600000D02*
X4400000Y-23400000D01*
X9823599Y-16176401D02*
X4400000Y-21600000D01*
X14210000Y-17040000D02*
X13346401Y-16176401D01*
X13346401Y-16176401D02*
X9823599Y-16176401D01*
X16750000Y-14500000D02*
X15550000Y-15700000D01*
X15550000Y-15700000D02*
X6100000Y-15700000D01*
X6100000Y-15700000D02*
X2540000Y-19260000D01*
X2540000Y-19260000D02*
X2540000Y-22900000D01*
X14210000Y-14500000D02*
X6000000Y-14500000D01*
X6000000Y-14500000D02*
X0Y-20500000D01*
X0Y-20500000D02*
X0Y-21100000D01*
X0Y-21100000D02*
X0Y-22900000D01*
X7300000Y-10700000D02*
X4220000Y-7620000D01*
X4220000Y-7620000D02*
X2540000Y-7620000D01*
X15490000Y-10700000D02*
X7300000Y-10700000D01*
X16750000Y-11960000D02*
X15490000Y-10700000D01*
X4300000Y-8900000D02*
X1280000Y-8900000D01*
X1280000Y-8900000D02*
X0Y-7620000D01*
X7360000Y-11960000D02*
X4300000Y-8900000D01*
X14210000Y-11960000D02*
X7360000Y-11960000D01*
X16750000Y-9420000D02*
X15430000Y-8100000D01*
X15430000Y-8100000D02*
X7400000Y-8100000D01*
X7400000Y-8100000D02*
X4380000Y-5080000D01*
X4380000Y-5080000D02*
X2540000Y-5080000D01*
X4300000Y-6300000D02*
X1220000Y-6300000D01*
X1220000Y-6300000D02*
X0Y-5080000D01*
X7420000Y-9420000D02*
X4300000Y-6300000D01*
X14210000Y-9420000D02*
X7420000Y-9420000D01*
X7300000Y-5600000D02*
X4240000Y-2540000D01*
X4240000Y-2540000D02*
X2540000Y-2540000D01*
X15470000Y-5600000D02*
X7300000Y-5600000D01*
X16750000Y-6880000D02*
X15470000Y-5600000D01*
X0Y-2540000D02*
X1260000Y-3800000D01*
X1260000Y-3800000D02*
X4400000Y-3800000D01*
X4400000Y-3800000D02*
X7480000Y-6880000D01*
X7480000Y-6880000D02*
X14210000Y-6880000D01*
X16750000Y-22120000D02*
X15470000Y-23400000D01*
X15470000Y-23400000D02*
X11600000Y-23400000D01*
X11600000Y-23400000D02*
X4530000Y-30470000D01*
X4530000Y-30470000D02*
X4530000Y-30520000D01*
X6010000Y-32000000D02*
X4530000Y-30520000D01*
X6600000Y-32000000D02*
X6010000Y-32000000D01*
X4530000Y-30520000D02*
X4380000Y-30520000D01*
X4380000Y-30520000D02*
X2540000Y-30520000D01*
X5500000Y-24200000D02*
X4260000Y-25440000D01*
X4260000Y-25440000D02*
X2540000Y-25440000D01*
X5500000Y-22480000D02*
X5500000Y-24200000D01*
X15490000Y-18300000D02*
X9680000Y-18300000D01*
X9680000Y-18300000D02*
X5500000Y-22480000D01*
X16750000Y-17040000D02*
X15490000Y-18300000D01*
X1500000Y-31750000D02*
X1250000Y-31500000D01*
X1250000Y-31500000D02*
X1250000Y-29230000D01*
X1250000Y-29230000D02*
X1220000Y-29200000D01*
X3650000Y-31750000D02*
X1500000Y-31750000D01*
X6600000Y-35000000D02*
X6600000Y-34700000D01*
X6600000Y-34700000D02*
X3650000Y-31750000D01*
X0Y-27980000D02*
X1220000Y-29200000D01*
X1220000Y-29200000D02*
X4700000Y-29200000D01*
X4700000Y-29200000D02*
X11780000Y-22120000D01*
X11780000Y-22120000D02*
X14210000Y-22120000D01*
X14210000Y-19580000D02*
X11820000Y-19580000D01*
X11820000Y-19580000D02*
X4700000Y-26700000D01*
X4700000Y-26700000D02*
X1260000Y-26700000D01*
X1260000Y-26700000D02*
X0Y-25440000D01*
M02*
