%TF.GenerationSoftware,KiCad,Pcbnew,no-vcs-found-a6f8405~61~ubuntu14.04.1*%
%TF.CreationDate,2017-11-06T16:29:44-05:00*%
%TF.ProjectId,OV7670_breakout,4F56373637305F627265616B6F75742E,rev?*%
%TF.SameCoordinates,Original*%
%TF.FileFunction,Copper,L1,Top,Signal*%
%TF.FilePolarity,Positive*%
%FSLAX46Y46*%
G04 Gerber Fmt 4.6, Leading zero omitted, Abs format (unit mm)*
G04 Created by KiCad (PCBNEW no-vcs-found-a6f8405~61~ubuntu14.04.1) date Mon Nov  6 16:29:44 2017*
%MOMM*%
%LPD*%
G01*
G04 APERTURE LIST*
%TA.AperFunction,ComponentPad*%
%ADD10R,1.727200X1.727200*%
%TD*%
%TA.AperFunction,ComponentPad*%
%ADD11O,1.727200X1.727200*%
%TD*%
%TA.AperFunction,SMDPad,CuDef*%
%ADD12R,0.700000X1.300000*%
%TD*%
%TA.AperFunction,SMDPad,CuDef*%
%ADD13C,1.000000*%
%TD*%
%TA.AperFunction,Conductor*%
%ADD14C,0.100000*%
%TD*%
%TA.AperFunction,SMDPad,CuDef*%
%ADD15C,0.650000*%
%TD*%
%TA.AperFunction,ViaPad*%
%ADD16C,0.700000*%
%TD*%
%TA.AperFunction,Conductor*%
%ADD17C,0.240000*%
%TD*%
%TA.AperFunction,Conductor*%
%ADD18C,0.320000*%
%TD*%
G04 APERTURE END LIST*
D10*
%TO.P,P101,1*%
%TO.N,GND*%
X14210000Y-1800000D03*
D11*
%TO.P,P101,2*%
X16750000Y-1800000D03*
%TO.P,P101,3*%
%TO.N,/JA7*%
X14210000Y-4340000D03*
%TO.P,P101,4*%
%TO.N,/JA1*%
X16750000Y-4340000D03*
%TO.P,P101,5*%
%TO.N,/D1*%
X14210000Y-6880000D03*
%TO.P,P101,6*%
%TO.N,/D0*%
X16750000Y-6880000D03*
%TO.P,P101,7*%
%TO.N,/D3*%
X14210000Y-9420000D03*
%TO.P,P101,8*%
%TO.N,/D2*%
X16750000Y-9420000D03*
%TO.P,P101,9*%
%TO.N,/D5*%
X14210000Y-11960000D03*
%TO.P,P101,10*%
%TO.N,/D4*%
X16750000Y-11960000D03*
%TO.P,P101,11*%
%TO.N,/D7*%
X14210000Y-14500000D03*
%TO.P,P101,12*%
%TO.N,/D6*%
X16750000Y-14500000D03*
%TO.P,P101,13*%
%TO.N,/JB10*%
X14210000Y-17040000D03*
%TO.P,P101,14*%
%TO.N,/JB2*%
X16750000Y-17040000D03*
%TO.P,P101,15*%
%TO.N,/JB8*%
X14210000Y-19580000D03*
%TO.P,P101,16*%
%TO.N,/HREF*%
X16750000Y-19580000D03*
%TO.P,P101,17*%
%TO.N,/JB9*%
X14210000Y-22120000D03*
%TO.P,P101,18*%
%TO.N,Net-(P101-Pad18)*%
X16750000Y-22120000D03*
%TO.P,P101,19*%
%TO.N,+3V3*%
X14210000Y-24660000D03*
%TO.P,P101,20*%
%TO.N,GND*%
X16750000Y-24660000D03*
%TD*%
D10*
%TO.P,P102,1*%
%TO.N,/JA7*%
X0Y0D03*
D11*
%TO.P,P102,2*%
%TO.N,/JA1*%
X2540000Y0D03*
%TO.P,P102,3*%
%TO.N,/D1*%
X0Y-2540000D03*
%TO.P,P102,4*%
%TO.N,/D0*%
X2540000Y-2540000D03*
%TO.P,P102,5*%
%TO.N,/D3*%
X0Y-5080000D03*
%TO.P,P102,6*%
%TO.N,/D2*%
X2540000Y-5080000D03*
%TO.P,P102,7*%
%TO.N,/D5*%
X0Y-7620000D03*
%TO.P,P102,8*%
%TO.N,/D4*%
X2540000Y-7620000D03*
%TO.P,P102,9*%
%TO.N,GND*%
X0Y-10160000D03*
%TO.P,P102,10*%
X2540000Y-10160000D03*
%TO.P,P102,11*%
%TO.N,+3V3*%
X0Y-12700000D03*
%TO.P,P102,12*%
X2540000Y-12700000D03*
%TD*%
D10*
%TO.P,P103,1*%
%TO.N,/D7*%
X0Y-22900000D03*
D11*
%TO.P,P103,2*%
%TO.N,/D6*%
X2540000Y-22900000D03*
%TO.P,P103,3*%
%TO.N,/JB8*%
X0Y-25440000D03*
%TO.P,P103,4*%
%TO.N,/JB2*%
X2540000Y-25440000D03*
%TO.P,P103,5*%
%TO.N,/JB9*%
X0Y-27980000D03*
%TO.P,P103,6*%
%TO.N,/HREF*%
X2540000Y-27980000D03*
%TO.P,P103,7*%
%TO.N,/JB10*%
X0Y-30520000D03*
%TO.P,P103,8*%
%TO.N,/JB4*%
X2540000Y-30520000D03*
%TO.P,P103,9*%
%TO.N,GND*%
X0Y-33060000D03*
%TO.P,P103,10*%
X2540000Y-33060000D03*
%TO.P,P103,11*%
%TO.N,+3V3*%
X0Y-35600000D03*
%TO.P,P103,12*%
X2540000Y-35600000D03*
%TD*%
D12*
%TO.P,R101,1*%
%TO.N,+3V3*%
X8500000Y-32000000D03*
%TO.P,R101,2*%
%TO.N,/JB4*%
X6600000Y-32000000D03*
%TD*%
%TO.P,R102,1*%
%TO.N,+3V3*%
X8450000Y-34500000D03*
%TO.P,R102,2*%
%TO.N,/JB9*%
X6550000Y-34500000D03*
%TD*%
D13*
%TO.P,C101,2*%
%TO.N,GND*%
X4692893Y-18357107D03*
D14*
%TD*%
%TO.N,GND*%
%TO.C,C101*%
G36*
X4604505Y-17561612D02*
X5488388Y-18445495D01*
X4781281Y-19152602D01*
X3897398Y-18268719D01*
X4604505Y-17561612D01*
X4604505Y-17561612D01*
G37*
D13*
%TO.P,C101,1*%
%TO.N,+3V3*%
X6107107Y-16942893D03*
D14*
%TD*%
%TO.N,+3V3*%
%TO.C,C101*%
G36*
X6018719Y-16147398D02*
X6902602Y-17031281D01*
X6195495Y-17738388D01*
X5311612Y-16854505D01*
X6018719Y-16147398D01*
X6018719Y-16147398D01*
G37*
D12*
%TO.P,R103,2*%
%TO.N,Net-(P101-Pad18)*%
X8450000Y-29500000D03*
%TO.P,R103,1*%
%TO.N,/JB4*%
X6550000Y-29500000D03*
%TD*%
D15*
%TO.P,U101,5*%
%TO.N,GND*%
X6722183Y-20277817D03*
D14*
%TD*%
%TO.N,GND*%
%TO.C,U101*%
G36*
X6867140Y-19673241D02*
X7326759Y-20132860D01*
X6577226Y-20882393D01*
X6117607Y-20422774D01*
X6867140Y-19673241D01*
X6867140Y-19673241D01*
G37*
D15*
%TO.P,U101,6*%
%TO.N,N/C*%
X7393934Y-20949569D03*
D14*
%TD*%
%TO.N,N/C*%
%TO.C,U101*%
G36*
X7538891Y-20344993D02*
X7998510Y-20804612D01*
X7248977Y-21554145D01*
X6789358Y-21094526D01*
X7538891Y-20344993D01*
X7538891Y-20344993D01*
G37*
D15*
%TO.P,U101,4*%
%TO.N,/JA7*%
X6050431Y-19606066D03*
D14*
%TD*%
%TO.N,/JA7*%
%TO.C,U101*%
G36*
X6195388Y-19001490D02*
X6655007Y-19461109D01*
X5905474Y-20210642D01*
X5445855Y-19751023D01*
X6195388Y-19001490D01*
X6195388Y-19001490D01*
G37*
D15*
%TO.P,U101,3*%
%TO.N,/JA1*%
X7606066Y-18050431D03*
D14*
%TD*%
%TO.N,/JA1*%
%TO.C,U101*%
G36*
X7751023Y-17445855D02*
X8210642Y-17905474D01*
X7461109Y-18655007D01*
X7001490Y-18195388D01*
X7751023Y-17445855D01*
X7751023Y-17445855D01*
G37*
D15*
%TO.P,U101,2*%
%TO.N,+3V3*%
X8277817Y-18722183D03*
D14*
%TD*%
%TO.N,+3V3*%
%TO.C,U101*%
G36*
X8422774Y-18117607D02*
X8882393Y-18577226D01*
X8132860Y-19326759D01*
X7673241Y-18867140D01*
X8422774Y-18117607D01*
X8422774Y-18117607D01*
G37*
D15*
%TO.P,U101,1*%
%TO.N,/JB2*%
X8949569Y-19393934D03*
D14*
%TD*%
%TO.N,/JB2*%
%TO.C,U101*%
G36*
X9094526Y-18789358D02*
X9554145Y-19248977D01*
X8804612Y-19998510D01*
X8344993Y-19538891D01*
X9094526Y-18789358D01*
X9094526Y-18789358D01*
G37*
D16*
%TO.N,GND*%
X4000000Y-19050000D03*
X5800000Y-21200000D03*
%TO.N,+3V3*%
X4900000Y-13800000D03*
X4900000Y-15750000D03*
X9150000Y-17850000D03*
%TO.N,/JA7*%
X-2800000Y-24150000D03*
X3650000Y-24150000D03*
%TO.N,/JA1*%
X17900000Y-15750000D03*
X11100000Y-15850000D03*
X8450000Y-17200000D03*
%TO.N,/JA7*%
X5000000Y-20550000D03*
%TO.N,/JB10*%
X3950000Y-26070000D03*
%TD*%
D17*
%TO.N,GND*%
X4692893Y-18357107D02*
X4000000Y-19050000D01*
X6722183Y-20277817D02*
X5800000Y-21200000D01*
%TO.N,+3V3*%
X4900000Y-13800000D02*
X3800000Y-12700000D01*
X3800000Y-12700000D02*
X2540000Y-12700000D01*
X6107107Y-16942893D02*
X6092893Y-16942893D01*
X6092893Y-16942893D02*
X4900000Y-15750000D01*
D18*
X-1500000Y-35600000D02*
X0Y-35600000D01*
X0Y-12700000D02*
X0Y-18150000D01*
X0Y-18150000D02*
X-2100000Y-20250000D01*
X-2100000Y-20250000D02*
X-2100000Y-35000000D01*
X-2100000Y-35000000D02*
X-1500000Y-35600000D01*
D17*
X6107107Y-16942893D02*
X6107107Y-18007107D01*
X6107107Y-18007107D02*
X7267659Y-19167659D01*
X7267659Y-19167659D02*
X7832341Y-19167659D01*
X7832341Y-19167659D02*
X8277817Y-18722183D01*
D18*
X8500000Y-32000000D02*
X10650000Y-32000000D01*
X10650000Y-32000000D02*
X14210000Y-28440000D01*
X14210000Y-28440000D02*
X14210000Y-24660000D01*
X8450000Y-34500000D02*
X8450000Y-32050000D01*
X8450000Y-32050000D02*
X8500000Y-32000000D01*
D17*
X8277817Y-18722183D02*
X9150000Y-17850000D01*
D18*
X7870000Y-36600000D02*
X3540000Y-36600000D01*
X3540000Y-36600000D02*
X2540000Y-35600000D01*
X8500000Y-35000000D02*
X8500000Y-35970000D01*
X8500000Y-35970000D02*
X7870000Y-36600000D01*
X0Y-35600000D02*
X2540000Y-35600000D01*
X2540000Y-12700000D02*
X0Y-12700000D01*
D17*
X8500000Y-35000000D02*
X8500000Y-34110000D01*
%TO.N,/JA7*%
X-2800000Y-24150000D02*
X-2800000Y-19250000D01*
X-2800000Y-19250000D02*
X-2050000Y-18500000D01*
X-2050000Y-18500000D02*
X-2050000Y-10550000D01*
X5000000Y-20550000D02*
X5000000Y-22800000D01*
X5000000Y-22800000D02*
X3650000Y-24150000D01*
X-2050000Y-10550000D02*
X-2050000Y-650000D01*
X-2050000Y-650000D02*
X-1400000Y0D01*
X-1400000Y0D02*
X0Y0D01*
%TO.N,/JA1*%
X17900000Y-15750000D02*
X18750000Y-14900000D01*
X18750000Y-14900000D02*
X18750000Y-5000000D01*
X18750000Y-5000000D02*
X18090000Y-4340000D01*
X18090000Y-4340000D02*
X16750000Y-4340000D01*
X8450000Y-17200000D02*
X9800000Y-15850000D01*
X9800000Y-15850000D02*
X11100000Y-15850000D01*
X7606066Y-18050431D02*
X7606066Y-18043934D01*
X7606066Y-18043934D02*
X8450000Y-17200000D01*
%TO.N,/JA7*%
X4400000Y-1300000D02*
X196400Y-1300000D01*
X196400Y-1300000D02*
X0Y-1103600D01*
X0Y-1103600D02*
X0Y0D01*
X7440000Y-4340000D02*
X4400000Y-1300000D01*
X14210000Y-4340000D02*
X7440000Y-4340000D01*
X6050431Y-19606066D02*
X5943934Y-19606066D01*
X5943934Y-19606066D02*
X5000000Y-20550000D01*
%TO.N,/JA1*%
X4500000Y0D02*
X2540000Y0D01*
X7600000Y-3100000D02*
X4500000Y0D01*
X15510000Y-3100000D02*
X7600000Y-3100000D01*
X16750000Y-4340000D02*
X15510000Y-3100000D01*
%TO.N,/HREF*%
X11900000Y-20800000D02*
X4720000Y-27980000D01*
X4720000Y-27980000D02*
X2540000Y-27980000D01*
X15530000Y-20800000D02*
X11900000Y-20800000D01*
X16750000Y-19580000D02*
X15530000Y-20800000D01*
%TO.N,/JB10*%
X10350000Y-20350000D02*
X4630000Y-26070000D01*
X4630000Y-26070000D02*
X3950000Y-26070000D01*
X10500000Y-20200000D02*
X10350000Y-20350000D01*
X11750000Y-18950000D02*
X10500000Y-20200000D01*
X12300000Y-18950000D02*
X11750000Y-18950000D01*
X14210000Y-17040000D02*
X12300000Y-18950000D01*
X0Y-30520000D02*
X-20000Y-30500000D01*
%TO.N,/D6*%
X-1300000Y-24150000D02*
X1290000Y-24150000D01*
X1290000Y-24150000D02*
X2540000Y-22900000D01*
X-1450000Y-24000000D02*
X-1300000Y-24150000D01*
X-1450000Y-20750000D02*
X-1450000Y-24000000D01*
X750000Y-18550000D02*
X-1450000Y-20750000D01*
X750000Y-15450000D02*
X750000Y-18550000D01*
X1700000Y-14500000D02*
X750000Y-15450000D01*
X11500000Y-14500000D02*
X1700000Y-14500000D01*
X12750000Y-13250000D02*
X11500000Y-14500000D01*
X15500000Y-13250000D02*
X12750000Y-13250000D01*
X16750000Y-14500000D02*
X15500000Y-13250000D01*
%TO.N,/D7*%
X11900000Y-15050000D02*
X2097470Y-15050000D01*
X2097470Y-15050000D02*
X1250000Y-15897470D01*
X12450000Y-14500000D02*
X11900000Y-15050000D01*
X14210000Y-14500000D02*
X12450000Y-14500000D01*
X1250000Y-15897470D02*
X1250000Y-18800000D01*
X1250000Y-18800000D02*
X0Y-20050000D01*
X0Y-20050000D02*
X0Y-21100000D01*
X0Y-21100000D02*
X0Y-22900000D01*
%TO.N,/D4*%
X7300000Y-10700000D02*
X4220000Y-7620000D01*
X15490000Y-10700000D02*
X7300000Y-10700000D01*
X16750000Y-11960000D02*
X15490000Y-10700000D01*
X4220000Y-7620000D02*
X2540000Y-7620000D01*
%TO.N,/D5*%
X7360000Y-11960000D02*
X4300000Y-8900000D01*
X14210000Y-11960000D02*
X7360000Y-11960000D01*
X4300000Y-8900000D02*
X1280000Y-8900000D01*
X1280000Y-8900000D02*
X0Y-7620000D01*
%TO.N,/D2*%
X16750000Y-9420000D02*
X15430000Y-8100000D01*
X15430000Y-8100000D02*
X7400000Y-8100000D01*
X7400000Y-8100000D02*
X4380000Y-5080000D01*
X4380000Y-5080000D02*
X2540000Y-5080000D01*
%TO.N,/D3*%
X7420000Y-9420000D02*
X4300000Y-6300000D01*
X14210000Y-9420000D02*
X7420000Y-9420000D01*
X4300000Y-6300000D02*
X1220000Y-6300000D01*
X1220000Y-6300000D02*
X0Y-5080000D01*
%TO.N,/D0*%
X7300000Y-5600000D02*
X4240000Y-2540000D01*
X4240000Y-2540000D02*
X2540000Y-2540000D01*
X15470000Y-5600000D02*
X7300000Y-5600000D01*
X16750000Y-6880000D02*
X15470000Y-5600000D01*
%TO.N,/D1*%
X0Y-2540000D02*
X1260000Y-3800000D01*
X1260000Y-3800000D02*
X4400000Y-3800000D01*
X4400000Y-3800000D02*
X7480000Y-6880000D01*
X7480000Y-6880000D02*
X14210000Y-6880000D01*
%TO.N,/JB4*%
X6600000Y-32000000D02*
X6600000Y-29550000D01*
X6600000Y-29550000D02*
X6550000Y-29500000D01*
X6010000Y-32000000D02*
X4530000Y-30520000D01*
X6600000Y-32000000D02*
X6010000Y-32000000D01*
X4530000Y-30520000D02*
X4380000Y-30520000D01*
X4380000Y-30520000D02*
X2540000Y-30520000D01*
%TO.N,/JB2*%
X8949569Y-19393934D02*
X9250088Y-19694453D01*
X9250088Y-19694453D02*
X9250088Y-20249912D01*
X9250088Y-20249912D02*
X4060000Y-25440000D01*
X4060000Y-25440000D02*
X2540000Y-25440000D01*
X16750000Y-17040000D02*
X15460000Y-15750000D01*
X15460000Y-15750000D02*
X12593503Y-15750000D01*
X12593503Y-15750000D02*
X8949569Y-19393934D01*
%TO.N,/JB9*%
X1500000Y-31750000D02*
X1250000Y-31500000D01*
X1250000Y-31500000D02*
X1250000Y-29230000D01*
X1250000Y-29230000D02*
X1220000Y-29200000D01*
X3650000Y-31750000D02*
X1500000Y-31750000D01*
X6600000Y-35000000D02*
X6600000Y-34700000D01*
X6600000Y-34700000D02*
X3650000Y-31750000D01*
X0Y-27980000D02*
X1220000Y-29200000D01*
X1220000Y-29200000D02*
X4700000Y-29200000D01*
X4700000Y-29200000D02*
X11780000Y-22120000D01*
X11780000Y-22120000D02*
X14210000Y-22120000D01*
%TO.N,/JB8*%
X14210000Y-19580000D02*
X11820000Y-19580000D01*
X11820000Y-19580000D02*
X4700000Y-26700000D01*
X4700000Y-26700000D02*
X1260000Y-26700000D01*
X1260000Y-26700000D02*
X0Y-25440000D01*
%TO.N,Net-(P101-Pad18)*%
X12600000Y-23400000D02*
X15470000Y-23400000D01*
X15470000Y-23400000D02*
X16750000Y-22120000D01*
X11250000Y-24750000D02*
X12600000Y-23400000D01*
X11250000Y-25810000D02*
X11250000Y-24750000D01*
X8450000Y-29500000D02*
X8450000Y-28610000D01*
X8450000Y-28610000D02*
X11250000Y-25810000D01*
%TD*%
M02*
