%TF.GenerationSoftware,KiCad,Pcbnew,no-vcs-found-a6f8405~61~ubuntu14.04.1*%
%TF.CreationDate,2017-11-06T16:29:44-05:00*%
%TF.ProjectId,OV7670_breakout,4F56373637305F627265616B6F75742E,rev?*%
%TF.SameCoordinates,Original*%
%TF.FileFunction,Copper,L2,Bot,Signal*%
%TF.FilePolarity,Positive*%
%FSLAX46Y46*%
G04 Gerber Fmt 4.6, Leading zero omitted, Abs format (unit mm)*
G04 Created by KiCad (PCBNEW no-vcs-found-a6f8405~61~ubuntu14.04.1) date Mon Nov  6 16:29:44 2017*
%MOMM*%
%LPD*%
G01*
G04 APERTURE LIST*
%TA.AperFunction,ComponentPad*%
%ADD10R,1.727200X1.727200*%
%TD*%
%TA.AperFunction,ComponentPad*%
%ADD11O,1.727200X1.727200*%
%TD*%
%TA.AperFunction,ViaPad*%
%ADD12C,0.700000*%
%TD*%
%TA.AperFunction,Conductor*%
%ADD13C,0.240000*%
%TD*%
%TA.AperFunction,Conductor*%
%ADD14C,0.254000*%
%TD*%
G04 APERTURE END LIST*
D10*
%TO.P,P101,1*%
%TO.N,GND*%
X14210000Y-1800000D03*
D11*
%TO.P,P101,2*%
X16750000Y-1800000D03*
%TO.P,P101,3*%
%TO.N,/JA7*%
X14210000Y-4340000D03*
%TO.P,P101,4*%
%TO.N,/JA1*%
X16750000Y-4340000D03*
%TO.P,P101,5*%
%TO.N,/D1*%
X14210000Y-6880000D03*
%TO.P,P101,6*%
%TO.N,/D0*%
X16750000Y-6880000D03*
%TO.P,P101,7*%
%TO.N,/D3*%
X14210000Y-9420000D03*
%TO.P,P101,8*%
%TO.N,/D2*%
X16750000Y-9420000D03*
%TO.P,P101,9*%
%TO.N,/D5*%
X14210000Y-11960000D03*
%TO.P,P101,10*%
%TO.N,/D4*%
X16750000Y-11960000D03*
%TO.P,P101,11*%
%TO.N,/D7*%
X14210000Y-14500000D03*
%TO.P,P101,12*%
%TO.N,/D6*%
X16750000Y-14500000D03*
%TO.P,P101,13*%
%TO.N,/JB10*%
X14210000Y-17040000D03*
%TO.P,P101,14*%
%TO.N,/JB2*%
X16750000Y-17040000D03*
%TO.P,P101,15*%
%TO.N,/JB8*%
X14210000Y-19580000D03*
%TO.P,P101,16*%
%TO.N,/HREF*%
X16750000Y-19580000D03*
%TO.P,P101,17*%
%TO.N,/JB9*%
X14210000Y-22120000D03*
%TO.P,P101,18*%
%TO.N,Net-(P101-Pad18)*%
X16750000Y-22120000D03*
%TO.P,P101,19*%
%TO.N,+3V3*%
X14210000Y-24660000D03*
%TO.P,P101,20*%
%TO.N,GND*%
X16750000Y-24660000D03*
%TD*%
D10*
%TO.P,P102,1*%
%TO.N,/JA7*%
X0Y0D03*
D11*
%TO.P,P102,2*%
%TO.N,/JA1*%
X2540000Y0D03*
%TO.P,P102,3*%
%TO.N,/D1*%
X0Y-2540000D03*
%TO.P,P102,4*%
%TO.N,/D0*%
X2540000Y-2540000D03*
%TO.P,P102,5*%
%TO.N,/D3*%
X0Y-5080000D03*
%TO.P,P102,6*%
%TO.N,/D2*%
X2540000Y-5080000D03*
%TO.P,P102,7*%
%TO.N,/D5*%
X0Y-7620000D03*
%TO.P,P102,8*%
%TO.N,/D4*%
X2540000Y-7620000D03*
%TO.P,P102,9*%
%TO.N,GND*%
X0Y-10160000D03*
%TO.P,P102,10*%
X2540000Y-10160000D03*
%TO.P,P102,11*%
%TO.N,+3V3*%
X0Y-12700000D03*
%TO.P,P102,12*%
X2540000Y-12700000D03*
%TD*%
D10*
%TO.P,P103,1*%
%TO.N,/D7*%
X0Y-22900000D03*
D11*
%TO.P,P103,2*%
%TO.N,/D6*%
X2540000Y-22900000D03*
%TO.P,P103,3*%
%TO.N,/JB8*%
X0Y-25440000D03*
%TO.P,P103,4*%
%TO.N,/JB2*%
X2540000Y-25440000D03*
%TO.P,P103,5*%
%TO.N,/JB9*%
X0Y-27980000D03*
%TO.P,P103,6*%
%TO.N,/HREF*%
X2540000Y-27980000D03*
%TO.P,P103,7*%
%TO.N,/JB10*%
X0Y-30520000D03*
%TO.P,P103,8*%
%TO.N,/JB4*%
X2540000Y-30520000D03*
%TO.P,P103,9*%
%TO.N,GND*%
X0Y-33060000D03*
%TO.P,P103,10*%
X2540000Y-33060000D03*
%TO.P,P103,11*%
%TO.N,+3V3*%
X0Y-35600000D03*
%TO.P,P103,12*%
X2540000Y-35600000D03*
%TD*%
D12*
%TO.N,GND*%
X4000000Y-19050000D03*
X5800000Y-21200000D03*
%TO.N,+3V3*%
X4900000Y-13800000D03*
X4900000Y-15750000D03*
X9150000Y-17850000D03*
%TO.N,/JA7*%
X-2800000Y-24150000D03*
X3650000Y-24150000D03*
%TO.N,/JA1*%
X17900000Y-15750000D03*
X11100000Y-15850000D03*
X8450000Y-17200000D03*
%TO.N,/JA7*%
X5000000Y-20550000D03*
%TO.N,/JB10*%
X3950000Y-26070000D03*
%TD*%
D13*
%TO.N,+3V3*%
X4900000Y-15750000D02*
X4900000Y-13800000D01*
%TO.N,/JA7*%
X-2450000Y-24150000D02*
X-2800000Y-24150000D01*
X2097470Y-24150000D02*
X-2450000Y-24150000D01*
X3650000Y-24150000D02*
X2097470Y-24150000D01*
%TO.N,/JA1*%
X13200000Y-15750000D02*
X17900000Y-15750000D01*
X13100000Y-15850000D02*
X13200000Y-15750000D01*
X11100000Y-15850000D02*
X13100000Y-15850000D01*
%TO.N,/JB10*%
X1250000Y-27200000D02*
X1250000Y-29270000D01*
X1250000Y-29270000D02*
X0Y-30520000D01*
X1750000Y-26700000D02*
X1250000Y-27200000D01*
X3320000Y-26700000D02*
X1750000Y-26700000D01*
X3950000Y-26070000D02*
X3320000Y-26700000D01*
%TD*%
D14*
%TO.N,GND*%
G36*
X20290000Y-38540000D02*
X-3290000Y-38540000D01*
X-3290000Y-35600000D01*
X-1527959Y-35600000D01*
X-1413885Y-36173489D01*
X-1089029Y-36659670D01*
X-602848Y-36984526D01*
X-29359Y-37098600D01*
X29359Y-37098600D01*
X602848Y-36984526D01*
X1089029Y-36659670D01*
X1270000Y-36388828D01*
X1450971Y-36659670D01*
X1937152Y-36984526D01*
X2510641Y-37098600D01*
X2569359Y-37098600D01*
X3142848Y-36984526D01*
X3629029Y-36659670D01*
X3953885Y-36173489D01*
X4067959Y-35600000D01*
X3953885Y-35026511D01*
X3629029Y-34540330D01*
X3305772Y-34324336D01*
X3428490Y-34266821D01*
X3822688Y-33834947D01*
X3994958Y-33419026D01*
X3873817Y-33187000D01*
X2667000Y-33187000D01*
X2667000Y-33207000D01*
X2413000Y-33207000D01*
X2413000Y-33187000D01*
X127000Y-33187000D01*
X127000Y-33207000D01*
X-127000Y-33207000D01*
X-127000Y-33187000D01*
X-1333817Y-33187000D01*
X-1454958Y-33419026D01*
X-1282688Y-33834947D01*
X-888490Y-34266821D01*
X-765772Y-34324336D01*
X-1089029Y-34540330D01*
X-1413885Y-35026511D01*
X-1527959Y-35600000D01*
X-3290000Y-35600000D01*
X-3290000Y-25013076D01*
X-2996788Y-25134828D01*
X-2604931Y-25135170D01*
X-2242771Y-24985529D01*
X-2162102Y-24905000D01*
X-1421541Y-24905000D01*
X-1527959Y-25440000D01*
X-1413885Y-26013489D01*
X-1089029Y-26499670D01*
X-774248Y-26710000D01*
X-1089029Y-26920330D01*
X-1413885Y-27406511D01*
X-1527959Y-27980000D01*
X-1413885Y-28553489D01*
X-1089029Y-29039670D01*
X-774248Y-29250000D01*
X-1089029Y-29460330D01*
X-1413885Y-29946511D01*
X-1527959Y-30520000D01*
X-1413885Y-31093489D01*
X-1089029Y-31579670D01*
X-765772Y-31795664D01*
X-888490Y-31853179D01*
X-1282688Y-32285053D01*
X-1454958Y-32700974D01*
X-1333817Y-32933000D01*
X-127000Y-32933000D01*
X-127000Y-32913000D01*
X127000Y-32913000D01*
X127000Y-32933000D01*
X2413000Y-32933000D01*
X2413000Y-32913000D01*
X2667000Y-32913000D01*
X2667000Y-32933000D01*
X3873817Y-32933000D01*
X3994958Y-32700974D01*
X3822688Y-32285053D01*
X3428490Y-31853179D01*
X3305772Y-31795664D01*
X3629029Y-31579670D01*
X3953885Y-31093489D01*
X4067959Y-30520000D01*
X3953885Y-29946511D01*
X3629029Y-29460330D01*
X3314248Y-29250000D01*
X3629029Y-29039670D01*
X3953885Y-28553489D01*
X4067959Y-27980000D01*
X3953885Y-27406511D01*
X3843262Y-27240952D01*
X3853866Y-27233866D01*
X4032660Y-27055072D01*
X4145069Y-27055170D01*
X4507229Y-26905529D01*
X4784555Y-26628686D01*
X4934828Y-26266788D01*
X4935170Y-25874931D01*
X4785529Y-25512771D01*
X4508686Y-25235445D01*
X4146788Y-25085172D01*
X3997353Y-25085042D01*
X3995002Y-25073219D01*
X4207229Y-24985529D01*
X4484555Y-24708686D01*
X4634828Y-24346788D01*
X4635170Y-23954931D01*
X4485529Y-23592771D01*
X4208686Y-23315445D01*
X4002363Y-23229772D01*
X4067959Y-22900000D01*
X3953885Y-22326511D01*
X3629029Y-21840330D01*
X3142848Y-21515474D01*
X2569359Y-21401400D01*
X2510641Y-21401400D01*
X1937152Y-21515474D01*
X1469568Y-21827904D01*
X1461757Y-21788635D01*
X1321409Y-21578591D01*
X1111365Y-21438243D01*
X863600Y-21388960D01*
X-863600Y-21388960D01*
X-1111365Y-21438243D01*
X-1321409Y-21578591D01*
X-1461757Y-21788635D01*
X-1511040Y-22036400D01*
X-1511040Y-23395000D01*
X-2161898Y-23395000D01*
X-2241314Y-23315445D01*
X-2603212Y-23165172D01*
X-2995069Y-23164830D01*
X-3290000Y-23286693D01*
X-3290000Y-20745069D01*
X4014830Y-20745069D01*
X4164471Y-21107229D01*
X4441314Y-21384555D01*
X4803212Y-21534828D01*
X5195069Y-21535170D01*
X5557229Y-21385529D01*
X5834555Y-21108686D01*
X5984828Y-20746788D01*
X5985170Y-20354931D01*
X5835529Y-19992771D01*
X5558686Y-19715445D01*
X5196788Y-19565172D01*
X4804931Y-19564830D01*
X4442771Y-19714471D01*
X4165445Y-19991314D01*
X4015172Y-20353212D01*
X4014830Y-20745069D01*
X-3290000Y-20745069D01*
X-3290000Y-17395069D01*
X7464830Y-17395069D01*
X7614471Y-17757229D01*
X7891314Y-18034555D01*
X8216232Y-18169473D01*
X8314471Y-18407229D01*
X8591314Y-18684555D01*
X8953212Y-18834828D01*
X9345069Y-18835170D01*
X9707229Y-18685529D01*
X9984555Y-18408686D01*
X10134828Y-18046788D01*
X10135170Y-17654931D01*
X9985529Y-17292771D01*
X9708686Y-17015445D01*
X9383768Y-16880527D01*
X9285529Y-16642771D01*
X9008686Y-16365445D01*
X8646788Y-16215172D01*
X8254931Y-16214830D01*
X7892771Y-16364471D01*
X7615445Y-16641314D01*
X7465172Y-17003212D01*
X7464830Y-17395069D01*
X-3290000Y-17395069D01*
X-3290000Y-12700000D01*
X-1527959Y-12700000D01*
X-1413885Y-13273489D01*
X-1089029Y-13759670D01*
X-602848Y-14084526D01*
X-29359Y-14198600D01*
X29359Y-14198600D01*
X602848Y-14084526D01*
X1089029Y-13759670D01*
X1270000Y-13488828D01*
X1450971Y-13759670D01*
X1937152Y-14084526D01*
X2510641Y-14198600D01*
X2569359Y-14198600D01*
X3142848Y-14084526D01*
X3276729Y-13995069D01*
X3914830Y-13995069D01*
X4064471Y-14357229D01*
X4145000Y-14437898D01*
X4145000Y-15111898D01*
X4065445Y-15191314D01*
X3915172Y-15553212D01*
X3914830Y-15945069D01*
X4064471Y-16307229D01*
X4341314Y-16584555D01*
X4703212Y-16734828D01*
X5095069Y-16735170D01*
X5457229Y-16585529D01*
X5734555Y-16308686D01*
X5844018Y-16045069D01*
X10114830Y-16045069D01*
X10264471Y-16407229D01*
X10541314Y-16684555D01*
X10903212Y-16834828D01*
X11295069Y-16835170D01*
X11657229Y-16685529D01*
X11737898Y-16605000D01*
X12768568Y-16605000D01*
X12682041Y-17040000D01*
X12796115Y-17613489D01*
X13120971Y-18099670D01*
X13435752Y-18310000D01*
X13120971Y-18520330D01*
X12796115Y-19006511D01*
X12682041Y-19580000D01*
X12796115Y-20153489D01*
X13120971Y-20639670D01*
X13435752Y-20850000D01*
X13120971Y-21060330D01*
X12796115Y-21546511D01*
X12682041Y-22120000D01*
X12796115Y-22693489D01*
X13120971Y-23179670D01*
X13435752Y-23390000D01*
X13120971Y-23600330D01*
X12796115Y-24086511D01*
X12682041Y-24660000D01*
X12796115Y-25233489D01*
X13120971Y-25719670D01*
X13607152Y-26044526D01*
X14180641Y-26158600D01*
X14239359Y-26158600D01*
X14812848Y-26044526D01*
X15299029Y-25719670D01*
X15479992Y-25448839D01*
X15861510Y-25866821D01*
X16390973Y-26114968D01*
X16623000Y-25994469D01*
X16623000Y-24787000D01*
X16877000Y-24787000D01*
X16877000Y-25994469D01*
X17109027Y-26114968D01*
X17638490Y-25866821D01*
X18032688Y-25434947D01*
X18204958Y-25019026D01*
X18083817Y-24787000D01*
X16877000Y-24787000D01*
X16623000Y-24787000D01*
X16603000Y-24787000D01*
X16603000Y-24533000D01*
X16623000Y-24533000D01*
X16623000Y-24513000D01*
X16877000Y-24513000D01*
X16877000Y-24533000D01*
X18083817Y-24533000D01*
X18204958Y-24300974D01*
X18032688Y-23885053D01*
X17638490Y-23453179D01*
X17515772Y-23395664D01*
X17839029Y-23179670D01*
X18163885Y-22693489D01*
X18277959Y-22120000D01*
X18163885Y-21546511D01*
X17839029Y-21060330D01*
X17524248Y-20850000D01*
X17839029Y-20639670D01*
X18163885Y-20153489D01*
X18277959Y-19580000D01*
X18163885Y-19006511D01*
X17839029Y-18520330D01*
X17524248Y-18310000D01*
X17839029Y-18099670D01*
X18163885Y-17613489D01*
X18277959Y-17040000D01*
X18208040Y-16688492D01*
X18457229Y-16585529D01*
X18734555Y-16308686D01*
X18884828Y-15946788D01*
X18885170Y-15554931D01*
X18735529Y-15192771D01*
X18458686Y-14915445D01*
X18215415Y-14814430D01*
X18277959Y-14500000D01*
X18163885Y-13926511D01*
X17839029Y-13440330D01*
X17524248Y-13230000D01*
X17839029Y-13019670D01*
X18163885Y-12533489D01*
X18277959Y-11960000D01*
X18163885Y-11386511D01*
X17839029Y-10900330D01*
X17524248Y-10690000D01*
X17839029Y-10479670D01*
X18163885Y-9993489D01*
X18277959Y-9420000D01*
X18163885Y-8846511D01*
X17839029Y-8360330D01*
X17524248Y-8150000D01*
X17839029Y-7939670D01*
X18163885Y-7453489D01*
X18277959Y-6880000D01*
X18163885Y-6306511D01*
X17839029Y-5820330D01*
X17524248Y-5610000D01*
X17839029Y-5399670D01*
X18163885Y-4913489D01*
X18277959Y-4340000D01*
X18163885Y-3766511D01*
X17839029Y-3280330D01*
X17515772Y-3064336D01*
X17638490Y-3006821D01*
X18032688Y-2574947D01*
X18204958Y-2159026D01*
X18083817Y-1927000D01*
X16877000Y-1927000D01*
X16877000Y-1947000D01*
X16623000Y-1947000D01*
X16623000Y-1927000D01*
X14337000Y-1927000D01*
X14337000Y-1947000D01*
X14083000Y-1947000D01*
X14083000Y-1927000D01*
X12870150Y-1927000D01*
X12711400Y-2085750D01*
X12711400Y-2789910D01*
X12808073Y-3023299D01*
X12986702Y-3201927D01*
X13142023Y-3266263D01*
X13120971Y-3280330D01*
X12796115Y-3766511D01*
X12682041Y-4340000D01*
X12796115Y-4913489D01*
X13120971Y-5399670D01*
X13435752Y-5610000D01*
X13120971Y-5820330D01*
X12796115Y-6306511D01*
X12682041Y-6880000D01*
X12796115Y-7453489D01*
X13120971Y-7939670D01*
X13435752Y-8150000D01*
X13120971Y-8360330D01*
X12796115Y-8846511D01*
X12682041Y-9420000D01*
X12796115Y-9993489D01*
X13120971Y-10479670D01*
X13435752Y-10690000D01*
X13120971Y-10900330D01*
X12796115Y-11386511D01*
X12682041Y-11960000D01*
X12796115Y-12533489D01*
X13120971Y-13019670D01*
X13435752Y-13230000D01*
X13120971Y-13440330D01*
X12796115Y-13926511D01*
X12682041Y-14500000D01*
X12796115Y-15073489D01*
X12810488Y-15095000D01*
X11738102Y-15095000D01*
X11658686Y-15015445D01*
X11296788Y-14865172D01*
X10904931Y-14864830D01*
X10542771Y-15014471D01*
X10265445Y-15291314D01*
X10115172Y-15653212D01*
X10114830Y-16045069D01*
X5844018Y-16045069D01*
X5884828Y-15946788D01*
X5885170Y-15554931D01*
X5735529Y-15192771D01*
X5655000Y-15112102D01*
X5655000Y-14438102D01*
X5734555Y-14358686D01*
X5884828Y-13996788D01*
X5885170Y-13604931D01*
X5735529Y-13242771D01*
X5458686Y-12965445D01*
X5096788Y-12815172D01*
X4704931Y-12814830D01*
X4342771Y-12964471D01*
X4065445Y-13241314D01*
X3915172Y-13603212D01*
X3914830Y-13995069D01*
X3276729Y-13995069D01*
X3629029Y-13759670D01*
X3953885Y-13273489D01*
X4067959Y-12700000D01*
X3953885Y-12126511D01*
X3629029Y-11640330D01*
X3305772Y-11424336D01*
X3428490Y-11366821D01*
X3822688Y-10934947D01*
X3994958Y-10519026D01*
X3873817Y-10287000D01*
X2667000Y-10287000D01*
X2667000Y-10307000D01*
X2413000Y-10307000D01*
X2413000Y-10287000D01*
X127000Y-10287000D01*
X127000Y-10307000D01*
X-127000Y-10307000D01*
X-127000Y-10287000D01*
X-1333817Y-10287000D01*
X-1454958Y-10519026D01*
X-1282688Y-10934947D01*
X-888490Y-11366821D01*
X-765772Y-11424336D01*
X-1089029Y-11640330D01*
X-1413885Y-12126511D01*
X-1527959Y-12700000D01*
X-3290000Y-12700000D01*
X-3290000Y-2540000D01*
X-1527959Y-2540000D01*
X-1413885Y-3113489D01*
X-1089029Y-3599670D01*
X-774248Y-3810000D01*
X-1089029Y-4020330D01*
X-1413885Y-4506511D01*
X-1527959Y-5080000D01*
X-1413885Y-5653489D01*
X-1089029Y-6139670D01*
X-774248Y-6350000D01*
X-1089029Y-6560330D01*
X-1413885Y-7046511D01*
X-1527959Y-7620000D01*
X-1413885Y-8193489D01*
X-1089029Y-8679670D01*
X-765772Y-8895664D01*
X-888490Y-8953179D01*
X-1282688Y-9385053D01*
X-1454958Y-9800974D01*
X-1333817Y-10033000D01*
X-127000Y-10033000D01*
X-127000Y-10013000D01*
X127000Y-10013000D01*
X127000Y-10033000D01*
X2413000Y-10033000D01*
X2413000Y-10013000D01*
X2667000Y-10013000D01*
X2667000Y-10033000D01*
X3873817Y-10033000D01*
X3994958Y-9800974D01*
X3822688Y-9385053D01*
X3428490Y-8953179D01*
X3305772Y-8895664D01*
X3629029Y-8679670D01*
X3953885Y-8193489D01*
X4067959Y-7620000D01*
X3953885Y-7046511D01*
X3629029Y-6560330D01*
X3314248Y-6350000D01*
X3629029Y-6139670D01*
X3953885Y-5653489D01*
X4067959Y-5080000D01*
X3953885Y-4506511D01*
X3629029Y-4020330D01*
X3314248Y-3810000D01*
X3629029Y-3599670D01*
X3953885Y-3113489D01*
X4067959Y-2540000D01*
X3953885Y-1966511D01*
X3629029Y-1480330D01*
X3314248Y-1270000D01*
X3629029Y-1059670D01*
X3795793Y-810090D01*
X12711400Y-810090D01*
X12711400Y-1514250D01*
X12870150Y-1673000D01*
X14083000Y-1673000D01*
X14083000Y-460150D01*
X14337000Y-460150D01*
X14337000Y-1673000D01*
X16623000Y-1673000D01*
X16623000Y-465531D01*
X16877000Y-465531D01*
X16877000Y-1673000D01*
X18083817Y-1673000D01*
X18204958Y-1440974D01*
X18032688Y-1025053D01*
X17638490Y-593179D01*
X17109027Y-345032D01*
X16877000Y-465531D01*
X16623000Y-465531D01*
X16390973Y-345032D01*
X15861510Y-593179D01*
X15694529Y-776119D01*
X15611927Y-576701D01*
X15433298Y-398073D01*
X15199909Y-301400D01*
X14495750Y-301400D01*
X14337000Y-460150D01*
X14083000Y-460150D01*
X13924250Y-301400D01*
X13220091Y-301400D01*
X12986702Y-398073D01*
X12808073Y-576701D01*
X12711400Y-810090D01*
X3795793Y-810090D01*
X3953885Y-573489D01*
X4067959Y0D01*
X3953885Y573489D01*
X3629029Y1059670D01*
X3142848Y1384526D01*
X2569359Y1498600D01*
X2510641Y1498600D01*
X1937152Y1384526D01*
X1469568Y1072096D01*
X1461757Y1111365D01*
X1321409Y1321409D01*
X1111365Y1461757D01*
X863600Y1511040D01*
X-863600Y1511040D01*
X-1111365Y1461757D01*
X-1321409Y1321409D01*
X-1461757Y1111365D01*
X-1511040Y863600D01*
X-1511040Y-863600D01*
X-1461757Y-1111365D01*
X-1321409Y-1321409D01*
X-1111365Y-1461757D01*
X-1072733Y-1469441D01*
X-1089029Y-1480330D01*
X-1413885Y-1966511D01*
X-1527959Y-2540000D01*
X-3290000Y-2540000D01*
X-3290000Y3040000D01*
X20290000Y3040000D01*
X20290000Y-38540000D01*
X20290000Y-38540000D01*
G37*
X20290000Y-38540000D02*
X-3290000Y-38540000D01*
X-3290000Y-35600000D01*
X-1527959Y-35600000D01*
X-1413885Y-36173489D01*
X-1089029Y-36659670D01*
X-602848Y-36984526D01*
X-29359Y-37098600D01*
X29359Y-37098600D01*
X602848Y-36984526D01*
X1089029Y-36659670D01*
X1270000Y-36388828D01*
X1450971Y-36659670D01*
X1937152Y-36984526D01*
X2510641Y-37098600D01*
X2569359Y-37098600D01*
X3142848Y-36984526D01*
X3629029Y-36659670D01*
X3953885Y-36173489D01*
X4067959Y-35600000D01*
X3953885Y-35026511D01*
X3629029Y-34540330D01*
X3305772Y-34324336D01*
X3428490Y-34266821D01*
X3822688Y-33834947D01*
X3994958Y-33419026D01*
X3873817Y-33187000D01*
X2667000Y-33187000D01*
X2667000Y-33207000D01*
X2413000Y-33207000D01*
X2413000Y-33187000D01*
X127000Y-33187000D01*
X127000Y-33207000D01*
X-127000Y-33207000D01*
X-127000Y-33187000D01*
X-1333817Y-33187000D01*
X-1454958Y-33419026D01*
X-1282688Y-33834947D01*
X-888490Y-34266821D01*
X-765772Y-34324336D01*
X-1089029Y-34540330D01*
X-1413885Y-35026511D01*
X-1527959Y-35600000D01*
X-3290000Y-35600000D01*
X-3290000Y-25013076D01*
X-2996788Y-25134828D01*
X-2604931Y-25135170D01*
X-2242771Y-24985529D01*
X-2162102Y-24905000D01*
X-1421541Y-24905000D01*
X-1527959Y-25440000D01*
X-1413885Y-26013489D01*
X-1089029Y-26499670D01*
X-774248Y-26710000D01*
X-1089029Y-26920330D01*
X-1413885Y-27406511D01*
X-1527959Y-27980000D01*
X-1413885Y-28553489D01*
X-1089029Y-29039670D01*
X-774248Y-29250000D01*
X-1089029Y-29460330D01*
X-1413885Y-29946511D01*
X-1527959Y-30520000D01*
X-1413885Y-31093489D01*
X-1089029Y-31579670D01*
X-765772Y-31795664D01*
X-888490Y-31853179D01*
X-1282688Y-32285053D01*
X-1454958Y-32700974D01*
X-1333817Y-32933000D01*
X-127000Y-32933000D01*
X-127000Y-32913000D01*
X127000Y-32913000D01*
X127000Y-32933000D01*
X2413000Y-32933000D01*
X2413000Y-32913000D01*
X2667000Y-32913000D01*
X2667000Y-32933000D01*
X3873817Y-32933000D01*
X3994958Y-32700974D01*
X3822688Y-32285053D01*
X3428490Y-31853179D01*
X3305772Y-31795664D01*
X3629029Y-31579670D01*
X3953885Y-31093489D01*
X4067959Y-30520000D01*
X3953885Y-29946511D01*
X3629029Y-29460330D01*
X3314248Y-29250000D01*
X3629029Y-29039670D01*
X3953885Y-28553489D01*
X4067959Y-27980000D01*
X3953885Y-27406511D01*
X3843262Y-27240952D01*
X3853866Y-27233866D01*
X4032660Y-27055072D01*
X4145069Y-27055170D01*
X4507229Y-26905529D01*
X4784555Y-26628686D01*
X4934828Y-26266788D01*
X4935170Y-25874931D01*
X4785529Y-25512771D01*
X4508686Y-25235445D01*
X4146788Y-25085172D01*
X3997353Y-25085042D01*
X3995002Y-25073219D01*
X4207229Y-24985529D01*
X4484555Y-24708686D01*
X4634828Y-24346788D01*
X4635170Y-23954931D01*
X4485529Y-23592771D01*
X4208686Y-23315445D01*
X4002363Y-23229772D01*
X4067959Y-22900000D01*
X3953885Y-22326511D01*
X3629029Y-21840330D01*
X3142848Y-21515474D01*
X2569359Y-21401400D01*
X2510641Y-21401400D01*
X1937152Y-21515474D01*
X1469568Y-21827904D01*
X1461757Y-21788635D01*
X1321409Y-21578591D01*
X1111365Y-21438243D01*
X863600Y-21388960D01*
X-863600Y-21388960D01*
X-1111365Y-21438243D01*
X-1321409Y-21578591D01*
X-1461757Y-21788635D01*
X-1511040Y-22036400D01*
X-1511040Y-23395000D01*
X-2161898Y-23395000D01*
X-2241314Y-23315445D01*
X-2603212Y-23165172D01*
X-2995069Y-23164830D01*
X-3290000Y-23286693D01*
X-3290000Y-20745069D01*
X4014830Y-20745069D01*
X4164471Y-21107229D01*
X4441314Y-21384555D01*
X4803212Y-21534828D01*
X5195069Y-21535170D01*
X5557229Y-21385529D01*
X5834555Y-21108686D01*
X5984828Y-20746788D01*
X5985170Y-20354931D01*
X5835529Y-19992771D01*
X5558686Y-19715445D01*
X5196788Y-19565172D01*
X4804931Y-19564830D01*
X4442771Y-19714471D01*
X4165445Y-19991314D01*
X4015172Y-20353212D01*
X4014830Y-20745069D01*
X-3290000Y-20745069D01*
X-3290000Y-17395069D01*
X7464830Y-17395069D01*
X7614471Y-17757229D01*
X7891314Y-18034555D01*
X8216232Y-18169473D01*
X8314471Y-18407229D01*
X8591314Y-18684555D01*
X8953212Y-18834828D01*
X9345069Y-18835170D01*
X9707229Y-18685529D01*
X9984555Y-18408686D01*
X10134828Y-18046788D01*
X10135170Y-17654931D01*
X9985529Y-17292771D01*
X9708686Y-17015445D01*
X9383768Y-16880527D01*
X9285529Y-16642771D01*
X9008686Y-16365445D01*
X8646788Y-16215172D01*
X8254931Y-16214830D01*
X7892771Y-16364471D01*
X7615445Y-16641314D01*
X7465172Y-17003212D01*
X7464830Y-17395069D01*
X-3290000Y-17395069D01*
X-3290000Y-12700000D01*
X-1527959Y-12700000D01*
X-1413885Y-13273489D01*
X-1089029Y-13759670D01*
X-602848Y-14084526D01*
X-29359Y-14198600D01*
X29359Y-14198600D01*
X602848Y-14084526D01*
X1089029Y-13759670D01*
X1270000Y-13488828D01*
X1450971Y-13759670D01*
X1937152Y-14084526D01*
X2510641Y-14198600D01*
X2569359Y-14198600D01*
X3142848Y-14084526D01*
X3276729Y-13995069D01*
X3914830Y-13995069D01*
X4064471Y-14357229D01*
X4145000Y-14437898D01*
X4145000Y-15111898D01*
X4065445Y-15191314D01*
X3915172Y-15553212D01*
X3914830Y-15945069D01*
X4064471Y-16307229D01*
X4341314Y-16584555D01*
X4703212Y-16734828D01*
X5095069Y-16735170D01*
X5457229Y-16585529D01*
X5734555Y-16308686D01*
X5844018Y-16045069D01*
X10114830Y-16045069D01*
X10264471Y-16407229D01*
X10541314Y-16684555D01*
X10903212Y-16834828D01*
X11295069Y-16835170D01*
X11657229Y-16685529D01*
X11737898Y-16605000D01*
X12768568Y-16605000D01*
X12682041Y-17040000D01*
X12796115Y-17613489D01*
X13120971Y-18099670D01*
X13435752Y-18310000D01*
X13120971Y-18520330D01*
X12796115Y-19006511D01*
X12682041Y-19580000D01*
X12796115Y-20153489D01*
X13120971Y-20639670D01*
X13435752Y-20850000D01*
X13120971Y-21060330D01*
X12796115Y-21546511D01*
X12682041Y-22120000D01*
X12796115Y-22693489D01*
X13120971Y-23179670D01*
X13435752Y-23390000D01*
X13120971Y-23600330D01*
X12796115Y-24086511D01*
X12682041Y-24660000D01*
X12796115Y-25233489D01*
X13120971Y-25719670D01*
X13607152Y-26044526D01*
X14180641Y-26158600D01*
X14239359Y-26158600D01*
X14812848Y-26044526D01*
X15299029Y-25719670D01*
X15479992Y-25448839D01*
X15861510Y-25866821D01*
X16390973Y-26114968D01*
X16623000Y-25994469D01*
X16623000Y-24787000D01*
X16877000Y-24787000D01*
X16877000Y-25994469D01*
X17109027Y-26114968D01*
X17638490Y-25866821D01*
X18032688Y-25434947D01*
X18204958Y-25019026D01*
X18083817Y-24787000D01*
X16877000Y-24787000D01*
X16623000Y-24787000D01*
X16603000Y-24787000D01*
X16603000Y-24533000D01*
X16623000Y-24533000D01*
X16623000Y-24513000D01*
X16877000Y-24513000D01*
X16877000Y-24533000D01*
X18083817Y-24533000D01*
X18204958Y-24300974D01*
X18032688Y-23885053D01*
X17638490Y-23453179D01*
X17515772Y-23395664D01*
X17839029Y-23179670D01*
X18163885Y-22693489D01*
X18277959Y-22120000D01*
X18163885Y-21546511D01*
X17839029Y-21060330D01*
X17524248Y-20850000D01*
X17839029Y-20639670D01*
X18163885Y-20153489D01*
X18277959Y-19580000D01*
X18163885Y-19006511D01*
X17839029Y-18520330D01*
X17524248Y-18310000D01*
X17839029Y-18099670D01*
X18163885Y-17613489D01*
X18277959Y-17040000D01*
X18208040Y-16688492D01*
X18457229Y-16585529D01*
X18734555Y-16308686D01*
X18884828Y-15946788D01*
X18885170Y-15554931D01*
X18735529Y-15192771D01*
X18458686Y-14915445D01*
X18215415Y-14814430D01*
X18277959Y-14500000D01*
X18163885Y-13926511D01*
X17839029Y-13440330D01*
X17524248Y-13230000D01*
X17839029Y-13019670D01*
X18163885Y-12533489D01*
X18277959Y-11960000D01*
X18163885Y-11386511D01*
X17839029Y-10900330D01*
X17524248Y-10690000D01*
X17839029Y-10479670D01*
X18163885Y-9993489D01*
X18277959Y-9420000D01*
X18163885Y-8846511D01*
X17839029Y-8360330D01*
X17524248Y-8150000D01*
X17839029Y-7939670D01*
X18163885Y-7453489D01*
X18277959Y-6880000D01*
X18163885Y-6306511D01*
X17839029Y-5820330D01*
X17524248Y-5610000D01*
X17839029Y-5399670D01*
X18163885Y-4913489D01*
X18277959Y-4340000D01*
X18163885Y-3766511D01*
X17839029Y-3280330D01*
X17515772Y-3064336D01*
X17638490Y-3006821D01*
X18032688Y-2574947D01*
X18204958Y-2159026D01*
X18083817Y-1927000D01*
X16877000Y-1927000D01*
X16877000Y-1947000D01*
X16623000Y-1947000D01*
X16623000Y-1927000D01*
X14337000Y-1927000D01*
X14337000Y-1947000D01*
X14083000Y-1947000D01*
X14083000Y-1927000D01*
X12870150Y-1927000D01*
X12711400Y-2085750D01*
X12711400Y-2789910D01*
X12808073Y-3023299D01*
X12986702Y-3201927D01*
X13142023Y-3266263D01*
X13120971Y-3280330D01*
X12796115Y-3766511D01*
X12682041Y-4340000D01*
X12796115Y-4913489D01*
X13120971Y-5399670D01*
X13435752Y-5610000D01*
X13120971Y-5820330D01*
X12796115Y-6306511D01*
X12682041Y-6880000D01*
X12796115Y-7453489D01*
X13120971Y-7939670D01*
X13435752Y-8150000D01*
X13120971Y-8360330D01*
X12796115Y-8846511D01*
X12682041Y-9420000D01*
X12796115Y-9993489D01*
X13120971Y-10479670D01*
X13435752Y-10690000D01*
X13120971Y-10900330D01*
X12796115Y-11386511D01*
X12682041Y-11960000D01*
X12796115Y-12533489D01*
X13120971Y-13019670D01*
X13435752Y-13230000D01*
X13120971Y-13440330D01*
X12796115Y-13926511D01*
X12682041Y-14500000D01*
X12796115Y-15073489D01*
X12810488Y-15095000D01*
X11738102Y-15095000D01*
X11658686Y-15015445D01*
X11296788Y-14865172D01*
X10904931Y-14864830D01*
X10542771Y-15014471D01*
X10265445Y-15291314D01*
X10115172Y-15653212D01*
X10114830Y-16045069D01*
X5844018Y-16045069D01*
X5884828Y-15946788D01*
X5885170Y-15554931D01*
X5735529Y-15192771D01*
X5655000Y-15112102D01*
X5655000Y-14438102D01*
X5734555Y-14358686D01*
X5884828Y-13996788D01*
X5885170Y-13604931D01*
X5735529Y-13242771D01*
X5458686Y-12965445D01*
X5096788Y-12815172D01*
X4704931Y-12814830D01*
X4342771Y-12964471D01*
X4065445Y-13241314D01*
X3915172Y-13603212D01*
X3914830Y-13995069D01*
X3276729Y-13995069D01*
X3629029Y-13759670D01*
X3953885Y-13273489D01*
X4067959Y-12700000D01*
X3953885Y-12126511D01*
X3629029Y-11640330D01*
X3305772Y-11424336D01*
X3428490Y-11366821D01*
X3822688Y-10934947D01*
X3994958Y-10519026D01*
X3873817Y-10287000D01*
X2667000Y-10287000D01*
X2667000Y-10307000D01*
X2413000Y-10307000D01*
X2413000Y-10287000D01*
X127000Y-10287000D01*
X127000Y-10307000D01*
X-127000Y-10307000D01*
X-127000Y-10287000D01*
X-1333817Y-10287000D01*
X-1454958Y-10519026D01*
X-1282688Y-10934947D01*
X-888490Y-11366821D01*
X-765772Y-11424336D01*
X-1089029Y-11640330D01*
X-1413885Y-12126511D01*
X-1527959Y-12700000D01*
X-3290000Y-12700000D01*
X-3290000Y-2540000D01*
X-1527959Y-2540000D01*
X-1413885Y-3113489D01*
X-1089029Y-3599670D01*
X-774248Y-3810000D01*
X-1089029Y-4020330D01*
X-1413885Y-4506511D01*
X-1527959Y-5080000D01*
X-1413885Y-5653489D01*
X-1089029Y-6139670D01*
X-774248Y-6350000D01*
X-1089029Y-6560330D01*
X-1413885Y-7046511D01*
X-1527959Y-7620000D01*
X-1413885Y-8193489D01*
X-1089029Y-8679670D01*
X-765772Y-8895664D01*
X-888490Y-8953179D01*
X-1282688Y-9385053D01*
X-1454958Y-9800974D01*
X-1333817Y-10033000D01*
X-127000Y-10033000D01*
X-127000Y-10013000D01*
X127000Y-10013000D01*
X127000Y-10033000D01*
X2413000Y-10033000D01*
X2413000Y-10013000D01*
X2667000Y-10013000D01*
X2667000Y-10033000D01*
X3873817Y-10033000D01*
X3994958Y-9800974D01*
X3822688Y-9385053D01*
X3428490Y-8953179D01*
X3305772Y-8895664D01*
X3629029Y-8679670D01*
X3953885Y-8193489D01*
X4067959Y-7620000D01*
X3953885Y-7046511D01*
X3629029Y-6560330D01*
X3314248Y-6350000D01*
X3629029Y-6139670D01*
X3953885Y-5653489D01*
X4067959Y-5080000D01*
X3953885Y-4506511D01*
X3629029Y-4020330D01*
X3314248Y-3810000D01*
X3629029Y-3599670D01*
X3953885Y-3113489D01*
X4067959Y-2540000D01*
X3953885Y-1966511D01*
X3629029Y-1480330D01*
X3314248Y-1270000D01*
X3629029Y-1059670D01*
X3795793Y-810090D01*
X12711400Y-810090D01*
X12711400Y-1514250D01*
X12870150Y-1673000D01*
X14083000Y-1673000D01*
X14083000Y-460150D01*
X14337000Y-460150D01*
X14337000Y-1673000D01*
X16623000Y-1673000D01*
X16623000Y-465531D01*
X16877000Y-465531D01*
X16877000Y-1673000D01*
X18083817Y-1673000D01*
X18204958Y-1440974D01*
X18032688Y-1025053D01*
X17638490Y-593179D01*
X17109027Y-345032D01*
X16877000Y-465531D01*
X16623000Y-465531D01*
X16390973Y-345032D01*
X15861510Y-593179D01*
X15694529Y-776119D01*
X15611927Y-576701D01*
X15433298Y-398073D01*
X15199909Y-301400D01*
X14495750Y-301400D01*
X14337000Y-460150D01*
X14083000Y-460150D01*
X13924250Y-301400D01*
X13220091Y-301400D01*
X12986702Y-398073D01*
X12808073Y-576701D01*
X12711400Y-810090D01*
X3795793Y-810090D01*
X3953885Y-573489D01*
X4067959Y0D01*
X3953885Y573489D01*
X3629029Y1059670D01*
X3142848Y1384526D01*
X2569359Y1498600D01*
X2510641Y1498600D01*
X1937152Y1384526D01*
X1469568Y1072096D01*
X1461757Y1111365D01*
X1321409Y1321409D01*
X1111365Y1461757D01*
X863600Y1511040D01*
X-863600Y1511040D01*
X-1111365Y1461757D01*
X-1321409Y1321409D01*
X-1461757Y1111365D01*
X-1511040Y863600D01*
X-1511040Y-863600D01*
X-1461757Y-1111365D01*
X-1321409Y-1321409D01*
X-1111365Y-1461757D01*
X-1072733Y-1469441D01*
X-1089029Y-1480330D01*
X-1413885Y-1966511D01*
X-1527959Y-2540000D01*
X-3290000Y-2540000D01*
X-3290000Y3040000D01*
X20290000Y3040000D01*
X20290000Y-38540000D01*
%TD*%
M02*
