M48
;DRILL file {KiCad no-vcs-found-a6f8405~61~ubuntu14.04.1} date Mon Nov  6 16:29:46 2017
;FORMAT={-:-/ absolute / inch / decimal}
FMAT,2
INCH,TZ
T1C0.013
T2C0.040
%
G90
G05
M72
T1
X-0.1102Y-0.9508
X0.1437Y-0.9508
X0.1555Y-1.0264
X0.1575Y-0.75
X0.1929Y-0.5433
X0.1929Y-0.6201
X0.1969Y-0.8091
X0.2283Y-0.8346
X0.3327Y-0.6772
X0.3602Y-0.7028
X0.437Y-0.624
X0.7047Y-0.6201
T2
X0.Y-0.9016
X0.Y-1.0016
X0.Y-1.1016
X0.Y-1.2016
X0.Y-1.3016
X0.Y-1.4016
X0.1Y-0.9016
X0.1Y-1.0016
X0.1Y-1.1016
X0.1Y-1.2016
X0.1Y-1.3016
X0.1Y-1.4016
X0.Y0.
X0.Y-0.1
X0.Y-0.2
X0.Y-0.3
X0.Y-0.4
X0.Y-0.5
X0.1Y0.
X0.1Y-0.1
X0.1Y-0.2
X0.1Y-0.3
X0.1Y-0.4
X0.1Y-0.5
X0.5594Y-0.0709
X0.5594Y-0.1709
X0.5594Y-0.2709
X0.5594Y-0.3709
X0.5594Y-0.4709
X0.5594Y-0.5709
X0.5594Y-0.6709
X0.5594Y-0.7709
X0.5594Y-0.8709
X0.5594Y-0.9709
X0.6594Y-0.0709
X0.6594Y-0.1709
X0.6594Y-0.2709
X0.6594Y-0.3709
X0.6594Y-0.4709
X0.6594Y-0.5709
X0.6594Y-0.6709
X0.6594Y-0.7709
X0.6594Y-0.8709
X0.6594Y-0.9709
T0
M30
