%TF.GenerationSoftware,KiCad,Pcbnew,no-vcs-found-a6f8405~61~ubuntu14.04.1*%
%TF.CreationDate,2017-11-06T16:29:44-05:00*%
%TF.ProjectId,OV7670_breakout,4F56373637305F627265616B6F75742E,rev?*%
%TF.SameCoordinates,Original*%
%TF.FileFunction,Legend,Top*%
%TF.FilePolarity,Positive*%
%FSLAX46Y46*%
G04 Gerber Fmt 4.6, Leading zero omitted, Abs format (unit mm)*
G04 Created by KiCad (PCBNEW no-vcs-found-a6f8405~61~ubuntu14.04.1) date Mon Nov  6 16:29:44 2017*
%MOMM*%
%LPD*%
G01*
G04 APERTURE LIST*
%ADD10C,0.200000*%
%ADD11C,0.150000*%
%ADD12C,0.120000*%
G04 APERTURE END LIST*
D10*
X9147619Y1730952D02*
X10147619Y1730952D01*
X10147619Y1492857D01*
X10100000Y1350000D01*
X10004761Y1254761D01*
X9909523Y1207142D01*
X9719047Y1159523D01*
X9576190Y1159523D01*
X9385714Y1207142D01*
X9290476Y1254761D01*
X9195238Y1350000D01*
X9147619Y1492857D01*
X9147619Y1730952D01*
X10147619Y540476D02*
X10147619Y350000D01*
X10100000Y254761D01*
X10004761Y159523D01*
X9814285Y111904D01*
X9480952Y111904D01*
X9290476Y159523D01*
X9195238Y254761D01*
X9147619Y350000D01*
X9147619Y540476D01*
X9195238Y635714D01*
X9290476Y730952D01*
X9480952Y778571D01*
X9814285Y778571D01*
X10004761Y730952D01*
X10100000Y635714D01*
X10147619Y540476D01*
X9147619Y-1078571D02*
X10147619Y-1078571D01*
X9147619Y-1649999D01*
X10147619Y-1649999D01*
X10147619Y-2316666D02*
X10147619Y-2507142D01*
X10100000Y-2602380D01*
X10004761Y-2697619D01*
X9814285Y-2745238D01*
X9480952Y-2745238D01*
X9290476Y-2697619D01*
X9195238Y-2602380D01*
X9147619Y-2507142D01*
X9147619Y-2316666D01*
X9195238Y-2221428D01*
X9290476Y-2126190D01*
X9480952Y-2078571D01*
X9814285Y-2078571D01*
X10004761Y-2126190D01*
X10100000Y-2221428D01*
X10147619Y-2316666D01*
X10147619Y-3030952D02*
X10147619Y-3602380D01*
X9147619Y-3316666D02*
X10147619Y-3316666D01*
X9147619Y-4697619D02*
X10147619Y-4697619D01*
X10147619Y-5078571D01*
X10100000Y-5173809D01*
X10052380Y-5221428D01*
X9957142Y-5269047D01*
X9814285Y-5269047D01*
X9719047Y-5221428D01*
X9671428Y-5173809D01*
X9623809Y-5078571D01*
X9623809Y-4697619D01*
X9147619Y-6173809D02*
X9147619Y-5697619D01*
X10147619Y-5697619D01*
X10147619Y-6507142D02*
X9338095Y-6507142D01*
X9242857Y-6554761D01*
X9195238Y-6602380D01*
X9147619Y-6697619D01*
X9147619Y-6888095D01*
X9195238Y-6983333D01*
X9242857Y-7030952D01*
X9338095Y-7078571D01*
X10147619Y-7078571D01*
X10100000Y-8078571D02*
X10147619Y-7983333D01*
X10147619Y-7840476D01*
X10100000Y-7697619D01*
X10004761Y-7602380D01*
X9909523Y-7554761D01*
X9719047Y-7507142D01*
X9576190Y-7507142D01*
X9385714Y-7554761D01*
X9290476Y-7602380D01*
X9195238Y-7697619D01*
X9147619Y-7840476D01*
X9147619Y-7935714D01*
X9195238Y-8078571D01*
X9242857Y-8126190D01*
X9576190Y-8126190D01*
X9576190Y-7935714D01*
X9147619Y-9316666D02*
X10147619Y-9316666D01*
X9147619Y-9792857D02*
X10147619Y-9792857D01*
X9147619Y-10364285D01*
X10147619Y-10364285D01*
X10147619Y-11507142D02*
X9147619Y-11745238D01*
X9861904Y-11935714D01*
X9147619Y-12126190D01*
X10147619Y-12364285D01*
X9147619Y-12745238D02*
X10147619Y-12745238D01*
X9671428Y-12745238D02*
X9671428Y-13316666D01*
X9147619Y-13316666D02*
X10147619Y-13316666D01*
X9671428Y-13792857D02*
X9671428Y-14126190D01*
X9147619Y-14269047D02*
X9147619Y-13792857D01*
X10147619Y-13792857D01*
X10147619Y-14269047D01*
X9147619Y-14697619D02*
X10147619Y-14697619D01*
X9147619Y-15269047D01*
X10147619Y-15269047D01*
X7971428Y-888095D02*
X7971428Y-554761D01*
X7447619Y-554761D02*
X8447619Y-554761D01*
X8447619Y-1030952D01*
X7447619Y-1411904D02*
X8447619Y-1411904D01*
X8447619Y-1792857D01*
X8400000Y-1888095D01*
X8352380Y-1935714D01*
X8257142Y-1983333D01*
X8114285Y-1983333D01*
X8019047Y-1935714D01*
X7971428Y-1888095D01*
X7923809Y-1792857D01*
X7923809Y-1411904D01*
X8400000Y-2935714D02*
X8447619Y-2840476D01*
X8447619Y-2697619D01*
X8400000Y-2554761D01*
X8304761Y-2459523D01*
X8209523Y-2411904D01*
X8019047Y-2364285D01*
X7876190Y-2364285D01*
X7685714Y-2411904D01*
X7590476Y-2459523D01*
X7495238Y-2554761D01*
X7447619Y-2697619D01*
X7447619Y-2792857D01*
X7495238Y-2935714D01*
X7542857Y-2983333D01*
X7876190Y-2983333D01*
X7876190Y-2792857D01*
X7733333Y-3364285D02*
X7733333Y-3840476D01*
X7447619Y-3269047D02*
X8447619Y-3602380D01*
X7447619Y-3935714D01*
X7447619Y-5030952D02*
X8447619Y-5030952D01*
X7495238Y-5459523D02*
X7447619Y-5602380D01*
X7447619Y-5840476D01*
X7495238Y-5935714D01*
X7542857Y-5983333D01*
X7638095Y-6030952D01*
X7733333Y-6030952D01*
X7828571Y-5983333D01*
X7876190Y-5935714D01*
X7923809Y-5840476D01*
X7971428Y-5649999D01*
X8019047Y-5554761D01*
X8066666Y-5507142D01*
X8161904Y-5459523D01*
X8257142Y-5459523D01*
X8352380Y-5507142D01*
X8400000Y-5554761D01*
X8447619Y-5649999D01*
X8447619Y-5888095D01*
X8400000Y-6030952D01*
X7447619Y-7221428D02*
X8447619Y-7221428D01*
X8447619Y-7602380D01*
X8400000Y-7697619D01*
X8352380Y-7745238D01*
X8257142Y-7792857D01*
X8114285Y-7792857D01*
X8019047Y-7745238D01*
X7971428Y-7697619D01*
X7923809Y-7602380D01*
X7923809Y-7221428D01*
X8447619Y-8411904D02*
X8447619Y-8602380D01*
X8400000Y-8697619D01*
X8304761Y-8792857D01*
X8114285Y-8840476D01*
X7780952Y-8840476D01*
X7590476Y-8792857D01*
X7495238Y-8697619D01*
X7447619Y-8602380D01*
X7447619Y-8411904D01*
X7495238Y-8316666D01*
X7590476Y-8221428D01*
X7780952Y-8173809D01*
X8114285Y-8173809D01*
X8304761Y-8221428D01*
X8400000Y-8316666D01*
X8447619Y-8411904D01*
X8447619Y-9173809D02*
X7447619Y-9411904D01*
X8161904Y-9602380D01*
X7447619Y-9792857D01*
X8447619Y-10030952D01*
X7971428Y-10411904D02*
X7971428Y-10745238D01*
X7447619Y-10888095D02*
X7447619Y-10411904D01*
X8447619Y-10411904D01*
X8447619Y-10888095D01*
X7447619Y-11888095D02*
X7923809Y-11554761D01*
X7447619Y-11316666D02*
X8447619Y-11316666D01*
X8447619Y-11697619D01*
X8400000Y-11792857D01*
X8352380Y-11840476D01*
X8257142Y-11888095D01*
X8114285Y-11888095D01*
X8019047Y-11840476D01*
X7971428Y-11792857D01*
X7923809Y-11697619D01*
X7923809Y-11316666D01*
X7971428Y-12316666D02*
X7971428Y-12649999D01*
X7447619Y-12792857D02*
X7447619Y-12316666D01*
X8447619Y-12316666D01*
X8447619Y-12792857D01*
X7447619Y-13221428D02*
X8447619Y-13221428D01*
X8447619Y-13459523D01*
X8399999Y-13602380D01*
X8304761Y-13697619D01*
X8209523Y-13745238D01*
X8019047Y-13792857D01*
X7876190Y-13792857D01*
X7685714Y-13745238D01*
X7590476Y-13697619D01*
X7495238Y-13602380D01*
X7447619Y-13459523D01*
X7447619Y-13221428D01*
X5933333Y-38257142D02*
X5885714Y-38304761D01*
X5742857Y-38352380D01*
X5647619Y-38352380D01*
X5504761Y-38304761D01*
X5409523Y-38209523D01*
X5361904Y-38114285D01*
X5314285Y-37923809D01*
X5314285Y-37780952D01*
X5361904Y-37590476D01*
X5409523Y-37495238D01*
X5504761Y-37400000D01*
X5647619Y-37352380D01*
X5742857Y-37352380D01*
X5885714Y-37400000D01*
X5933333Y-37447619D01*
X6790476Y-38352380D02*
X6790476Y-37828571D01*
X6742857Y-37733333D01*
X6647619Y-37685714D01*
X6457142Y-37685714D01*
X6361904Y-37733333D01*
X6790476Y-38304761D02*
X6695238Y-38352380D01*
X6457142Y-38352380D01*
X6361904Y-38304761D01*
X6314285Y-38209523D01*
X6314285Y-38114285D01*
X6361904Y-38019047D01*
X6457142Y-37971428D01*
X6695238Y-37971428D01*
X6790476Y-37923809D01*
X7266666Y-38352380D02*
X7266666Y-37685714D01*
X7266666Y-37780952D02*
X7314285Y-37733333D01*
X7409523Y-37685714D01*
X7552380Y-37685714D01*
X7647619Y-37733333D01*
X7695238Y-37828571D01*
X7695238Y-38352380D01*
X7695238Y-37828571D02*
X7742857Y-37733333D01*
X7838095Y-37685714D01*
X7980952Y-37685714D01*
X8076190Y-37733333D01*
X8123809Y-37828571D01*
X8123809Y-38352380D01*
X8980952Y-38304761D02*
X8885714Y-38352380D01*
X8695238Y-38352380D01*
X8599999Y-38304761D01*
X8552380Y-38209523D01*
X8552380Y-37828571D01*
X8599999Y-37733333D01*
X8695238Y-37685714D01*
X8885714Y-37685714D01*
X8980952Y-37733333D01*
X9028571Y-37828571D01*
X9028571Y-37923809D01*
X8552380Y-38019047D01*
X9457142Y-38352380D02*
X9457142Y-37685714D01*
X9457142Y-37876190D02*
X9504761Y-37780952D01*
X9552380Y-37733333D01*
X9647619Y-37685714D01*
X9742857Y-37685714D01*
X10504761Y-38352380D02*
X10504761Y-37828571D01*
X10457142Y-37733333D01*
X10361904Y-37685714D01*
X10171428Y-37685714D01*
X10076190Y-37733333D01*
X10504761Y-38304761D02*
X10409523Y-38352380D01*
X10171428Y-38352380D01*
X10076190Y-38304761D01*
X10028571Y-38209523D01*
X10028571Y-38114285D01*
X10076190Y-38019047D01*
X10171428Y-37971428D01*
X10409523Y-37971428D01*
X10504761Y-37923809D01*
X12076190Y-37828571D02*
X12219047Y-37876190D01*
X12266666Y-37923809D01*
X12314285Y-38019047D01*
X12314285Y-38161904D01*
X12266666Y-38257142D01*
X12219047Y-38304761D01*
X12123809Y-38352380D01*
X11742857Y-38352380D01*
X11742857Y-37352380D01*
X12076190Y-37352380D01*
X12171428Y-37400000D01*
X12219047Y-37447619D01*
X12266666Y-37542857D01*
X12266666Y-37638095D01*
X12219047Y-37733333D01*
X12171428Y-37780952D01*
X12076190Y-37828571D01*
X11742857Y-37828571D01*
X12742857Y-38352380D02*
X12742857Y-37685714D01*
X12742857Y-37876190D02*
X12790476Y-37780952D01*
X12838095Y-37733333D01*
X12933333Y-37685714D01*
X13028571Y-37685714D01*
X13742857Y-38304761D02*
X13647619Y-38352380D01*
X13457142Y-38352380D01*
X13361904Y-38304761D01*
X13314285Y-38209523D01*
X13314285Y-37828571D01*
X13361904Y-37733333D01*
X13457142Y-37685714D01*
X13647619Y-37685714D01*
X13742857Y-37733333D01*
X13790476Y-37828571D01*
X13790476Y-37923809D01*
X13314285Y-38019047D01*
X14647619Y-38352380D02*
X14647619Y-37828571D01*
X14600000Y-37733333D01*
X14504761Y-37685714D01*
X14314285Y-37685714D01*
X14219047Y-37733333D01*
X14647619Y-38304761D02*
X14552380Y-38352380D01*
X14314285Y-38352380D01*
X14219047Y-38304761D01*
X14171428Y-38209523D01*
X14171428Y-38114285D01*
X14219047Y-38019047D01*
X14314285Y-37971428D01*
X14552380Y-37971428D01*
X14647619Y-37923809D01*
X15123809Y-38352380D02*
X15123809Y-37352380D01*
X15219047Y-37971428D02*
X15504761Y-38352380D01*
X15504761Y-37685714D02*
X15123809Y-38066666D01*
X16076190Y-38352380D02*
X15980952Y-38304761D01*
X15933333Y-38257142D01*
X15885714Y-38161904D01*
X15885714Y-37876190D01*
X15933333Y-37780952D01*
X15980952Y-37733333D01*
X16076190Y-37685714D01*
X16219047Y-37685714D01*
X16314285Y-37733333D01*
X16361904Y-37780952D01*
X16409523Y-37876190D01*
X16409523Y-38161904D01*
X16361904Y-38257142D01*
X16314285Y-38304761D01*
X16219047Y-38352380D01*
X16076190Y-38352380D01*
X17266666Y-37685714D02*
X17266666Y-38352380D01*
X16838095Y-37685714D02*
X16838095Y-38209523D01*
X16885714Y-38304761D01*
X16980952Y-38352380D01*
X17123809Y-38352380D01*
X17219047Y-38304761D01*
X17266666Y-38257142D01*
X17600000Y-37685714D02*
X17980952Y-37685714D01*
X17742857Y-37352380D02*
X17742857Y-38209523D01*
X17790476Y-38304761D01*
X17885714Y-38352380D01*
X17980952Y-38352380D01*
D11*
%TO.C,P101*%
X18020000Y-25930000D02*
X18020000Y-530000D01*
X12940000Y-3070000D02*
X12940000Y-25930000D01*
X18020000Y-25930000D02*
X12940000Y-25930000D01*
X18020000Y-530000D02*
X15480000Y-530000D01*
X14210000Y-250000D02*
X12660000Y-250000D01*
X15480000Y-530000D02*
X15480000Y-3070000D01*
X15480000Y-3070000D02*
X12940000Y-3070000D01*
X12660000Y-250000D02*
X12660000Y-1800000D01*
%TO.C,P102*%
X3810000Y-13970000D02*
X3810000Y1270000D01*
X-1270000Y-1270000D02*
X-1270000Y-13970000D01*
X3810000Y-13970000D02*
X-1270000Y-13970000D01*
X3810000Y1270000D02*
X1270000Y1270000D01*
X0Y1550000D02*
X-1550000Y1550000D01*
X1270000Y1270000D02*
X1270000Y-1270000D01*
X1270000Y-1270000D02*
X-1270000Y-1270000D01*
X-1550000Y1550000D02*
X-1550000Y0D01*
%TO.C,P103*%
X3810000Y-36870000D02*
X3810000Y-21630000D01*
X-1270000Y-24170000D02*
X-1270000Y-36870000D01*
X3810000Y-36870000D02*
X-1270000Y-36870000D01*
X3810000Y-21630000D02*
X1270000Y-21630000D01*
X0Y-21350000D02*
X-1550000Y-21350000D01*
X1270000Y-21630000D02*
X1270000Y-24170000D01*
X1270000Y-24170000D02*
X-1270000Y-24170000D01*
X-1550000Y-21350000D02*
X-1550000Y-22900000D01*
%TO.C,R101*%
X6950000Y-31125000D02*
X8150000Y-31125000D01*
X8150000Y-32875000D02*
X6950000Y-32875000D01*
%TO.C,R102*%
X6900000Y-33625000D02*
X8100000Y-33625000D01*
X8100000Y-35375000D02*
X6900000Y-35375000D01*
D12*
%TO.C,C101*%
X5152513Y-16695406D02*
X4445406Y-17402513D01*
X5647487Y-18604594D02*
X6354594Y-17897487D01*
%TO.C,R103*%
X6900000Y-28620000D02*
X8100000Y-28620000D01*
X8100000Y-30380000D02*
X6900000Y-30380000D01*
%TO.C,U101*%
X8002046Y-21274838D02*
X9734457Y-19542426D01*
X6997954Y-17725162D02*
X5725162Y-18997954D01*
%TD*%
M02*
