%TF.GenerationSoftware,KiCad,Pcbnew,no-vcs-found-a6f8405~61~ubuntu14.04.1*%
%TF.CreationDate,2017-11-06T16:29:44-05:00*%
%TF.ProjectId,OV7670_breakout,4F56373637305F627265616B6F75742E,rev?*%
%TF.SameCoordinates,Original*%
%TF.FileFunction,Legend,Bot*%
%TF.FilePolarity,Positive*%
%FSLAX46Y46*%
G04 Gerber Fmt 4.6, Leading zero omitted, Abs format (unit mm)*
G04 Created by KiCad (PCBNEW no-vcs-found-a6f8405~61~ubuntu14.04.1) date Mon Nov  6 16:29:44 2017*
%MOMM*%
%LPD*%
G01*
G04 APERTURE LIST*
%ADD10C,0.200000*%
G04 APERTURE END LIST*
D10*
X6657142Y-25964285D02*
X6704761Y-26011904D01*
X6752380Y-26154761D01*
X6752380Y-26250000D01*
X6704761Y-26392857D01*
X6609523Y-26488095D01*
X6514285Y-26535714D01*
X6323809Y-26583333D01*
X6180952Y-26583333D01*
X5990476Y-26535714D01*
X5895238Y-26488095D01*
X5799999Y-26392857D01*
X5752380Y-26250000D01*
X5752380Y-26154761D01*
X5799999Y-26011904D01*
X5847619Y-25964285D01*
X6752380Y-25107142D02*
X6228571Y-25107142D01*
X6133333Y-25154761D01*
X6085714Y-25250000D01*
X6085714Y-25440476D01*
X6133333Y-25535714D01*
X6704761Y-25107142D02*
X6752380Y-25202380D01*
X6752380Y-25440476D01*
X6704761Y-25535714D01*
X6609523Y-25583333D01*
X6514285Y-25583333D01*
X6419047Y-25535714D01*
X6371428Y-25440476D01*
X6371428Y-25202380D01*
X6323809Y-25107142D01*
X6752380Y-24630952D02*
X6085714Y-24630952D01*
X6180952Y-24630952D02*
X6133333Y-24583333D01*
X6085714Y-24488095D01*
X6085714Y-24345238D01*
X6133333Y-24250000D01*
X6228571Y-24202380D01*
X6752380Y-24202380D01*
X6228571Y-24202380D02*
X6133333Y-24154761D01*
X6085714Y-24059523D01*
X6085714Y-23916666D01*
X6133333Y-23821428D01*
X6228571Y-23773809D01*
X6752380Y-23773809D01*
X6704761Y-22916666D02*
X6752380Y-23011904D01*
X6752380Y-23202380D01*
X6704761Y-23297619D01*
X6609523Y-23345238D01*
X6228571Y-23345238D01*
X6133333Y-23297619D01*
X6085714Y-23202380D01*
X6085714Y-23011904D01*
X6133333Y-22916666D01*
X6228571Y-22869047D01*
X6323809Y-22869047D01*
X6419047Y-23345238D01*
X6752380Y-22440476D02*
X6085714Y-22440476D01*
X6276190Y-22440476D02*
X6180952Y-22392857D01*
X6133333Y-22345238D01*
X6085714Y-22250000D01*
X6085714Y-22154761D01*
X6752380Y-21392857D02*
X6228571Y-21392857D01*
X6133333Y-21440476D01*
X6085714Y-21535714D01*
X6085714Y-21726190D01*
X6133333Y-21821428D01*
X6704761Y-21392857D02*
X6752380Y-21488095D01*
X6752380Y-21726190D01*
X6704761Y-21821428D01*
X6609523Y-21869047D01*
X6514285Y-21869047D01*
X6419047Y-21821428D01*
X6371428Y-21726190D01*
X6371428Y-21488095D01*
X6323809Y-21392857D01*
X6228571Y-19821428D02*
X6276190Y-19678571D01*
X6323809Y-19630952D01*
X6419047Y-19583333D01*
X6561904Y-19583333D01*
X6657142Y-19630952D01*
X6704761Y-19678571D01*
X6752380Y-19773809D01*
X6752380Y-20154761D01*
X5752380Y-20154761D01*
X5752380Y-19821428D01*
X5800000Y-19726190D01*
X5847619Y-19678571D01*
X5942857Y-19630952D01*
X6038095Y-19630952D01*
X6133333Y-19678571D01*
X6180952Y-19726190D01*
X6228571Y-19821428D01*
X6228571Y-20154761D01*
X6752380Y-19154761D02*
X6085714Y-19154761D01*
X6276190Y-19154761D02*
X6180952Y-19107142D01*
X6133333Y-19059523D01*
X6085714Y-18964285D01*
X6085714Y-18869047D01*
X6704761Y-18154761D02*
X6752380Y-18250000D01*
X6752380Y-18440476D01*
X6704761Y-18535714D01*
X6609523Y-18583333D01*
X6228571Y-18583333D01*
X6133333Y-18535714D01*
X6085714Y-18440476D01*
X6085714Y-18250000D01*
X6133333Y-18154761D01*
X6228571Y-18107142D01*
X6323809Y-18107142D01*
X6419047Y-18583333D01*
X6752380Y-17250000D02*
X6228571Y-17250000D01*
X6133333Y-17297619D01*
X6085714Y-17392857D01*
X6085714Y-17583333D01*
X6133333Y-17678571D01*
X6704761Y-17250000D02*
X6752380Y-17345238D01*
X6752380Y-17583333D01*
X6704761Y-17678571D01*
X6609523Y-17726190D01*
X6514285Y-17726190D01*
X6419047Y-17678571D01*
X6371428Y-17583333D01*
X6371428Y-17345238D01*
X6323809Y-17250000D01*
X6752380Y-16773809D02*
X5752380Y-16773809D01*
X6371428Y-16678571D02*
X6752380Y-16392857D01*
X6085714Y-16392857D02*
X6466666Y-16773809D01*
X6752380Y-15821428D02*
X6704761Y-15916666D01*
X6657142Y-15964285D01*
X6561904Y-16011904D01*
X6276190Y-16011904D01*
X6180952Y-15964285D01*
X6133333Y-15916666D01*
X6085714Y-15821428D01*
X6085714Y-15678571D01*
X6133333Y-15583333D01*
X6180952Y-15535714D01*
X6276190Y-15488095D01*
X6561904Y-15488095D01*
X6657142Y-15535714D01*
X6704761Y-15583333D01*
X6752380Y-15678571D01*
X6752380Y-15821428D01*
X6085714Y-14630952D02*
X6752380Y-14630952D01*
X6085714Y-15059523D02*
X6609523Y-15059523D01*
X6704761Y-15011904D01*
X6752380Y-14916666D01*
X6752380Y-14773809D01*
X6704761Y-14678571D01*
X6657142Y-14630952D01*
X6085714Y-14297619D02*
X6085714Y-13916666D01*
X5752380Y-14154761D02*
X6609523Y-14154761D01*
X6704761Y-14107142D01*
X6752380Y-14011904D01*
X6752380Y-13916666D01*
X6228571Y-12488095D02*
X6276190Y-12345238D01*
X6323809Y-12297619D01*
X6419047Y-12250000D01*
X6561904Y-12250000D01*
X6657142Y-12297619D01*
X6704761Y-12345238D01*
X6752380Y-12440476D01*
X6752380Y-12821428D01*
X5752380Y-12821428D01*
X5752380Y-12488095D01*
X5800000Y-12392857D01*
X5847619Y-12345238D01*
X5942857Y-12297619D01*
X6038095Y-12297619D01*
X6133333Y-12345238D01*
X6180952Y-12392857D01*
X6228571Y-12488095D01*
X6228571Y-12821428D01*
X6752380Y-11678571D02*
X6704761Y-11773809D01*
X6657142Y-11821428D01*
X6561904Y-11869047D01*
X6276190Y-11869047D01*
X6180952Y-11821428D01*
X6133333Y-11773809D01*
X6085714Y-11678571D01*
X6085714Y-11535714D01*
X6133333Y-11440476D01*
X6180952Y-11392857D01*
X6276190Y-11345238D01*
X6561904Y-11345238D01*
X6657142Y-11392857D01*
X6704761Y-11440476D01*
X6752380Y-11535714D01*
X6752380Y-11678571D01*
X6752380Y-10488095D02*
X6228571Y-10488095D01*
X6133333Y-10535714D01*
X6085714Y-10630952D01*
X6085714Y-10821428D01*
X6133333Y-10916666D01*
X6704761Y-10488095D02*
X6752380Y-10583333D01*
X6752380Y-10821428D01*
X6704761Y-10916666D01*
X6609523Y-10964285D01*
X6514285Y-10964285D01*
X6419047Y-10916666D01*
X6371428Y-10821428D01*
X6371428Y-10583333D01*
X6323809Y-10488095D01*
X6752380Y-10011904D02*
X6085714Y-10011904D01*
X6276190Y-10011904D02*
X6180952Y-9964285D01*
X6133333Y-9916666D01*
X6085714Y-9821428D01*
X6085714Y-9726190D01*
X6752380Y-8964285D02*
X5752380Y-8964285D01*
X6704761Y-8964285D02*
X6752380Y-9059523D01*
X6752380Y-9250000D01*
X6704761Y-9345238D01*
X6657142Y-9392857D01*
X6561904Y-9440476D01*
X6276190Y-9440476D01*
X6180952Y-9392857D01*
X6133333Y-9345238D01*
X6085714Y-9250000D01*
X6085714Y-9059523D01*
X6133333Y-8964285D01*
X7785714Y-23654761D02*
X8452380Y-23464285D01*
X7976190Y-23273809D01*
X8452380Y-23083333D01*
X7785714Y-22892857D01*
X8452380Y-22511904D02*
X7452380Y-22511904D01*
X7833333Y-22511904D02*
X7785714Y-22416666D01*
X7785714Y-22226190D01*
X7833333Y-22130952D01*
X7880952Y-22083333D01*
X7976190Y-22035714D01*
X8261904Y-22035714D01*
X8357142Y-22083333D01*
X8404761Y-22130952D01*
X8452380Y-22226190D01*
X8452380Y-22416666D01*
X8404761Y-22511904D01*
X8452380Y-21607142D02*
X7785714Y-21607142D01*
X7976190Y-21607142D02*
X7880952Y-21559523D01*
X7833333Y-21511904D01*
X7785714Y-21416666D01*
X7785714Y-21321428D01*
X8452380Y-20559523D02*
X7928571Y-20559523D01*
X7833333Y-20607142D01*
X7785714Y-20702380D01*
X7785714Y-20892857D01*
X7833333Y-20988095D01*
X8404761Y-20559523D02*
X8452380Y-20654761D01*
X8452380Y-20892857D01*
X8404761Y-20988095D01*
X8309523Y-21035714D01*
X8214285Y-21035714D01*
X8119047Y-20988095D01*
X8071428Y-20892857D01*
X8071428Y-20654761D01*
X8023809Y-20559523D01*
X7785714Y-19654761D02*
X8452380Y-19654761D01*
X7785714Y-20083333D02*
X8309523Y-20083333D01*
X8404761Y-20035714D01*
X8452380Y-19940476D01*
X8452380Y-19797619D01*
X8404761Y-19702380D01*
X8357142Y-19654761D01*
X7785714Y-19178571D02*
X8452380Y-19178571D01*
X7880952Y-19178571D02*
X7833333Y-19130952D01*
X7785714Y-19035714D01*
X7785714Y-18892857D01*
X7833333Y-18797619D01*
X7928571Y-18750000D01*
X8452380Y-18750000D01*
X7976190Y-17654761D02*
X7928571Y-17702380D01*
X7880952Y-17797619D01*
X7880952Y-17892857D01*
X7928571Y-17988095D01*
X7976190Y-18035714D01*
X8071428Y-18083333D01*
X8166666Y-18083333D01*
X8261904Y-18035714D01*
X8309523Y-17988095D01*
X8357142Y-17892857D01*
X8357142Y-17797619D01*
X8309523Y-17702380D01*
X8261904Y-17654761D01*
X7880952Y-17654761D02*
X8261904Y-17654761D01*
X8309523Y-17607142D01*
X8309523Y-17559523D01*
X8261904Y-17464285D01*
X8166666Y-17416666D01*
X7928571Y-17416666D01*
X7785714Y-17511904D01*
X7690476Y-17654761D01*
X7642857Y-17845238D01*
X7690476Y-18035714D01*
X7785714Y-18178571D01*
X7928571Y-18273809D01*
X8119047Y-18321428D01*
X8309523Y-18273809D01*
X8452380Y-18178571D01*
X8547619Y-18035714D01*
X8595238Y-17845238D01*
X8547619Y-17654761D01*
X8452380Y-17511904D01*
X8452380Y-16988095D02*
X7785714Y-16988095D01*
X7880952Y-16988095D02*
X7833333Y-16940476D01*
X7785714Y-16845238D01*
X7785714Y-16702380D01*
X7833333Y-16607142D01*
X7928571Y-16559523D01*
X8452380Y-16559523D01*
X7928571Y-16559523D02*
X7833333Y-16511904D01*
X7785714Y-16416666D01*
X7785714Y-16273809D01*
X7833333Y-16178571D01*
X7928571Y-16130952D01*
X8452380Y-16130952D01*
X8452380Y-15654761D02*
X7785714Y-15654761D01*
X7452380Y-15654761D02*
X7500000Y-15702380D01*
X7547619Y-15654761D01*
X7500000Y-15607142D01*
X7452380Y-15654761D01*
X7547619Y-15654761D01*
X7785714Y-15321428D02*
X7785714Y-14940476D01*
X7452380Y-15178571D02*
X8309523Y-15178571D01*
X8404761Y-15130952D01*
X8452380Y-15035714D01*
X8452380Y-14940476D01*
X8357142Y-14607142D02*
X8404761Y-14559523D01*
X8452380Y-14607142D01*
X8404761Y-14654761D01*
X8357142Y-14607142D01*
X8452380Y-14607142D01*
X8404761Y-13750000D02*
X8452380Y-13845238D01*
X8452380Y-14035714D01*
X8404761Y-14130952D01*
X8309523Y-14178571D01*
X7928571Y-14178571D01*
X7833333Y-14130952D01*
X7785714Y-14035714D01*
X7785714Y-13845238D01*
X7833333Y-13750000D01*
X7928571Y-13702380D01*
X8023809Y-13702380D01*
X8119047Y-14178571D01*
X8452380Y-12845238D02*
X7452380Y-12845238D01*
X8404761Y-12845238D02*
X8452380Y-12940476D01*
X8452380Y-13130952D01*
X8404761Y-13226190D01*
X8357142Y-13273809D01*
X8261904Y-13321428D01*
X7976190Y-13321428D01*
X7880952Y-13273809D01*
X7833333Y-13226190D01*
X7785714Y-13130952D01*
X7785714Y-12940476D01*
X7833333Y-12845238D01*
X7785714Y-11940476D02*
X8452380Y-11940476D01*
X7785714Y-12369047D02*
X8309523Y-12369047D01*
X8404761Y-12321428D01*
X8452380Y-12226190D01*
X8452380Y-12083333D01*
X8404761Y-11988095D01*
X8357142Y-11940476D01*
X9485714Y-31297619D02*
X10295238Y-31297619D01*
X10390476Y-31345238D01*
X10438095Y-31392857D01*
X10485714Y-31488095D01*
X10485714Y-31630952D01*
X10438095Y-31726190D01*
X10104761Y-31297619D02*
X10152380Y-31392857D01*
X10152380Y-31583333D01*
X10104761Y-31678571D01*
X10057142Y-31726190D01*
X9961904Y-31773809D01*
X9676190Y-31773809D01*
X9580952Y-31726190D01*
X9533333Y-31678571D01*
X9485714Y-31583333D01*
X9485714Y-31392857D01*
X9533333Y-31297619D01*
X10152380Y-30821428D02*
X9485714Y-30821428D01*
X9152380Y-30821428D02*
X9200000Y-30869047D01*
X9247619Y-30821428D01*
X9200000Y-30773809D01*
X9152380Y-30821428D01*
X9247619Y-30821428D01*
X9485714Y-30488095D02*
X9485714Y-30107142D01*
X9152380Y-30345238D02*
X10009523Y-30345238D01*
X10104761Y-30297619D01*
X10152380Y-30202380D01*
X10152380Y-30107142D01*
X10152380Y-29773809D02*
X9152380Y-29773809D01*
X10152380Y-29345238D02*
X9628571Y-29345238D01*
X9533333Y-29392857D01*
X9485714Y-29488095D01*
X9485714Y-29630952D01*
X9533333Y-29726190D01*
X9580952Y-29773809D01*
X9485714Y-28440476D02*
X10152380Y-28440476D01*
X9485714Y-28869047D02*
X10009523Y-28869047D01*
X10104761Y-28821428D01*
X10152380Y-28726190D01*
X10152380Y-28583333D01*
X10104761Y-28488095D01*
X10057142Y-28440476D01*
X10152380Y-27964285D02*
X9152380Y-27964285D01*
X9533333Y-27964285D02*
X9485714Y-27869047D01*
X9485714Y-27678571D01*
X9533333Y-27583333D01*
X9580952Y-27535714D01*
X9676190Y-27488095D01*
X9961904Y-27488095D01*
X10057142Y-27535714D01*
X10104761Y-27583333D01*
X10152380Y-27678571D01*
X10152380Y-27869047D01*
X10104761Y-27964285D01*
X10057142Y-27059523D02*
X10104761Y-27011904D01*
X10152380Y-27059523D01*
X10104761Y-27107142D01*
X10057142Y-27059523D01*
X10152380Y-27059523D01*
X10104761Y-26154761D02*
X10152380Y-26250000D01*
X10152380Y-26440476D01*
X10104761Y-26535714D01*
X10057142Y-26583333D01*
X9961904Y-26630952D01*
X9676190Y-26630952D01*
X9580952Y-26583333D01*
X9533333Y-26535714D01*
X9485714Y-26440476D01*
X9485714Y-26250000D01*
X9533333Y-26154761D01*
X10152380Y-25583333D02*
X10104761Y-25678571D01*
X10057142Y-25726190D01*
X9961904Y-25773809D01*
X9676190Y-25773809D01*
X9580952Y-25726190D01*
X9533333Y-25678571D01*
X9485714Y-25583333D01*
X9485714Y-25440476D01*
X9533333Y-25345238D01*
X9580952Y-25297619D01*
X9676190Y-25250000D01*
X9961904Y-25250000D01*
X10057142Y-25297619D01*
X10104761Y-25345238D01*
X10152380Y-25440476D01*
X10152380Y-25583333D01*
X10152380Y-24821428D02*
X9485714Y-24821428D01*
X9580952Y-24821428D02*
X9533333Y-24773809D01*
X9485714Y-24678571D01*
X9485714Y-24535714D01*
X9533333Y-24440476D01*
X9628571Y-24392857D01*
X10152380Y-24392857D01*
X9628571Y-24392857D02*
X9533333Y-24345238D01*
X9485714Y-24250000D01*
X9485714Y-24107142D01*
X9533333Y-24011904D01*
X9628571Y-23964285D01*
X10152380Y-23964285D01*
X9104761Y-22773809D02*
X10390476Y-23630952D01*
X9485714Y-22535714D02*
X10152380Y-22345238D01*
X9676190Y-22154761D01*
X10152380Y-21964285D01*
X9485714Y-21773809D01*
X10104761Y-21011904D02*
X10152380Y-21107142D01*
X10152380Y-21297619D01*
X10104761Y-21392857D01*
X10009523Y-21440476D01*
X9628571Y-21440476D01*
X9533333Y-21392857D01*
X9485714Y-21297619D01*
X9485714Y-21107142D01*
X9533333Y-21011904D01*
X9628571Y-20964285D01*
X9723809Y-20964285D01*
X9819047Y-21440476D01*
X10104761Y-20583333D02*
X10152380Y-20488095D01*
X10152380Y-20297619D01*
X10104761Y-20202380D01*
X10009523Y-20154761D01*
X9961904Y-20154761D01*
X9866666Y-20202380D01*
X9819047Y-20297619D01*
X9819047Y-20440476D01*
X9771428Y-20535714D01*
X9676190Y-20583333D01*
X9628571Y-20583333D01*
X9533333Y-20535714D01*
X9485714Y-20440476D01*
X9485714Y-20297619D01*
X9533333Y-20202380D01*
X9485714Y-19869047D02*
X9485714Y-19488095D01*
X9152380Y-19726190D02*
X10009523Y-19726190D01*
X10104761Y-19678571D01*
X10152380Y-19583333D01*
X10152380Y-19488095D01*
X10152380Y-19011904D02*
X10104761Y-19107142D01*
X10057142Y-19154761D01*
X9961904Y-19202380D01*
X9676190Y-19202380D01*
X9580952Y-19154761D01*
X9533333Y-19107142D01*
X9485714Y-19011904D01*
X9485714Y-18869047D01*
X9533333Y-18773809D01*
X9580952Y-18726190D01*
X9676190Y-18678571D01*
X9961904Y-18678571D01*
X10057142Y-18726190D01*
X10104761Y-18773809D01*
X10152380Y-18869047D01*
X10152380Y-19011904D01*
X9485714Y-18250000D02*
X10152380Y-18250000D01*
X9580952Y-18250000D02*
X9533333Y-18202380D01*
X9485714Y-18107142D01*
X9485714Y-17964285D01*
X9533333Y-17869047D01*
X9628571Y-17821428D01*
X10152380Y-17821428D01*
X10152380Y-17345238D02*
X9152380Y-17345238D01*
X9533333Y-17345238D02*
X9485714Y-17250000D01*
X9485714Y-17059523D01*
X9533333Y-16964285D01*
X9580952Y-16916666D01*
X9676190Y-16869047D01*
X9961904Y-16869047D01*
X10057142Y-16916666D01*
X10104761Y-16964285D01*
X10152380Y-17059523D01*
X10152380Y-17250000D01*
X10104761Y-17345238D01*
X9104761Y-15726190D02*
X10390476Y-16583333D01*
X9152380Y-15202380D02*
X9152380Y-15011904D01*
X9200000Y-14916666D01*
X9295238Y-14821428D01*
X9485714Y-14773809D01*
X9819047Y-14773809D01*
X10009523Y-14821428D01*
X10104761Y-14916666D01*
X10152380Y-15011904D01*
X10152380Y-15202380D01*
X10104761Y-15297619D01*
X10009523Y-15392857D01*
X9819047Y-15440476D01*
X9485714Y-15440476D01*
X9295238Y-15392857D01*
X9200000Y-15297619D01*
X9152380Y-15202380D01*
X9152380Y-14488095D02*
X10152380Y-14154761D01*
X9152380Y-13821428D01*
X9152380Y-13583333D02*
X9152380Y-12916666D01*
X10152380Y-13345238D01*
X9152380Y-12107142D02*
X9152380Y-12297619D01*
X9200000Y-12392857D01*
X9247619Y-12440476D01*
X9390476Y-12535714D01*
X9580952Y-12583333D01*
X9961904Y-12583333D01*
X10057142Y-12535714D01*
X10104761Y-12488095D01*
X10152380Y-12392857D01*
X10152380Y-12202380D01*
X10104761Y-12107142D01*
X10057142Y-12059523D01*
X9961904Y-12011904D01*
X9723809Y-12011904D01*
X9628571Y-12059523D01*
X9580952Y-12107142D01*
X9533333Y-12202380D01*
X9533333Y-12392857D01*
X9580952Y-12488095D01*
X9628571Y-12535714D01*
X9723809Y-12583333D01*
X9152380Y-11678571D02*
X9152380Y-11011904D01*
X10152380Y-11440476D01*
X9152380Y-10440476D02*
X9152380Y-10345238D01*
X9200000Y-10250000D01*
X9247619Y-10202380D01*
X9342857Y-10154761D01*
X9533333Y-10107142D01*
X9771428Y-10107142D01*
X9961904Y-10154761D01*
X10057142Y-10202380D01*
X10104761Y-10250000D01*
X10152380Y-10345238D01*
X10152380Y-10440476D01*
X10104761Y-10535714D01*
X10057142Y-10583333D01*
X9961904Y-10630952D01*
X9771428Y-10678571D01*
X9533333Y-10678571D01*
X9342857Y-10630952D01*
X9247619Y-10583333D01*
X9200000Y-10535714D01*
X9152380Y-10440476D01*
X9771428Y-9678571D02*
X9771428Y-8916666D01*
X9152380Y-8583333D02*
X10152380Y-8250000D01*
X9152380Y-7916666D01*
X10104761Y-7202380D02*
X10152380Y-7297619D01*
X10152380Y-7488095D01*
X10104761Y-7583333D01*
X10009523Y-7630952D01*
X9628571Y-7630952D01*
X9533333Y-7583333D01*
X9485714Y-7488095D01*
X9485714Y-7297619D01*
X9533333Y-7202380D01*
X9628571Y-7154761D01*
X9723809Y-7154761D01*
X9819047Y-7630952D01*
X10152380Y-6726190D02*
X9485714Y-6726190D01*
X9676190Y-6726190D02*
X9580952Y-6678571D01*
X9533333Y-6630952D01*
X9485714Y-6535714D01*
X9485714Y-6440476D01*
X10152380Y-6107142D02*
X9485714Y-6107142D01*
X9152380Y-6107142D02*
X9200000Y-6154761D01*
X9247619Y-6107142D01*
X9200000Y-6059523D01*
X9152380Y-6107142D01*
X9247619Y-6107142D01*
X10152380Y-5488095D02*
X10104761Y-5583333D01*
X10009523Y-5630952D01*
X9152380Y-5630952D01*
X10152380Y-4964285D02*
X10104761Y-5059523D01*
X10057142Y-5107142D01*
X9961904Y-5154761D01*
X9676190Y-5154761D01*
X9580952Y-5107142D01*
X9533333Y-5059523D01*
X9485714Y-4964285D01*
X9485714Y-4821428D01*
X9533333Y-4726190D01*
X9580952Y-4678571D01*
X9676190Y-4630952D01*
X9961904Y-4630952D01*
X10057142Y-4678571D01*
X10104761Y-4726190D01*
X10152380Y-4821428D01*
X10152380Y-4964285D01*
X9485714Y-3773809D02*
X10295238Y-3773809D01*
X10390476Y-3821428D01*
X10438095Y-3869047D01*
X10485714Y-3964285D01*
X10485714Y-4107142D01*
X10438095Y-4202380D01*
X10104761Y-3773809D02*
X10152380Y-3869047D01*
X10152380Y-4059523D01*
X10104761Y-4154761D01*
X10057142Y-4202380D01*
X9961904Y-4250000D01*
X9676190Y-4250000D01*
X9580952Y-4202380D01*
X9533333Y-4154761D01*
X9485714Y-4059523D01*
X9485714Y-3869047D01*
X9533333Y-3773809D01*
M02*
