G04 #@! TF.FileFunction,Copper,L2,Bot,Signal*
%FSLAX46Y46*%
G04 Gerber Fmt 4.6, Leading zero omitted, Abs format (unit mm)*
G04 Created by KiCad (PCBNEW 4.0.4+e1-6308~48~ubuntu14.04.1-stable) date Wed Oct 26 00:07:37 2016*
%MOMM*%
%LPD*%
G01*
G04 APERTURE LIST*
%ADD10C,0.100000*%
%ADD11R,1.727200X1.727200*%
%ADD12O,1.727200X1.727200*%
%ADD13C,0.254000*%
G04 APERTURE END LIST*
D10*
D11*
X14210000Y-1800000D03*
D12*
X16750000Y-1800000D03*
X14210000Y-4340000D03*
X16750000Y-4340000D03*
X14210000Y-6880000D03*
X16750000Y-6880000D03*
X14210000Y-9420000D03*
X16750000Y-9420000D03*
X14210000Y-11960000D03*
X16750000Y-11960000D03*
X14210000Y-14500000D03*
X16750000Y-14500000D03*
X14210000Y-17040000D03*
X16750000Y-17040000D03*
X14210000Y-19580000D03*
X16750000Y-19580000D03*
X14210000Y-22120000D03*
X16750000Y-22120000D03*
X14210000Y-24660000D03*
X16750000Y-24660000D03*
D11*
X0Y0D03*
D12*
X2540000Y0D03*
X0Y-2540000D03*
X2540000Y-2540000D03*
X0Y-5080000D03*
X2540000Y-5080000D03*
X0Y-7620000D03*
X2540000Y-7620000D03*
X0Y-10160000D03*
X2540000Y-10160000D03*
X0Y-12700000D03*
X2540000Y-12700000D03*
D11*
X0Y-22900000D03*
D12*
X2540000Y-22900000D03*
X0Y-25440000D03*
X2540000Y-25440000D03*
X0Y-27980000D03*
X2540000Y-27980000D03*
X0Y-30520000D03*
X2540000Y-30520000D03*
X0Y-33060000D03*
X2540000Y-33060000D03*
X0Y-35600000D03*
X2540000Y-35600000D03*
D13*
G36*
X20290000Y-38540000D02*
X-3290000Y-38540000D01*
X-3290000Y-35600000D01*
X-1527959Y-35600000D01*
X-1413885Y-36173489D01*
X-1089029Y-36659670D01*
X-602848Y-36984526D01*
X-29359Y-37098600D01*
X29359Y-37098600D01*
X602848Y-36984526D01*
X1089029Y-36659670D01*
X1270000Y-36388828D01*
X1450971Y-36659670D01*
X1937152Y-36984526D01*
X2510641Y-37098600D01*
X2569359Y-37098600D01*
X3142848Y-36984526D01*
X3629029Y-36659670D01*
X3953885Y-36173489D01*
X4067959Y-35600000D01*
X3953885Y-35026511D01*
X3629029Y-34540330D01*
X3305772Y-34324336D01*
X3428490Y-34266821D01*
X3822688Y-33834947D01*
X3994958Y-33419026D01*
X3873817Y-33187000D01*
X2667000Y-33187000D01*
X2667000Y-33207000D01*
X2413000Y-33207000D01*
X2413000Y-33187000D01*
X127000Y-33187000D01*
X127000Y-33207000D01*
X-127000Y-33207000D01*
X-127000Y-33187000D01*
X-1333817Y-33187000D01*
X-1454958Y-33419026D01*
X-1282688Y-33834947D01*
X-888490Y-34266821D01*
X-765772Y-34324336D01*
X-1089029Y-34540330D01*
X-1413885Y-35026511D01*
X-1527959Y-35600000D01*
X-3290000Y-35600000D01*
X-3290000Y-25440000D01*
X-1527959Y-25440000D01*
X-1413885Y-26013489D01*
X-1089029Y-26499670D01*
X-774248Y-26710000D01*
X-1089029Y-26920330D01*
X-1413885Y-27406511D01*
X-1527959Y-27980000D01*
X-1413885Y-28553489D01*
X-1089029Y-29039670D01*
X-774248Y-29250000D01*
X-1089029Y-29460330D01*
X-1413885Y-29946511D01*
X-1527959Y-30520000D01*
X-1413885Y-31093489D01*
X-1089029Y-31579670D01*
X-765772Y-31795664D01*
X-888490Y-31853179D01*
X-1282688Y-32285053D01*
X-1454958Y-32700974D01*
X-1333817Y-32933000D01*
X-127000Y-32933000D01*
X-127000Y-32913000D01*
X127000Y-32913000D01*
X127000Y-32933000D01*
X2413000Y-32933000D01*
X2413000Y-32913000D01*
X2667000Y-32913000D01*
X2667000Y-32933000D01*
X3873817Y-32933000D01*
X3994958Y-32700974D01*
X3822688Y-32285053D01*
X3428490Y-31853179D01*
X3305772Y-31795664D01*
X3629029Y-31579670D01*
X3953885Y-31093489D01*
X4067959Y-30520000D01*
X3953885Y-29946511D01*
X3629029Y-29460330D01*
X3314248Y-29250000D01*
X3629029Y-29039670D01*
X3953885Y-28553489D01*
X4067959Y-27980000D01*
X3953885Y-27406511D01*
X3629029Y-26920330D01*
X3314248Y-26710000D01*
X3629029Y-26499670D01*
X3953885Y-26013489D01*
X4067959Y-25440000D01*
X3953885Y-24866511D01*
X3629029Y-24380330D01*
X3314248Y-24170000D01*
X3629029Y-23959670D01*
X3953885Y-23473489D01*
X4067959Y-22900000D01*
X3953885Y-22326511D01*
X3629029Y-21840330D01*
X3142848Y-21515474D01*
X2569359Y-21401400D01*
X2510641Y-21401400D01*
X1937152Y-21515474D01*
X1471558Y-21826574D01*
X1466762Y-21801083D01*
X1327690Y-21584959D01*
X1115490Y-21439969D01*
X863600Y-21388960D01*
X-863600Y-21388960D01*
X-1098917Y-21433238D01*
X-1315041Y-21572310D01*
X-1460031Y-21784510D01*
X-1511040Y-22036400D01*
X-1511040Y-23763600D01*
X-1466762Y-23998917D01*
X-1327690Y-24215041D01*
X-1115490Y-24360031D01*
X-1071869Y-24368864D01*
X-1089029Y-24380330D01*
X-1413885Y-24866511D01*
X-1527959Y-25440000D01*
X-3290000Y-25440000D01*
X-3290000Y-12700000D01*
X-1527959Y-12700000D01*
X-1413885Y-13273489D01*
X-1089029Y-13759670D01*
X-602848Y-14084526D01*
X-29359Y-14198600D01*
X29359Y-14198600D01*
X602848Y-14084526D01*
X1089029Y-13759670D01*
X1270000Y-13488828D01*
X1450971Y-13759670D01*
X1937152Y-14084526D01*
X2510641Y-14198600D01*
X2569359Y-14198600D01*
X3142848Y-14084526D01*
X3629029Y-13759670D01*
X3953885Y-13273489D01*
X4067959Y-12700000D01*
X3953885Y-12126511D01*
X3629029Y-11640330D01*
X3305772Y-11424336D01*
X3428490Y-11366821D01*
X3822688Y-10934947D01*
X3994958Y-10519026D01*
X3873817Y-10287000D01*
X2667000Y-10287000D01*
X2667000Y-10307000D01*
X2413000Y-10307000D01*
X2413000Y-10287000D01*
X127000Y-10287000D01*
X127000Y-10307000D01*
X-127000Y-10307000D01*
X-127000Y-10287000D01*
X-1333817Y-10287000D01*
X-1454958Y-10519026D01*
X-1282688Y-10934947D01*
X-888490Y-11366821D01*
X-765772Y-11424336D01*
X-1089029Y-11640330D01*
X-1413885Y-12126511D01*
X-1527959Y-12700000D01*
X-3290000Y-12700000D01*
X-3290000Y-2540000D01*
X-1527959Y-2540000D01*
X-1413885Y-3113489D01*
X-1089029Y-3599670D01*
X-774248Y-3810000D01*
X-1089029Y-4020330D01*
X-1413885Y-4506511D01*
X-1527959Y-5080000D01*
X-1413885Y-5653489D01*
X-1089029Y-6139670D01*
X-774248Y-6350000D01*
X-1089029Y-6560330D01*
X-1413885Y-7046511D01*
X-1527959Y-7620000D01*
X-1413885Y-8193489D01*
X-1089029Y-8679670D01*
X-765772Y-8895664D01*
X-888490Y-8953179D01*
X-1282688Y-9385053D01*
X-1454958Y-9800974D01*
X-1333817Y-10033000D01*
X-127000Y-10033000D01*
X-127000Y-10013000D01*
X127000Y-10013000D01*
X127000Y-10033000D01*
X2413000Y-10033000D01*
X2413000Y-10013000D01*
X2667000Y-10013000D01*
X2667000Y-10033000D01*
X3873817Y-10033000D01*
X3994958Y-9800974D01*
X3822688Y-9385053D01*
X3428490Y-8953179D01*
X3305772Y-8895664D01*
X3629029Y-8679670D01*
X3953885Y-8193489D01*
X4067959Y-7620000D01*
X3953885Y-7046511D01*
X3629029Y-6560330D01*
X3314248Y-6350000D01*
X3629029Y-6139670D01*
X3953885Y-5653489D01*
X4067959Y-5080000D01*
X3953885Y-4506511D01*
X3842626Y-4340000D01*
X12682041Y-4340000D01*
X12796115Y-4913489D01*
X13120971Y-5399670D01*
X13435752Y-5610000D01*
X13120971Y-5820330D01*
X12796115Y-6306511D01*
X12682041Y-6880000D01*
X12796115Y-7453489D01*
X13120971Y-7939670D01*
X13435752Y-8150000D01*
X13120971Y-8360330D01*
X12796115Y-8846511D01*
X12682041Y-9420000D01*
X12796115Y-9993489D01*
X13120971Y-10479670D01*
X13435752Y-10690000D01*
X13120971Y-10900330D01*
X12796115Y-11386511D01*
X12682041Y-11960000D01*
X12796115Y-12533489D01*
X13120971Y-13019670D01*
X13435752Y-13230000D01*
X13120971Y-13440330D01*
X12796115Y-13926511D01*
X12682041Y-14500000D01*
X12796115Y-15073489D01*
X13120971Y-15559670D01*
X13435752Y-15770000D01*
X13120971Y-15980330D01*
X12796115Y-16466511D01*
X12682041Y-17040000D01*
X12796115Y-17613489D01*
X13120971Y-18099670D01*
X13435752Y-18310000D01*
X13120971Y-18520330D01*
X12796115Y-19006511D01*
X12682041Y-19580000D01*
X12796115Y-20153489D01*
X13120971Y-20639670D01*
X13435752Y-20850000D01*
X13120971Y-21060330D01*
X12796115Y-21546511D01*
X12682041Y-22120000D01*
X12796115Y-22693489D01*
X13120971Y-23179670D01*
X13435752Y-23390000D01*
X13120971Y-23600330D01*
X12796115Y-24086511D01*
X12682041Y-24660000D01*
X12796115Y-25233489D01*
X13120971Y-25719670D01*
X13607152Y-26044526D01*
X14180641Y-26158600D01*
X14239359Y-26158600D01*
X14812848Y-26044526D01*
X15299029Y-25719670D01*
X15479992Y-25448839D01*
X15861510Y-25866821D01*
X16390973Y-26114968D01*
X16623000Y-25994469D01*
X16623000Y-24787000D01*
X16877000Y-24787000D01*
X16877000Y-25994469D01*
X17109027Y-26114968D01*
X17638490Y-25866821D01*
X18032688Y-25434947D01*
X18204958Y-25019026D01*
X18083817Y-24787000D01*
X16877000Y-24787000D01*
X16623000Y-24787000D01*
X16603000Y-24787000D01*
X16603000Y-24533000D01*
X16623000Y-24533000D01*
X16623000Y-24513000D01*
X16877000Y-24513000D01*
X16877000Y-24533000D01*
X18083817Y-24533000D01*
X18204958Y-24300974D01*
X18032688Y-23885053D01*
X17638490Y-23453179D01*
X17515772Y-23395664D01*
X17839029Y-23179670D01*
X18163885Y-22693489D01*
X18277959Y-22120000D01*
X18163885Y-21546511D01*
X17839029Y-21060330D01*
X17524248Y-20850000D01*
X17839029Y-20639670D01*
X18163885Y-20153489D01*
X18277959Y-19580000D01*
X18163885Y-19006511D01*
X17839029Y-18520330D01*
X17524248Y-18310000D01*
X17839029Y-18099670D01*
X18163885Y-17613489D01*
X18277959Y-17040000D01*
X18163885Y-16466511D01*
X17839029Y-15980330D01*
X17524248Y-15770000D01*
X17839029Y-15559670D01*
X18163885Y-15073489D01*
X18277959Y-14500000D01*
X18163885Y-13926511D01*
X17839029Y-13440330D01*
X17524248Y-13230000D01*
X17839029Y-13019670D01*
X18163885Y-12533489D01*
X18277959Y-11960000D01*
X18163885Y-11386511D01*
X17839029Y-10900330D01*
X17524248Y-10690000D01*
X17839029Y-10479670D01*
X18163885Y-9993489D01*
X18277959Y-9420000D01*
X18163885Y-8846511D01*
X17839029Y-8360330D01*
X17524248Y-8150000D01*
X17839029Y-7939670D01*
X18163885Y-7453489D01*
X18277959Y-6880000D01*
X18163885Y-6306511D01*
X17839029Y-5820330D01*
X17524248Y-5610000D01*
X17839029Y-5399670D01*
X18163885Y-4913489D01*
X18277959Y-4340000D01*
X18163885Y-3766511D01*
X17839029Y-3280330D01*
X17515772Y-3064336D01*
X17638490Y-3006821D01*
X18032688Y-2574947D01*
X18204958Y-2159026D01*
X18083817Y-1927000D01*
X16877000Y-1927000D01*
X16877000Y-1947000D01*
X16623000Y-1947000D01*
X16623000Y-1927000D01*
X14337000Y-1927000D01*
X14337000Y-1947000D01*
X14083000Y-1947000D01*
X14083000Y-1927000D01*
X12870150Y-1927000D01*
X12711400Y-2085750D01*
X12711400Y-2789910D01*
X12808073Y-3023299D01*
X12986702Y-3201927D01*
X13142023Y-3266263D01*
X13120971Y-3280330D01*
X12796115Y-3766511D01*
X12682041Y-4340000D01*
X3842626Y-4340000D01*
X3629029Y-4020330D01*
X3314248Y-3810000D01*
X3629029Y-3599670D01*
X3953885Y-3113489D01*
X4067959Y-2540000D01*
X3953885Y-1966511D01*
X3629029Y-1480330D01*
X3314248Y-1270000D01*
X3629029Y-1059670D01*
X3795793Y-810090D01*
X12711400Y-810090D01*
X12711400Y-1514250D01*
X12870150Y-1673000D01*
X14083000Y-1673000D01*
X14083000Y-460150D01*
X14337000Y-460150D01*
X14337000Y-1673000D01*
X16623000Y-1673000D01*
X16623000Y-465531D01*
X16877000Y-465531D01*
X16877000Y-1673000D01*
X18083817Y-1673000D01*
X18204958Y-1440974D01*
X18032688Y-1025053D01*
X17638490Y-593179D01*
X17109027Y-345032D01*
X16877000Y-465531D01*
X16623000Y-465531D01*
X16390973Y-345032D01*
X15861510Y-593179D01*
X15694529Y-776119D01*
X15611927Y-576701D01*
X15433298Y-398073D01*
X15199909Y-301400D01*
X14495750Y-301400D01*
X14337000Y-460150D01*
X14083000Y-460150D01*
X13924250Y-301400D01*
X13220091Y-301400D01*
X12986702Y-398073D01*
X12808073Y-576701D01*
X12711400Y-810090D01*
X3795793Y-810090D01*
X3953885Y-573489D01*
X4067959Y0D01*
X3953885Y573489D01*
X3629029Y1059670D01*
X3142848Y1384526D01*
X2569359Y1498600D01*
X2510641Y1498600D01*
X1937152Y1384526D01*
X1471558Y1073426D01*
X1466762Y1098917D01*
X1327690Y1315041D01*
X1115490Y1460031D01*
X863600Y1511040D01*
X-863600Y1511040D01*
X-1098917Y1466762D01*
X-1315041Y1327690D01*
X-1460031Y1115490D01*
X-1511040Y863600D01*
X-1511040Y-863600D01*
X-1466762Y-1098917D01*
X-1327690Y-1315041D01*
X-1115490Y-1460031D01*
X-1071869Y-1468864D01*
X-1089029Y-1480330D01*
X-1413885Y-1966511D01*
X-1527959Y-2540000D01*
X-3290000Y-2540000D01*
X-3290000Y3040000D01*
X20290000Y3040000D01*
X20290000Y-38540000D01*
X20290000Y-38540000D01*
G37*
X20290000Y-38540000D02*
X-3290000Y-38540000D01*
X-3290000Y-35600000D01*
X-1527959Y-35600000D01*
X-1413885Y-36173489D01*
X-1089029Y-36659670D01*
X-602848Y-36984526D01*
X-29359Y-37098600D01*
X29359Y-37098600D01*
X602848Y-36984526D01*
X1089029Y-36659670D01*
X1270000Y-36388828D01*
X1450971Y-36659670D01*
X1937152Y-36984526D01*
X2510641Y-37098600D01*
X2569359Y-37098600D01*
X3142848Y-36984526D01*
X3629029Y-36659670D01*
X3953885Y-36173489D01*
X4067959Y-35600000D01*
X3953885Y-35026511D01*
X3629029Y-34540330D01*
X3305772Y-34324336D01*
X3428490Y-34266821D01*
X3822688Y-33834947D01*
X3994958Y-33419026D01*
X3873817Y-33187000D01*
X2667000Y-33187000D01*
X2667000Y-33207000D01*
X2413000Y-33207000D01*
X2413000Y-33187000D01*
X127000Y-33187000D01*
X127000Y-33207000D01*
X-127000Y-33207000D01*
X-127000Y-33187000D01*
X-1333817Y-33187000D01*
X-1454958Y-33419026D01*
X-1282688Y-33834947D01*
X-888490Y-34266821D01*
X-765772Y-34324336D01*
X-1089029Y-34540330D01*
X-1413885Y-35026511D01*
X-1527959Y-35600000D01*
X-3290000Y-35600000D01*
X-3290000Y-25440000D01*
X-1527959Y-25440000D01*
X-1413885Y-26013489D01*
X-1089029Y-26499670D01*
X-774248Y-26710000D01*
X-1089029Y-26920330D01*
X-1413885Y-27406511D01*
X-1527959Y-27980000D01*
X-1413885Y-28553489D01*
X-1089029Y-29039670D01*
X-774248Y-29250000D01*
X-1089029Y-29460330D01*
X-1413885Y-29946511D01*
X-1527959Y-30520000D01*
X-1413885Y-31093489D01*
X-1089029Y-31579670D01*
X-765772Y-31795664D01*
X-888490Y-31853179D01*
X-1282688Y-32285053D01*
X-1454958Y-32700974D01*
X-1333817Y-32933000D01*
X-127000Y-32933000D01*
X-127000Y-32913000D01*
X127000Y-32913000D01*
X127000Y-32933000D01*
X2413000Y-32933000D01*
X2413000Y-32913000D01*
X2667000Y-32913000D01*
X2667000Y-32933000D01*
X3873817Y-32933000D01*
X3994958Y-32700974D01*
X3822688Y-32285053D01*
X3428490Y-31853179D01*
X3305772Y-31795664D01*
X3629029Y-31579670D01*
X3953885Y-31093489D01*
X4067959Y-30520000D01*
X3953885Y-29946511D01*
X3629029Y-29460330D01*
X3314248Y-29250000D01*
X3629029Y-29039670D01*
X3953885Y-28553489D01*
X4067959Y-27980000D01*
X3953885Y-27406511D01*
X3629029Y-26920330D01*
X3314248Y-26710000D01*
X3629029Y-26499670D01*
X3953885Y-26013489D01*
X4067959Y-25440000D01*
X3953885Y-24866511D01*
X3629029Y-24380330D01*
X3314248Y-24170000D01*
X3629029Y-23959670D01*
X3953885Y-23473489D01*
X4067959Y-22900000D01*
X3953885Y-22326511D01*
X3629029Y-21840330D01*
X3142848Y-21515474D01*
X2569359Y-21401400D01*
X2510641Y-21401400D01*
X1937152Y-21515474D01*
X1471558Y-21826574D01*
X1466762Y-21801083D01*
X1327690Y-21584959D01*
X1115490Y-21439969D01*
X863600Y-21388960D01*
X-863600Y-21388960D01*
X-1098917Y-21433238D01*
X-1315041Y-21572310D01*
X-1460031Y-21784510D01*
X-1511040Y-22036400D01*
X-1511040Y-23763600D01*
X-1466762Y-23998917D01*
X-1327690Y-24215041D01*
X-1115490Y-24360031D01*
X-1071869Y-24368864D01*
X-1089029Y-24380330D01*
X-1413885Y-24866511D01*
X-1527959Y-25440000D01*
X-3290000Y-25440000D01*
X-3290000Y-12700000D01*
X-1527959Y-12700000D01*
X-1413885Y-13273489D01*
X-1089029Y-13759670D01*
X-602848Y-14084526D01*
X-29359Y-14198600D01*
X29359Y-14198600D01*
X602848Y-14084526D01*
X1089029Y-13759670D01*
X1270000Y-13488828D01*
X1450971Y-13759670D01*
X1937152Y-14084526D01*
X2510641Y-14198600D01*
X2569359Y-14198600D01*
X3142848Y-14084526D01*
X3629029Y-13759670D01*
X3953885Y-13273489D01*
X4067959Y-12700000D01*
X3953885Y-12126511D01*
X3629029Y-11640330D01*
X3305772Y-11424336D01*
X3428490Y-11366821D01*
X3822688Y-10934947D01*
X3994958Y-10519026D01*
X3873817Y-10287000D01*
X2667000Y-10287000D01*
X2667000Y-10307000D01*
X2413000Y-10307000D01*
X2413000Y-10287000D01*
X127000Y-10287000D01*
X127000Y-10307000D01*
X-127000Y-10307000D01*
X-127000Y-10287000D01*
X-1333817Y-10287000D01*
X-1454958Y-10519026D01*
X-1282688Y-10934947D01*
X-888490Y-11366821D01*
X-765772Y-11424336D01*
X-1089029Y-11640330D01*
X-1413885Y-12126511D01*
X-1527959Y-12700000D01*
X-3290000Y-12700000D01*
X-3290000Y-2540000D01*
X-1527959Y-2540000D01*
X-1413885Y-3113489D01*
X-1089029Y-3599670D01*
X-774248Y-3810000D01*
X-1089029Y-4020330D01*
X-1413885Y-4506511D01*
X-1527959Y-5080000D01*
X-1413885Y-5653489D01*
X-1089029Y-6139670D01*
X-774248Y-6350000D01*
X-1089029Y-6560330D01*
X-1413885Y-7046511D01*
X-1527959Y-7620000D01*
X-1413885Y-8193489D01*
X-1089029Y-8679670D01*
X-765772Y-8895664D01*
X-888490Y-8953179D01*
X-1282688Y-9385053D01*
X-1454958Y-9800974D01*
X-1333817Y-10033000D01*
X-127000Y-10033000D01*
X-127000Y-10013000D01*
X127000Y-10013000D01*
X127000Y-10033000D01*
X2413000Y-10033000D01*
X2413000Y-10013000D01*
X2667000Y-10013000D01*
X2667000Y-10033000D01*
X3873817Y-10033000D01*
X3994958Y-9800974D01*
X3822688Y-9385053D01*
X3428490Y-8953179D01*
X3305772Y-8895664D01*
X3629029Y-8679670D01*
X3953885Y-8193489D01*
X4067959Y-7620000D01*
X3953885Y-7046511D01*
X3629029Y-6560330D01*
X3314248Y-6350000D01*
X3629029Y-6139670D01*
X3953885Y-5653489D01*
X4067959Y-5080000D01*
X3953885Y-4506511D01*
X3842626Y-4340000D01*
X12682041Y-4340000D01*
X12796115Y-4913489D01*
X13120971Y-5399670D01*
X13435752Y-5610000D01*
X13120971Y-5820330D01*
X12796115Y-6306511D01*
X12682041Y-6880000D01*
X12796115Y-7453489D01*
X13120971Y-7939670D01*
X13435752Y-8150000D01*
X13120971Y-8360330D01*
X12796115Y-8846511D01*
X12682041Y-9420000D01*
X12796115Y-9993489D01*
X13120971Y-10479670D01*
X13435752Y-10690000D01*
X13120971Y-10900330D01*
X12796115Y-11386511D01*
X12682041Y-11960000D01*
X12796115Y-12533489D01*
X13120971Y-13019670D01*
X13435752Y-13230000D01*
X13120971Y-13440330D01*
X12796115Y-13926511D01*
X12682041Y-14500000D01*
X12796115Y-15073489D01*
X13120971Y-15559670D01*
X13435752Y-15770000D01*
X13120971Y-15980330D01*
X12796115Y-16466511D01*
X12682041Y-17040000D01*
X12796115Y-17613489D01*
X13120971Y-18099670D01*
X13435752Y-18310000D01*
X13120971Y-18520330D01*
X12796115Y-19006511D01*
X12682041Y-19580000D01*
X12796115Y-20153489D01*
X13120971Y-20639670D01*
X13435752Y-20850000D01*
X13120971Y-21060330D01*
X12796115Y-21546511D01*
X12682041Y-22120000D01*
X12796115Y-22693489D01*
X13120971Y-23179670D01*
X13435752Y-23390000D01*
X13120971Y-23600330D01*
X12796115Y-24086511D01*
X12682041Y-24660000D01*
X12796115Y-25233489D01*
X13120971Y-25719670D01*
X13607152Y-26044526D01*
X14180641Y-26158600D01*
X14239359Y-26158600D01*
X14812848Y-26044526D01*
X15299029Y-25719670D01*
X15479992Y-25448839D01*
X15861510Y-25866821D01*
X16390973Y-26114968D01*
X16623000Y-25994469D01*
X16623000Y-24787000D01*
X16877000Y-24787000D01*
X16877000Y-25994469D01*
X17109027Y-26114968D01*
X17638490Y-25866821D01*
X18032688Y-25434947D01*
X18204958Y-25019026D01*
X18083817Y-24787000D01*
X16877000Y-24787000D01*
X16623000Y-24787000D01*
X16603000Y-24787000D01*
X16603000Y-24533000D01*
X16623000Y-24533000D01*
X16623000Y-24513000D01*
X16877000Y-24513000D01*
X16877000Y-24533000D01*
X18083817Y-24533000D01*
X18204958Y-24300974D01*
X18032688Y-23885053D01*
X17638490Y-23453179D01*
X17515772Y-23395664D01*
X17839029Y-23179670D01*
X18163885Y-22693489D01*
X18277959Y-22120000D01*
X18163885Y-21546511D01*
X17839029Y-21060330D01*
X17524248Y-20850000D01*
X17839029Y-20639670D01*
X18163885Y-20153489D01*
X18277959Y-19580000D01*
X18163885Y-19006511D01*
X17839029Y-18520330D01*
X17524248Y-18310000D01*
X17839029Y-18099670D01*
X18163885Y-17613489D01*
X18277959Y-17040000D01*
X18163885Y-16466511D01*
X17839029Y-15980330D01*
X17524248Y-15770000D01*
X17839029Y-15559670D01*
X18163885Y-15073489D01*
X18277959Y-14500000D01*
X18163885Y-13926511D01*
X17839029Y-13440330D01*
X17524248Y-13230000D01*
X17839029Y-13019670D01*
X18163885Y-12533489D01*
X18277959Y-11960000D01*
X18163885Y-11386511D01*
X17839029Y-10900330D01*
X17524248Y-10690000D01*
X17839029Y-10479670D01*
X18163885Y-9993489D01*
X18277959Y-9420000D01*
X18163885Y-8846511D01*
X17839029Y-8360330D01*
X17524248Y-8150000D01*
X17839029Y-7939670D01*
X18163885Y-7453489D01*
X18277959Y-6880000D01*
X18163885Y-6306511D01*
X17839029Y-5820330D01*
X17524248Y-5610000D01*
X17839029Y-5399670D01*
X18163885Y-4913489D01*
X18277959Y-4340000D01*
X18163885Y-3766511D01*
X17839029Y-3280330D01*
X17515772Y-3064336D01*
X17638490Y-3006821D01*
X18032688Y-2574947D01*
X18204958Y-2159026D01*
X18083817Y-1927000D01*
X16877000Y-1927000D01*
X16877000Y-1947000D01*
X16623000Y-1947000D01*
X16623000Y-1927000D01*
X14337000Y-1927000D01*
X14337000Y-1947000D01*
X14083000Y-1947000D01*
X14083000Y-1927000D01*
X12870150Y-1927000D01*
X12711400Y-2085750D01*
X12711400Y-2789910D01*
X12808073Y-3023299D01*
X12986702Y-3201927D01*
X13142023Y-3266263D01*
X13120971Y-3280330D01*
X12796115Y-3766511D01*
X12682041Y-4340000D01*
X3842626Y-4340000D01*
X3629029Y-4020330D01*
X3314248Y-3810000D01*
X3629029Y-3599670D01*
X3953885Y-3113489D01*
X4067959Y-2540000D01*
X3953885Y-1966511D01*
X3629029Y-1480330D01*
X3314248Y-1270000D01*
X3629029Y-1059670D01*
X3795793Y-810090D01*
X12711400Y-810090D01*
X12711400Y-1514250D01*
X12870150Y-1673000D01*
X14083000Y-1673000D01*
X14083000Y-460150D01*
X14337000Y-460150D01*
X14337000Y-1673000D01*
X16623000Y-1673000D01*
X16623000Y-465531D01*
X16877000Y-465531D01*
X16877000Y-1673000D01*
X18083817Y-1673000D01*
X18204958Y-1440974D01*
X18032688Y-1025053D01*
X17638490Y-593179D01*
X17109027Y-345032D01*
X16877000Y-465531D01*
X16623000Y-465531D01*
X16390973Y-345032D01*
X15861510Y-593179D01*
X15694529Y-776119D01*
X15611927Y-576701D01*
X15433298Y-398073D01*
X15199909Y-301400D01*
X14495750Y-301400D01*
X14337000Y-460150D01*
X14083000Y-460150D01*
X13924250Y-301400D01*
X13220091Y-301400D01*
X12986702Y-398073D01*
X12808073Y-576701D01*
X12711400Y-810090D01*
X3795793Y-810090D01*
X3953885Y-573489D01*
X4067959Y0D01*
X3953885Y573489D01*
X3629029Y1059670D01*
X3142848Y1384526D01*
X2569359Y1498600D01*
X2510641Y1498600D01*
X1937152Y1384526D01*
X1471558Y1073426D01*
X1466762Y1098917D01*
X1327690Y1315041D01*
X1115490Y1460031D01*
X863600Y1511040D01*
X-863600Y1511040D01*
X-1098917Y1466762D01*
X-1315041Y1327690D01*
X-1460031Y1115490D01*
X-1511040Y863600D01*
X-1511040Y-863600D01*
X-1466762Y-1098917D01*
X-1327690Y-1315041D01*
X-1115490Y-1460031D01*
X-1071869Y-1468864D01*
X-1089029Y-1480330D01*
X-1413885Y-1966511D01*
X-1527959Y-2540000D01*
X-3290000Y-2540000D01*
X-3290000Y3040000D01*
X20290000Y3040000D01*
X20290000Y-38540000D01*
M02*
