G04 #@! TF.FileFunction,Copper,L2,Bot,Signal*
%FSLAX46Y46*%
G04 Gerber Fmt 4.6, Leading zero omitted, Abs format (unit mm)*
G04 Created by KiCad (PCBNEW 4.0.4+e1-6308~48~ubuntu14.04.1-stable) date Wed Oct 26 00:03:54 2016*
%MOMM*%
%LPD*%
G01*
G04 APERTURE LIST*
%ADD10C,0.100000*%
%ADD11R,1.727200X1.727200*%
%ADD12O,1.727200X1.727200*%
%ADD13C,0.240000*%
G04 APERTURE END LIST*
D10*
D11*
X115000000Y-104300000D03*
D12*
X117540000Y-104300000D03*
X115000000Y-106840000D03*
X117540000Y-106840000D03*
X115000000Y-109380000D03*
X117540000Y-109380000D03*
X115000000Y-111920000D03*
X117540000Y-111920000D03*
X115000000Y-114460000D03*
X117540000Y-114460000D03*
X115000000Y-117000000D03*
X117540000Y-117000000D03*
X115000000Y-119540000D03*
X117540000Y-119540000D03*
X115000000Y-122080000D03*
X117540000Y-122080000D03*
X115000000Y-124620000D03*
X117540000Y-124620000D03*
D11*
X125000000Y-102840000D03*
D12*
X127540000Y-102840000D03*
X125000000Y-105380000D03*
X127540000Y-105380000D03*
X125000000Y-107920000D03*
X127540000Y-107920000D03*
X125000000Y-110460000D03*
X127540000Y-110460000D03*
X125000000Y-113000000D03*
X127540000Y-113000000D03*
X125000000Y-115540000D03*
X127540000Y-115540000D03*
X125000000Y-118080000D03*
X127540000Y-118080000D03*
X125000000Y-120620000D03*
X127540000Y-120620000D03*
X125000000Y-123160000D03*
X127540000Y-123160000D03*
X125000000Y-125700000D03*
X127540000Y-125700000D03*
D13*
X117147470Y-105600000D02*
X123558686Y-105600000D01*
X123558686Y-105600000D02*
X123778686Y-105380000D01*
X123778686Y-105380000D02*
X125000000Y-105380000D01*
X115000000Y-104300000D02*
X115847470Y-104300000D01*
X115847470Y-104300000D02*
X117147470Y-105600000D01*
X118961314Y-104100000D02*
X126260000Y-104100000D01*
X126260000Y-104100000D02*
X127540000Y-105380000D01*
X117540000Y-104300000D02*
X118761314Y-104300000D01*
X118761314Y-104300000D02*
X118961314Y-104100000D01*
X125000000Y-107920000D02*
X118680000Y-107920000D01*
X118680000Y-107920000D02*
X118500000Y-108100000D01*
X118500000Y-108100000D02*
X116260000Y-108100000D01*
X116260000Y-108100000D02*
X115000000Y-106840000D01*
X126200000Y-106600000D02*
X119001314Y-106600000D01*
X119001314Y-106600000D02*
X118761314Y-106840000D01*
X118761314Y-106840000D02*
X117540000Y-106840000D01*
X126656401Y-107056401D02*
X126200000Y-106600000D01*
X127540000Y-107920000D02*
X126676401Y-107056401D01*
X126676401Y-107056401D02*
X126656401Y-107056401D01*
X123638686Y-110600000D02*
X116220000Y-110600000D01*
X116220000Y-110600000D02*
X115000000Y-109380000D01*
X125000000Y-110460000D02*
X123778686Y-110460000D01*
X123778686Y-110460000D02*
X123638686Y-110600000D01*
X118941314Y-109200000D02*
X126280000Y-109200000D01*
X126280000Y-109200000D02*
X127540000Y-110460000D01*
X117540000Y-109380000D02*
X118761314Y-109380000D01*
X118761314Y-109380000D02*
X118941314Y-109200000D01*
X125000000Y-113000000D02*
X123778686Y-113000000D01*
X123778686Y-113000000D02*
X123578686Y-113200000D01*
X123578686Y-113200000D02*
X116280000Y-113200000D01*
X116280000Y-113200000D02*
X115000000Y-111920000D01*
X119500000Y-111700000D02*
X119280000Y-111920000D01*
X119280000Y-111920000D02*
X117540000Y-111920000D01*
X126240000Y-111700000D02*
X119500000Y-111700000D01*
X127540000Y-113000000D02*
X126240000Y-111700000D01*
X125000000Y-115540000D02*
X123778686Y-115540000D01*
X123778686Y-115540000D02*
X123618686Y-115700000D01*
X123618686Y-115700000D02*
X116240000Y-115700000D01*
X116240000Y-115700000D02*
X115000000Y-114460000D01*
X126300000Y-114300000D02*
X118921314Y-114300000D01*
X118921314Y-114300000D02*
X118761314Y-114460000D01*
X118761314Y-114460000D02*
X117540000Y-114460000D01*
X127540000Y-115540000D02*
X126300000Y-114300000D01*
X125000000Y-118080000D02*
X123778686Y-118080000D01*
X123778686Y-118080000D02*
X123558686Y-118300000D01*
X123558686Y-118300000D02*
X116300000Y-118300000D01*
X116300000Y-118300000D02*
X115000000Y-117000000D01*
X119500000Y-116800000D02*
X119300000Y-117000000D01*
X119300000Y-117000000D02*
X117540000Y-117000000D01*
X126260000Y-116800000D02*
X119500000Y-116800000D01*
X127540000Y-118080000D02*
X126260000Y-116800000D01*
X125000000Y-120620000D02*
X123778686Y-120620000D01*
X123778686Y-120620000D02*
X123598686Y-120800000D01*
X123598686Y-120800000D02*
X116260000Y-120800000D01*
X116260000Y-120800000D02*
X115000000Y-119540000D01*
X117540000Y-119540000D02*
X118761314Y-119540000D01*
X118761314Y-119540000D02*
X118901314Y-119400000D01*
X118901314Y-119400000D02*
X126320000Y-119400000D01*
X126320000Y-119400000D02*
X127540000Y-120620000D01*
X118012530Y-123300000D02*
X116220000Y-123300000D01*
X116220000Y-123300000D02*
X115000000Y-122080000D01*
X125000000Y-123160000D02*
X118152530Y-123160000D01*
X118152530Y-123160000D02*
X118012530Y-123300000D01*
X126280000Y-121900000D02*
X118941314Y-121900000D01*
X118941314Y-121900000D02*
X118761314Y-122080000D01*
X118761314Y-122080000D02*
X117540000Y-122080000D01*
X127540000Y-123160000D02*
X126280000Y-121900000D01*
X123478686Y-126000000D02*
X116380000Y-126000000D01*
X116380000Y-126000000D02*
X115000000Y-124620000D01*
X125000000Y-125700000D02*
X123778686Y-125700000D01*
X123778686Y-125700000D02*
X123478686Y-126000000D01*
X126240000Y-124400000D02*
X118981314Y-124400000D01*
X118981314Y-124400000D02*
X118761314Y-124620000D01*
X118761314Y-124620000D02*
X117540000Y-124620000D01*
X127540000Y-125700000D02*
X126240000Y-124400000D01*
M02*
