%TF.GenerationSoftware,KiCad,Pcbnew,no-vcs-found-a6f8405~61~ubuntu14.04.1*%
%TF.CreationDate,2017-11-06T16:00:49-05:00*%
%TF.ProjectId,camera_side_breakout,63616D6572615F736964655F62726561,rev?*%
%TF.SameCoordinates,Original*%
%TF.FileFunction,Soldermask,Top*%
%TF.FilePolarity,Negative*%
%FSLAX46Y46*%
G04 Gerber Fmt 4.6, Leading zero omitted, Abs format (unit mm)*
G04 Created by KiCad (PCBNEW no-vcs-found-a6f8405~61~ubuntu14.04.1) date Mon Nov  6 16:00:49 2017*
%MOMM*%
%LPD*%
G01*
G04 APERTURE LIST*
%ADD10C,0.100000*%
G04 APERTURE END LIST*
D10*
G36*
X129057364Y-124776490D02*
X129236496Y-124796583D01*
X129408314Y-124851087D01*
X129566273Y-124937925D01*
X129704356Y-125053791D01*
X129817305Y-125194271D01*
X129900816Y-125354013D01*
X129951710Y-125526935D01*
X129951711Y-125526943D01*
X129951711Y-125526944D01*
X129966873Y-125693552D01*
X129968046Y-125706448D01*
X129949205Y-125885716D01*
X129895902Y-126057909D01*
X129810168Y-126216471D01*
X129695269Y-126355360D01*
X129555581Y-126469286D01*
X129396426Y-126553911D01*
X129223864Y-126606010D01*
X129044469Y-126623600D01*
X129035531Y-126623600D01*
X129022636Y-126623510D01*
X128843504Y-126603417D01*
X128671686Y-126548913D01*
X128513727Y-126462075D01*
X128375644Y-126346209D01*
X128262695Y-126205729D01*
X128179184Y-126045987D01*
X128128290Y-125873065D01*
X128128289Y-125873056D01*
X128111954Y-125693556D01*
X128127724Y-125543510D01*
X128130795Y-125514284D01*
X128184098Y-125342091D01*
X128269832Y-125183529D01*
X128384731Y-125044640D01*
X128524419Y-124930714D01*
X128683574Y-124846089D01*
X128856136Y-124793990D01*
X129035531Y-124776400D01*
X129044469Y-124776400D01*
X129057364Y-124776490D01*
X129057364Y-124776490D01*
G37*
G36*
X126517364Y-124776490D02*
X126696496Y-124796583D01*
X126868314Y-124851087D01*
X127026273Y-124937925D01*
X127164356Y-125053791D01*
X127277305Y-125194271D01*
X127360816Y-125354013D01*
X127411710Y-125526935D01*
X127411711Y-125526943D01*
X127411711Y-125526944D01*
X127426873Y-125693552D01*
X127428046Y-125706448D01*
X127409205Y-125885716D01*
X127355902Y-126057909D01*
X127270168Y-126216471D01*
X127155269Y-126355360D01*
X127015581Y-126469286D01*
X126856426Y-126553911D01*
X126683864Y-126606010D01*
X126504469Y-126623600D01*
X126495531Y-126623600D01*
X126482636Y-126623510D01*
X126303504Y-126603417D01*
X126131686Y-126548913D01*
X125973727Y-126462075D01*
X125835644Y-126346209D01*
X125722695Y-126205729D01*
X125639184Y-126045987D01*
X125588290Y-125873065D01*
X125588289Y-125873056D01*
X125571954Y-125693556D01*
X125587724Y-125543510D01*
X125590795Y-125514284D01*
X125644098Y-125342091D01*
X125729832Y-125183529D01*
X125844731Y-125044640D01*
X125984419Y-124930714D01*
X126143574Y-124846089D01*
X126316136Y-124793990D01*
X126495531Y-124776400D01*
X126504469Y-124776400D01*
X126517364Y-124776490D01*
X126517364Y-124776490D01*
G37*
G36*
X117557364Y-123696490D02*
X117736496Y-123716583D01*
X117908314Y-123771087D01*
X118066273Y-123857925D01*
X118204356Y-123973791D01*
X118317305Y-124114271D01*
X118400816Y-124274013D01*
X118451710Y-124446935D01*
X118451711Y-124446943D01*
X118451711Y-124446944D01*
X118466873Y-124613552D01*
X118468046Y-124626448D01*
X118449205Y-124805716D01*
X118395902Y-124977909D01*
X118310168Y-125136471D01*
X118195269Y-125275360D01*
X118055581Y-125389286D01*
X117896426Y-125473911D01*
X117723864Y-125526010D01*
X117544469Y-125543600D01*
X117535531Y-125543600D01*
X117522636Y-125543510D01*
X117343504Y-125523417D01*
X117171686Y-125468913D01*
X117013727Y-125382075D01*
X116875644Y-125266209D01*
X116762695Y-125125729D01*
X116679184Y-124965987D01*
X116628290Y-124793065D01*
X116628289Y-124793056D01*
X116611954Y-124613556D01*
X116629465Y-124446944D01*
X116630795Y-124434284D01*
X116684098Y-124262091D01*
X116769832Y-124103529D01*
X116884731Y-123964640D01*
X117024419Y-123850714D01*
X117183574Y-123766089D01*
X117356136Y-123713990D01*
X117535531Y-123696400D01*
X117544469Y-123696400D01*
X117557364Y-123696490D01*
X117557364Y-123696490D01*
G37*
G36*
X115017364Y-123696490D02*
X115196496Y-123716583D01*
X115368314Y-123771087D01*
X115526273Y-123857925D01*
X115664356Y-123973791D01*
X115777305Y-124114271D01*
X115860816Y-124274013D01*
X115911710Y-124446935D01*
X115911711Y-124446943D01*
X115911711Y-124446944D01*
X115926873Y-124613552D01*
X115928046Y-124626448D01*
X115909205Y-124805716D01*
X115855902Y-124977909D01*
X115770168Y-125136471D01*
X115655269Y-125275360D01*
X115515581Y-125389286D01*
X115356426Y-125473911D01*
X115183864Y-125526010D01*
X115004469Y-125543600D01*
X114995531Y-125543600D01*
X114982636Y-125543510D01*
X114803504Y-125523417D01*
X114631686Y-125468913D01*
X114473727Y-125382075D01*
X114335644Y-125266209D01*
X114222695Y-125125729D01*
X114139184Y-124965987D01*
X114088290Y-124793065D01*
X114088289Y-124793056D01*
X114071954Y-124613556D01*
X114089465Y-124446944D01*
X114090795Y-124434284D01*
X114144098Y-124262091D01*
X114229832Y-124103529D01*
X114344731Y-123964640D01*
X114484419Y-123850714D01*
X114643574Y-123766089D01*
X114816136Y-123713990D01*
X114995531Y-123696400D01*
X115004469Y-123696400D01*
X115017364Y-123696490D01*
X115017364Y-123696490D01*
G37*
G36*
X129057364Y-122236490D02*
X129236496Y-122256583D01*
X129408314Y-122311087D01*
X129566273Y-122397925D01*
X129704356Y-122513791D01*
X129817305Y-122654271D01*
X129900816Y-122814013D01*
X129951710Y-122986935D01*
X129951711Y-122986943D01*
X129951711Y-122986944D01*
X129966873Y-123153552D01*
X129968046Y-123166448D01*
X129949205Y-123345716D01*
X129895902Y-123517909D01*
X129810168Y-123676471D01*
X129695269Y-123815360D01*
X129555581Y-123929286D01*
X129396426Y-124013911D01*
X129223864Y-124066010D01*
X129044469Y-124083600D01*
X129035531Y-124083600D01*
X129022636Y-124083510D01*
X128843504Y-124063417D01*
X128671686Y-124008913D01*
X128513727Y-123922075D01*
X128375644Y-123806209D01*
X128262695Y-123665729D01*
X128179184Y-123505987D01*
X128128290Y-123333065D01*
X128128289Y-123333056D01*
X128111954Y-123153556D01*
X128127724Y-123003510D01*
X128130795Y-122974284D01*
X128184098Y-122802091D01*
X128269832Y-122643529D01*
X128384731Y-122504640D01*
X128524419Y-122390714D01*
X128683574Y-122306089D01*
X128856136Y-122253990D01*
X129035531Y-122236400D01*
X129044469Y-122236400D01*
X129057364Y-122236490D01*
X129057364Y-122236490D01*
G37*
G36*
X126517364Y-122236490D02*
X126696496Y-122256583D01*
X126868314Y-122311087D01*
X127026273Y-122397925D01*
X127164356Y-122513791D01*
X127277305Y-122654271D01*
X127360816Y-122814013D01*
X127411710Y-122986935D01*
X127411711Y-122986943D01*
X127411711Y-122986944D01*
X127426873Y-123153552D01*
X127428046Y-123166448D01*
X127409205Y-123345716D01*
X127355902Y-123517909D01*
X127270168Y-123676471D01*
X127155269Y-123815360D01*
X127015581Y-123929286D01*
X126856426Y-124013911D01*
X126683864Y-124066010D01*
X126504469Y-124083600D01*
X126495531Y-124083600D01*
X126482636Y-124083510D01*
X126303504Y-124063417D01*
X126131686Y-124008913D01*
X125973727Y-123922075D01*
X125835644Y-123806209D01*
X125722695Y-123665729D01*
X125639184Y-123505987D01*
X125588290Y-123333065D01*
X125588289Y-123333056D01*
X125571954Y-123153556D01*
X125587724Y-123003510D01*
X125590795Y-122974284D01*
X125644098Y-122802091D01*
X125729832Y-122643529D01*
X125844731Y-122504640D01*
X125984419Y-122390714D01*
X126143574Y-122306089D01*
X126316136Y-122253990D01*
X126495531Y-122236400D01*
X126504469Y-122236400D01*
X126517364Y-122236490D01*
X126517364Y-122236490D01*
G37*
G36*
X117557364Y-121156490D02*
X117736496Y-121176583D01*
X117908314Y-121231087D01*
X118066273Y-121317925D01*
X118204356Y-121433791D01*
X118317305Y-121574271D01*
X118400816Y-121734013D01*
X118451710Y-121906935D01*
X118451711Y-121906943D01*
X118451711Y-121906944D01*
X118466873Y-122073552D01*
X118468046Y-122086448D01*
X118449205Y-122265716D01*
X118395902Y-122437909D01*
X118310168Y-122596471D01*
X118195269Y-122735360D01*
X118055581Y-122849286D01*
X117896426Y-122933911D01*
X117723864Y-122986010D01*
X117544469Y-123003600D01*
X117535531Y-123003600D01*
X117522636Y-123003510D01*
X117343504Y-122983417D01*
X117171686Y-122928913D01*
X117013727Y-122842075D01*
X116875644Y-122726209D01*
X116762695Y-122585729D01*
X116679184Y-122425987D01*
X116628290Y-122253065D01*
X116628289Y-122253056D01*
X116611954Y-122073556D01*
X116629465Y-121906944D01*
X116630795Y-121894284D01*
X116684098Y-121722091D01*
X116769832Y-121563529D01*
X116884731Y-121424640D01*
X117024419Y-121310714D01*
X117183574Y-121226089D01*
X117356136Y-121173990D01*
X117535531Y-121156400D01*
X117544469Y-121156400D01*
X117557364Y-121156490D01*
X117557364Y-121156490D01*
G37*
G36*
X115017364Y-121156490D02*
X115196496Y-121176583D01*
X115368314Y-121231087D01*
X115526273Y-121317925D01*
X115664356Y-121433791D01*
X115777305Y-121574271D01*
X115860816Y-121734013D01*
X115911710Y-121906935D01*
X115911711Y-121906943D01*
X115911711Y-121906944D01*
X115926873Y-122073552D01*
X115928046Y-122086448D01*
X115909205Y-122265716D01*
X115855902Y-122437909D01*
X115770168Y-122596471D01*
X115655269Y-122735360D01*
X115515581Y-122849286D01*
X115356426Y-122933911D01*
X115183864Y-122986010D01*
X115004469Y-123003600D01*
X114995531Y-123003600D01*
X114982636Y-123003510D01*
X114803504Y-122983417D01*
X114631686Y-122928913D01*
X114473727Y-122842075D01*
X114335644Y-122726209D01*
X114222695Y-122585729D01*
X114139184Y-122425987D01*
X114088290Y-122253065D01*
X114088289Y-122253056D01*
X114071954Y-122073556D01*
X114089465Y-121906944D01*
X114090795Y-121894284D01*
X114144098Y-121722091D01*
X114229832Y-121563529D01*
X114344731Y-121424640D01*
X114484419Y-121310714D01*
X114643574Y-121226089D01*
X114816136Y-121173990D01*
X114995531Y-121156400D01*
X115004469Y-121156400D01*
X115017364Y-121156490D01*
X115017364Y-121156490D01*
G37*
G36*
X129057364Y-119696490D02*
X129236496Y-119716583D01*
X129408314Y-119771087D01*
X129566273Y-119857925D01*
X129704356Y-119973791D01*
X129817305Y-120114271D01*
X129900816Y-120274013D01*
X129951710Y-120446935D01*
X129951711Y-120446943D01*
X129951711Y-120446944D01*
X129966873Y-120613552D01*
X129968046Y-120626448D01*
X129949205Y-120805716D01*
X129895902Y-120977909D01*
X129810168Y-121136471D01*
X129695269Y-121275360D01*
X129555581Y-121389286D01*
X129396426Y-121473911D01*
X129223864Y-121526010D01*
X129044469Y-121543600D01*
X129035531Y-121543600D01*
X129022636Y-121543510D01*
X128843504Y-121523417D01*
X128671686Y-121468913D01*
X128513727Y-121382075D01*
X128375644Y-121266209D01*
X128262695Y-121125729D01*
X128179184Y-120965987D01*
X128128290Y-120793065D01*
X128128289Y-120793056D01*
X128111954Y-120613556D01*
X128127724Y-120463510D01*
X128130795Y-120434284D01*
X128184098Y-120262091D01*
X128269832Y-120103529D01*
X128384731Y-119964640D01*
X128524419Y-119850714D01*
X128683574Y-119766089D01*
X128856136Y-119713990D01*
X129035531Y-119696400D01*
X129044469Y-119696400D01*
X129057364Y-119696490D01*
X129057364Y-119696490D01*
G37*
G36*
X126517364Y-119696490D02*
X126696496Y-119716583D01*
X126868314Y-119771087D01*
X127026273Y-119857925D01*
X127164356Y-119973791D01*
X127277305Y-120114271D01*
X127360816Y-120274013D01*
X127411710Y-120446935D01*
X127411711Y-120446943D01*
X127411711Y-120446944D01*
X127426873Y-120613552D01*
X127428046Y-120626448D01*
X127409205Y-120805716D01*
X127355902Y-120977909D01*
X127270168Y-121136471D01*
X127155269Y-121275360D01*
X127015581Y-121389286D01*
X126856426Y-121473911D01*
X126683864Y-121526010D01*
X126504469Y-121543600D01*
X126495531Y-121543600D01*
X126482636Y-121543510D01*
X126303504Y-121523417D01*
X126131686Y-121468913D01*
X125973727Y-121382075D01*
X125835644Y-121266209D01*
X125722695Y-121125729D01*
X125639184Y-120965987D01*
X125588290Y-120793065D01*
X125588289Y-120793056D01*
X125571954Y-120613556D01*
X125587724Y-120463510D01*
X125590795Y-120434284D01*
X125644098Y-120262091D01*
X125729832Y-120103529D01*
X125844731Y-119964640D01*
X125984419Y-119850714D01*
X126143574Y-119766089D01*
X126316136Y-119713990D01*
X126495531Y-119696400D01*
X126504469Y-119696400D01*
X126517364Y-119696490D01*
X126517364Y-119696490D01*
G37*
G36*
X115017364Y-118616490D02*
X115196496Y-118636583D01*
X115368314Y-118691087D01*
X115526273Y-118777925D01*
X115664356Y-118893791D01*
X115777305Y-119034271D01*
X115860816Y-119194013D01*
X115911710Y-119366935D01*
X115911711Y-119366943D01*
X115911711Y-119366944D01*
X115926873Y-119533552D01*
X115928046Y-119546448D01*
X115909205Y-119725716D01*
X115855902Y-119897909D01*
X115770168Y-120056471D01*
X115655269Y-120195360D01*
X115515581Y-120309286D01*
X115356426Y-120393911D01*
X115183864Y-120446010D01*
X115004469Y-120463600D01*
X114995531Y-120463600D01*
X114982636Y-120463510D01*
X114803504Y-120443417D01*
X114631686Y-120388913D01*
X114473727Y-120302075D01*
X114335644Y-120186209D01*
X114222695Y-120045729D01*
X114139184Y-119885987D01*
X114088290Y-119713065D01*
X114088289Y-119713056D01*
X114071954Y-119533556D01*
X114089465Y-119366944D01*
X114090795Y-119354284D01*
X114144098Y-119182091D01*
X114229832Y-119023529D01*
X114344731Y-118884640D01*
X114484419Y-118770714D01*
X114643574Y-118686089D01*
X114816136Y-118633990D01*
X114995531Y-118616400D01*
X115004469Y-118616400D01*
X115017364Y-118616490D01*
X115017364Y-118616490D01*
G37*
G36*
X117557364Y-118616490D02*
X117736496Y-118636583D01*
X117908314Y-118691087D01*
X118066273Y-118777925D01*
X118204356Y-118893791D01*
X118317305Y-119034271D01*
X118400816Y-119194013D01*
X118451710Y-119366935D01*
X118451711Y-119366943D01*
X118451711Y-119366944D01*
X118466873Y-119533552D01*
X118468046Y-119546448D01*
X118449205Y-119725716D01*
X118395902Y-119897909D01*
X118310168Y-120056471D01*
X118195269Y-120195360D01*
X118055581Y-120309286D01*
X117896426Y-120393911D01*
X117723864Y-120446010D01*
X117544469Y-120463600D01*
X117535531Y-120463600D01*
X117522636Y-120463510D01*
X117343504Y-120443417D01*
X117171686Y-120388913D01*
X117013727Y-120302075D01*
X116875644Y-120186209D01*
X116762695Y-120045729D01*
X116679184Y-119885987D01*
X116628290Y-119713065D01*
X116628289Y-119713056D01*
X116611954Y-119533556D01*
X116629465Y-119366944D01*
X116630795Y-119354284D01*
X116684098Y-119182091D01*
X116769832Y-119023529D01*
X116884731Y-118884640D01*
X117024419Y-118770714D01*
X117183574Y-118686089D01*
X117356136Y-118633990D01*
X117535531Y-118616400D01*
X117544469Y-118616400D01*
X117557364Y-118616490D01*
X117557364Y-118616490D01*
G37*
G36*
X129057364Y-117156490D02*
X129236496Y-117176583D01*
X129408314Y-117231087D01*
X129566273Y-117317925D01*
X129704356Y-117433791D01*
X129817305Y-117574271D01*
X129900816Y-117734013D01*
X129951710Y-117906935D01*
X129951711Y-117906943D01*
X129951711Y-117906944D01*
X129966873Y-118073552D01*
X129968046Y-118086448D01*
X129949205Y-118265716D01*
X129895902Y-118437909D01*
X129810168Y-118596471D01*
X129695269Y-118735360D01*
X129555581Y-118849286D01*
X129396426Y-118933911D01*
X129223864Y-118986010D01*
X129044469Y-119003600D01*
X129035531Y-119003600D01*
X129022636Y-119003510D01*
X128843504Y-118983417D01*
X128671686Y-118928913D01*
X128513727Y-118842075D01*
X128375644Y-118726209D01*
X128262695Y-118585729D01*
X128179184Y-118425987D01*
X128128290Y-118253065D01*
X128128289Y-118253056D01*
X128111954Y-118073556D01*
X128127724Y-117923510D01*
X128130795Y-117894284D01*
X128184098Y-117722091D01*
X128269832Y-117563529D01*
X128384731Y-117424640D01*
X128524419Y-117310714D01*
X128683574Y-117226089D01*
X128856136Y-117173990D01*
X129035531Y-117156400D01*
X129044469Y-117156400D01*
X129057364Y-117156490D01*
X129057364Y-117156490D01*
G37*
G36*
X126517364Y-117156490D02*
X126696496Y-117176583D01*
X126868314Y-117231087D01*
X127026273Y-117317925D01*
X127164356Y-117433791D01*
X127277305Y-117574271D01*
X127360816Y-117734013D01*
X127411710Y-117906935D01*
X127411711Y-117906943D01*
X127411711Y-117906944D01*
X127426873Y-118073552D01*
X127428046Y-118086448D01*
X127409205Y-118265716D01*
X127355902Y-118437909D01*
X127270168Y-118596471D01*
X127155269Y-118735360D01*
X127015581Y-118849286D01*
X126856426Y-118933911D01*
X126683864Y-118986010D01*
X126504469Y-119003600D01*
X126495531Y-119003600D01*
X126482636Y-119003510D01*
X126303504Y-118983417D01*
X126131686Y-118928913D01*
X125973727Y-118842075D01*
X125835644Y-118726209D01*
X125722695Y-118585729D01*
X125639184Y-118425987D01*
X125588290Y-118253065D01*
X125588289Y-118253056D01*
X125571954Y-118073556D01*
X125587724Y-117923510D01*
X125590795Y-117894284D01*
X125644098Y-117722091D01*
X125729832Y-117563529D01*
X125844731Y-117424640D01*
X125984419Y-117310714D01*
X126143574Y-117226089D01*
X126316136Y-117173990D01*
X126495531Y-117156400D01*
X126504469Y-117156400D01*
X126517364Y-117156490D01*
X126517364Y-117156490D01*
G37*
G36*
X117557364Y-116076490D02*
X117736496Y-116096583D01*
X117908314Y-116151087D01*
X118066273Y-116237925D01*
X118204356Y-116353791D01*
X118317305Y-116494271D01*
X118400816Y-116654013D01*
X118451710Y-116826935D01*
X118451711Y-116826943D01*
X118451711Y-116826944D01*
X118466873Y-116993552D01*
X118468046Y-117006448D01*
X118449205Y-117185716D01*
X118395902Y-117357909D01*
X118310168Y-117516471D01*
X118195269Y-117655360D01*
X118055581Y-117769286D01*
X117896426Y-117853911D01*
X117723864Y-117906010D01*
X117544469Y-117923600D01*
X117535531Y-117923600D01*
X117522636Y-117923510D01*
X117343504Y-117903417D01*
X117171686Y-117848913D01*
X117013727Y-117762075D01*
X116875644Y-117646209D01*
X116762695Y-117505729D01*
X116679184Y-117345987D01*
X116628290Y-117173065D01*
X116628289Y-117173056D01*
X116611954Y-116993556D01*
X116629465Y-116826944D01*
X116630795Y-116814284D01*
X116684098Y-116642091D01*
X116769832Y-116483529D01*
X116884731Y-116344640D01*
X117024419Y-116230714D01*
X117183574Y-116146089D01*
X117356136Y-116093990D01*
X117535531Y-116076400D01*
X117544469Y-116076400D01*
X117557364Y-116076490D01*
X117557364Y-116076490D01*
G37*
G36*
X115017364Y-116076490D02*
X115196496Y-116096583D01*
X115368314Y-116151087D01*
X115526273Y-116237925D01*
X115664356Y-116353791D01*
X115777305Y-116494271D01*
X115860816Y-116654013D01*
X115911710Y-116826935D01*
X115911711Y-116826943D01*
X115911711Y-116826944D01*
X115926873Y-116993552D01*
X115928046Y-117006448D01*
X115909205Y-117185716D01*
X115855902Y-117357909D01*
X115770168Y-117516471D01*
X115655269Y-117655360D01*
X115515581Y-117769286D01*
X115356426Y-117853911D01*
X115183864Y-117906010D01*
X115004469Y-117923600D01*
X114995531Y-117923600D01*
X114982636Y-117923510D01*
X114803504Y-117903417D01*
X114631686Y-117848913D01*
X114473727Y-117762075D01*
X114335644Y-117646209D01*
X114222695Y-117505729D01*
X114139184Y-117345987D01*
X114088290Y-117173065D01*
X114088289Y-117173056D01*
X114071954Y-116993556D01*
X114089465Y-116826944D01*
X114090795Y-116814284D01*
X114144098Y-116642091D01*
X114229832Y-116483529D01*
X114344731Y-116344640D01*
X114484419Y-116230714D01*
X114643574Y-116146089D01*
X114816136Y-116093990D01*
X114995531Y-116076400D01*
X115004469Y-116076400D01*
X115017364Y-116076490D01*
X115017364Y-116076490D01*
G37*
G36*
X129057364Y-114616490D02*
X129236496Y-114636583D01*
X129408314Y-114691087D01*
X129566273Y-114777925D01*
X129704356Y-114893791D01*
X129817305Y-115034271D01*
X129900816Y-115194013D01*
X129951710Y-115366935D01*
X129951711Y-115366943D01*
X129951711Y-115366944D01*
X129966873Y-115533552D01*
X129968046Y-115546448D01*
X129949205Y-115725716D01*
X129895902Y-115897909D01*
X129810168Y-116056471D01*
X129695269Y-116195360D01*
X129555581Y-116309286D01*
X129396426Y-116393911D01*
X129223864Y-116446010D01*
X129044469Y-116463600D01*
X129035531Y-116463600D01*
X129022636Y-116463510D01*
X128843504Y-116443417D01*
X128671686Y-116388913D01*
X128513727Y-116302075D01*
X128375644Y-116186209D01*
X128262695Y-116045729D01*
X128179184Y-115885987D01*
X128128290Y-115713065D01*
X128128289Y-115713056D01*
X128111954Y-115533556D01*
X128127724Y-115383510D01*
X128130795Y-115354284D01*
X128184098Y-115182091D01*
X128269832Y-115023529D01*
X128384731Y-114884640D01*
X128524419Y-114770714D01*
X128683574Y-114686089D01*
X128856136Y-114633990D01*
X129035531Y-114616400D01*
X129044469Y-114616400D01*
X129057364Y-114616490D01*
X129057364Y-114616490D01*
G37*
G36*
X126517364Y-114616490D02*
X126696496Y-114636583D01*
X126868314Y-114691087D01*
X127026273Y-114777925D01*
X127164356Y-114893791D01*
X127277305Y-115034271D01*
X127360816Y-115194013D01*
X127411710Y-115366935D01*
X127411711Y-115366943D01*
X127411711Y-115366944D01*
X127426873Y-115533552D01*
X127428046Y-115546448D01*
X127409205Y-115725716D01*
X127355902Y-115897909D01*
X127270168Y-116056471D01*
X127155269Y-116195360D01*
X127015581Y-116309286D01*
X126856426Y-116393911D01*
X126683864Y-116446010D01*
X126504469Y-116463600D01*
X126495531Y-116463600D01*
X126482636Y-116463510D01*
X126303504Y-116443417D01*
X126131686Y-116388913D01*
X125973727Y-116302075D01*
X125835644Y-116186209D01*
X125722695Y-116045729D01*
X125639184Y-115885987D01*
X125588290Y-115713065D01*
X125588289Y-115713056D01*
X125571954Y-115533556D01*
X125587724Y-115383510D01*
X125590795Y-115354284D01*
X125644098Y-115182091D01*
X125729832Y-115023529D01*
X125844731Y-114884640D01*
X125984419Y-114770714D01*
X126143574Y-114686089D01*
X126316136Y-114633990D01*
X126495531Y-114616400D01*
X126504469Y-114616400D01*
X126517364Y-114616490D01*
X126517364Y-114616490D01*
G37*
G36*
X115017364Y-113536490D02*
X115196496Y-113556583D01*
X115368314Y-113611087D01*
X115526273Y-113697925D01*
X115664356Y-113813791D01*
X115777305Y-113954271D01*
X115860816Y-114114013D01*
X115911710Y-114286935D01*
X115911711Y-114286943D01*
X115911711Y-114286944D01*
X115926873Y-114453552D01*
X115928046Y-114466448D01*
X115909205Y-114645716D01*
X115855902Y-114817909D01*
X115770168Y-114976471D01*
X115655269Y-115115360D01*
X115515581Y-115229286D01*
X115356426Y-115313911D01*
X115183864Y-115366010D01*
X115004469Y-115383600D01*
X114995531Y-115383600D01*
X114982636Y-115383510D01*
X114803504Y-115363417D01*
X114631686Y-115308913D01*
X114473727Y-115222075D01*
X114335644Y-115106209D01*
X114222695Y-114965729D01*
X114139184Y-114805987D01*
X114088290Y-114633065D01*
X114088289Y-114633056D01*
X114071954Y-114453556D01*
X114089465Y-114286944D01*
X114090795Y-114274284D01*
X114144098Y-114102091D01*
X114229832Y-113943529D01*
X114344731Y-113804640D01*
X114484419Y-113690714D01*
X114643574Y-113606089D01*
X114816136Y-113553990D01*
X114995531Y-113536400D01*
X115004469Y-113536400D01*
X115017364Y-113536490D01*
X115017364Y-113536490D01*
G37*
G36*
X117557364Y-113536490D02*
X117736496Y-113556583D01*
X117908314Y-113611087D01*
X118066273Y-113697925D01*
X118204356Y-113813791D01*
X118317305Y-113954271D01*
X118400816Y-114114013D01*
X118451710Y-114286935D01*
X118451711Y-114286943D01*
X118451711Y-114286944D01*
X118466873Y-114453552D01*
X118468046Y-114466448D01*
X118449205Y-114645716D01*
X118395902Y-114817909D01*
X118310168Y-114976471D01*
X118195269Y-115115360D01*
X118055581Y-115229286D01*
X117896426Y-115313911D01*
X117723864Y-115366010D01*
X117544469Y-115383600D01*
X117535531Y-115383600D01*
X117522636Y-115383510D01*
X117343504Y-115363417D01*
X117171686Y-115308913D01*
X117013727Y-115222075D01*
X116875644Y-115106209D01*
X116762695Y-114965729D01*
X116679184Y-114805987D01*
X116628290Y-114633065D01*
X116628289Y-114633056D01*
X116611954Y-114453556D01*
X116629465Y-114286944D01*
X116630795Y-114274284D01*
X116684098Y-114102091D01*
X116769832Y-113943529D01*
X116884731Y-113804640D01*
X117024419Y-113690714D01*
X117183574Y-113606089D01*
X117356136Y-113553990D01*
X117535531Y-113536400D01*
X117544469Y-113536400D01*
X117557364Y-113536490D01*
X117557364Y-113536490D01*
G37*
G36*
X126517364Y-112076490D02*
X126696496Y-112096583D01*
X126868314Y-112151087D01*
X127026273Y-112237925D01*
X127164356Y-112353791D01*
X127277305Y-112494271D01*
X127360816Y-112654013D01*
X127411710Y-112826935D01*
X127411711Y-112826943D01*
X127411711Y-112826944D01*
X127426873Y-112993552D01*
X127428046Y-113006448D01*
X127409205Y-113185716D01*
X127355902Y-113357909D01*
X127270168Y-113516471D01*
X127155269Y-113655360D01*
X127015581Y-113769286D01*
X126856426Y-113853911D01*
X126683864Y-113906010D01*
X126504469Y-113923600D01*
X126495531Y-113923600D01*
X126482636Y-113923510D01*
X126303504Y-113903417D01*
X126131686Y-113848913D01*
X125973727Y-113762075D01*
X125835644Y-113646209D01*
X125722695Y-113505729D01*
X125639184Y-113345987D01*
X125588290Y-113173065D01*
X125588289Y-113173056D01*
X125571954Y-112993556D01*
X125587724Y-112843510D01*
X125590795Y-112814284D01*
X125644098Y-112642091D01*
X125729832Y-112483529D01*
X125844731Y-112344640D01*
X125984419Y-112230714D01*
X126143574Y-112146089D01*
X126316136Y-112093990D01*
X126495531Y-112076400D01*
X126504469Y-112076400D01*
X126517364Y-112076490D01*
X126517364Y-112076490D01*
G37*
G36*
X129057364Y-112076490D02*
X129236496Y-112096583D01*
X129408314Y-112151087D01*
X129566273Y-112237925D01*
X129704356Y-112353791D01*
X129817305Y-112494271D01*
X129900816Y-112654013D01*
X129951710Y-112826935D01*
X129951711Y-112826943D01*
X129951711Y-112826944D01*
X129966873Y-112993552D01*
X129968046Y-113006448D01*
X129949205Y-113185716D01*
X129895902Y-113357909D01*
X129810168Y-113516471D01*
X129695269Y-113655360D01*
X129555581Y-113769286D01*
X129396426Y-113853911D01*
X129223864Y-113906010D01*
X129044469Y-113923600D01*
X129035531Y-113923600D01*
X129022636Y-113923510D01*
X128843504Y-113903417D01*
X128671686Y-113848913D01*
X128513727Y-113762075D01*
X128375644Y-113646209D01*
X128262695Y-113505729D01*
X128179184Y-113345987D01*
X128128290Y-113173065D01*
X128128289Y-113173056D01*
X128111954Y-112993556D01*
X128127724Y-112843510D01*
X128130795Y-112814284D01*
X128184098Y-112642091D01*
X128269832Y-112483529D01*
X128384731Y-112344640D01*
X128524419Y-112230714D01*
X128683574Y-112146089D01*
X128856136Y-112093990D01*
X129035531Y-112076400D01*
X129044469Y-112076400D01*
X129057364Y-112076490D01*
X129057364Y-112076490D01*
G37*
G36*
X117557364Y-110996490D02*
X117736496Y-111016583D01*
X117908314Y-111071087D01*
X118066273Y-111157925D01*
X118204356Y-111273791D01*
X118317305Y-111414271D01*
X118400816Y-111574013D01*
X118451710Y-111746935D01*
X118451711Y-111746943D01*
X118451711Y-111746944D01*
X118466873Y-111913552D01*
X118468046Y-111926448D01*
X118449205Y-112105716D01*
X118395902Y-112277909D01*
X118310168Y-112436471D01*
X118195269Y-112575360D01*
X118055581Y-112689286D01*
X117896426Y-112773911D01*
X117723864Y-112826010D01*
X117544469Y-112843600D01*
X117535531Y-112843600D01*
X117522636Y-112843510D01*
X117343504Y-112823417D01*
X117171686Y-112768913D01*
X117013727Y-112682075D01*
X116875644Y-112566209D01*
X116762695Y-112425729D01*
X116679184Y-112265987D01*
X116628290Y-112093065D01*
X116628289Y-112093056D01*
X116611954Y-111913556D01*
X116629465Y-111746944D01*
X116630795Y-111734284D01*
X116684098Y-111562091D01*
X116769832Y-111403529D01*
X116884731Y-111264640D01*
X117024419Y-111150714D01*
X117183574Y-111066089D01*
X117356136Y-111013990D01*
X117535531Y-110996400D01*
X117544469Y-110996400D01*
X117557364Y-110996490D01*
X117557364Y-110996490D01*
G37*
G36*
X115017364Y-110996490D02*
X115196496Y-111016583D01*
X115368314Y-111071087D01*
X115526273Y-111157925D01*
X115664356Y-111273791D01*
X115777305Y-111414271D01*
X115860816Y-111574013D01*
X115911710Y-111746935D01*
X115911711Y-111746943D01*
X115911711Y-111746944D01*
X115926873Y-111913552D01*
X115928046Y-111926448D01*
X115909205Y-112105716D01*
X115855902Y-112277909D01*
X115770168Y-112436471D01*
X115655269Y-112575360D01*
X115515581Y-112689286D01*
X115356426Y-112773911D01*
X115183864Y-112826010D01*
X115004469Y-112843600D01*
X114995531Y-112843600D01*
X114982636Y-112843510D01*
X114803504Y-112823417D01*
X114631686Y-112768913D01*
X114473727Y-112682075D01*
X114335644Y-112566209D01*
X114222695Y-112425729D01*
X114139184Y-112265987D01*
X114088290Y-112093065D01*
X114088289Y-112093056D01*
X114071954Y-111913556D01*
X114089465Y-111746944D01*
X114090795Y-111734284D01*
X114144098Y-111562091D01*
X114229832Y-111403529D01*
X114344731Y-111264640D01*
X114484419Y-111150714D01*
X114643574Y-111066089D01*
X114816136Y-111013990D01*
X114995531Y-110996400D01*
X115004469Y-110996400D01*
X115017364Y-110996490D01*
X115017364Y-110996490D01*
G37*
G36*
X126517364Y-109536490D02*
X126696496Y-109556583D01*
X126868314Y-109611087D01*
X127026273Y-109697925D01*
X127164356Y-109813791D01*
X127277305Y-109954271D01*
X127360816Y-110114013D01*
X127411710Y-110286935D01*
X127411711Y-110286943D01*
X127411711Y-110286944D01*
X127426873Y-110453552D01*
X127428046Y-110466448D01*
X127409205Y-110645716D01*
X127355902Y-110817909D01*
X127270168Y-110976471D01*
X127155269Y-111115360D01*
X127015581Y-111229286D01*
X126856426Y-111313911D01*
X126683864Y-111366010D01*
X126504469Y-111383600D01*
X126495531Y-111383600D01*
X126482636Y-111383510D01*
X126303504Y-111363417D01*
X126131686Y-111308913D01*
X125973727Y-111222075D01*
X125835644Y-111106209D01*
X125722695Y-110965729D01*
X125639184Y-110805987D01*
X125588290Y-110633065D01*
X125588289Y-110633056D01*
X125571954Y-110453556D01*
X125587724Y-110303510D01*
X125590795Y-110274284D01*
X125644098Y-110102091D01*
X125729832Y-109943529D01*
X125844731Y-109804640D01*
X125984419Y-109690714D01*
X126143574Y-109606089D01*
X126316136Y-109553990D01*
X126495531Y-109536400D01*
X126504469Y-109536400D01*
X126517364Y-109536490D01*
X126517364Y-109536490D01*
G37*
G36*
X129057364Y-109536490D02*
X129236496Y-109556583D01*
X129408314Y-109611087D01*
X129566273Y-109697925D01*
X129704356Y-109813791D01*
X129817305Y-109954271D01*
X129900816Y-110114013D01*
X129951710Y-110286935D01*
X129951711Y-110286943D01*
X129951711Y-110286944D01*
X129966873Y-110453552D01*
X129968046Y-110466448D01*
X129949205Y-110645716D01*
X129895902Y-110817909D01*
X129810168Y-110976471D01*
X129695269Y-111115360D01*
X129555581Y-111229286D01*
X129396426Y-111313911D01*
X129223864Y-111366010D01*
X129044469Y-111383600D01*
X129035531Y-111383600D01*
X129022636Y-111383510D01*
X128843504Y-111363417D01*
X128671686Y-111308913D01*
X128513727Y-111222075D01*
X128375644Y-111106209D01*
X128262695Y-110965729D01*
X128179184Y-110805987D01*
X128128290Y-110633065D01*
X128128289Y-110633056D01*
X128111954Y-110453556D01*
X128127724Y-110303510D01*
X128130795Y-110274284D01*
X128184098Y-110102091D01*
X128269832Y-109943529D01*
X128384731Y-109804640D01*
X128524419Y-109690714D01*
X128683574Y-109606089D01*
X128856136Y-109553990D01*
X129035531Y-109536400D01*
X129044469Y-109536400D01*
X129057364Y-109536490D01*
X129057364Y-109536490D01*
G37*
G36*
X117557364Y-108456490D02*
X117736496Y-108476583D01*
X117908314Y-108531087D01*
X118066273Y-108617925D01*
X118204356Y-108733791D01*
X118317305Y-108874271D01*
X118400816Y-109034013D01*
X118451710Y-109206935D01*
X118451711Y-109206943D01*
X118451711Y-109206944D01*
X118466873Y-109373552D01*
X118468046Y-109386448D01*
X118449205Y-109565716D01*
X118395902Y-109737909D01*
X118310168Y-109896471D01*
X118195269Y-110035360D01*
X118055581Y-110149286D01*
X117896426Y-110233911D01*
X117723864Y-110286010D01*
X117544469Y-110303600D01*
X117535531Y-110303600D01*
X117522636Y-110303510D01*
X117343504Y-110283417D01*
X117171686Y-110228913D01*
X117013727Y-110142075D01*
X116875644Y-110026209D01*
X116762695Y-109885729D01*
X116679184Y-109725987D01*
X116628290Y-109553065D01*
X116628289Y-109553056D01*
X116611954Y-109373556D01*
X116629465Y-109206944D01*
X116630795Y-109194284D01*
X116684098Y-109022091D01*
X116769832Y-108863529D01*
X116884731Y-108724640D01*
X117024419Y-108610714D01*
X117183574Y-108526089D01*
X117356136Y-108473990D01*
X117535531Y-108456400D01*
X117544469Y-108456400D01*
X117557364Y-108456490D01*
X117557364Y-108456490D01*
G37*
G36*
X115017364Y-108456490D02*
X115196496Y-108476583D01*
X115368314Y-108531087D01*
X115526273Y-108617925D01*
X115664356Y-108733791D01*
X115777305Y-108874271D01*
X115860816Y-109034013D01*
X115911710Y-109206935D01*
X115911711Y-109206943D01*
X115911711Y-109206944D01*
X115926873Y-109373552D01*
X115928046Y-109386448D01*
X115909205Y-109565716D01*
X115855902Y-109737909D01*
X115770168Y-109896471D01*
X115655269Y-110035360D01*
X115515581Y-110149286D01*
X115356426Y-110233911D01*
X115183864Y-110286010D01*
X115004469Y-110303600D01*
X114995531Y-110303600D01*
X114982636Y-110303510D01*
X114803504Y-110283417D01*
X114631686Y-110228913D01*
X114473727Y-110142075D01*
X114335644Y-110026209D01*
X114222695Y-109885729D01*
X114139184Y-109725987D01*
X114088290Y-109553065D01*
X114088289Y-109553056D01*
X114071954Y-109373556D01*
X114089465Y-109206944D01*
X114090795Y-109194284D01*
X114144098Y-109022091D01*
X114229832Y-108863529D01*
X114344731Y-108724640D01*
X114484419Y-108610714D01*
X114643574Y-108526089D01*
X114816136Y-108473990D01*
X114995531Y-108456400D01*
X115004469Y-108456400D01*
X115017364Y-108456490D01*
X115017364Y-108456490D01*
G37*
G36*
X129057364Y-106996490D02*
X129236496Y-107016583D01*
X129408314Y-107071087D01*
X129566273Y-107157925D01*
X129704356Y-107273791D01*
X129817305Y-107414271D01*
X129900816Y-107574013D01*
X129951710Y-107746935D01*
X129951711Y-107746943D01*
X129951711Y-107746944D01*
X129966873Y-107913552D01*
X129968046Y-107926448D01*
X129949205Y-108105716D01*
X129895902Y-108277909D01*
X129810168Y-108436471D01*
X129695269Y-108575360D01*
X129555581Y-108689286D01*
X129396426Y-108773911D01*
X129223864Y-108826010D01*
X129044469Y-108843600D01*
X129035531Y-108843600D01*
X129022636Y-108843510D01*
X128843504Y-108823417D01*
X128671686Y-108768913D01*
X128513727Y-108682075D01*
X128375644Y-108566209D01*
X128262695Y-108425729D01*
X128179184Y-108265987D01*
X128128290Y-108093065D01*
X128128289Y-108093056D01*
X128111954Y-107913556D01*
X128127724Y-107763510D01*
X128130795Y-107734284D01*
X128184098Y-107562091D01*
X128269832Y-107403529D01*
X128384731Y-107264640D01*
X128524419Y-107150714D01*
X128683574Y-107066089D01*
X128856136Y-107013990D01*
X129035531Y-106996400D01*
X129044469Y-106996400D01*
X129057364Y-106996490D01*
X129057364Y-106996490D01*
G37*
G36*
X126517364Y-106996490D02*
X126696496Y-107016583D01*
X126868314Y-107071087D01*
X127026273Y-107157925D01*
X127164356Y-107273791D01*
X127277305Y-107414271D01*
X127360816Y-107574013D01*
X127411710Y-107746935D01*
X127411711Y-107746943D01*
X127411711Y-107746944D01*
X127426873Y-107913552D01*
X127428046Y-107926448D01*
X127409205Y-108105716D01*
X127355902Y-108277909D01*
X127270168Y-108436471D01*
X127155269Y-108575360D01*
X127015581Y-108689286D01*
X126856426Y-108773911D01*
X126683864Y-108826010D01*
X126504469Y-108843600D01*
X126495531Y-108843600D01*
X126482636Y-108843510D01*
X126303504Y-108823417D01*
X126131686Y-108768913D01*
X125973727Y-108682075D01*
X125835644Y-108566209D01*
X125722695Y-108425729D01*
X125639184Y-108265987D01*
X125588290Y-108093065D01*
X125588289Y-108093056D01*
X125571954Y-107913556D01*
X125587724Y-107763510D01*
X125590795Y-107734284D01*
X125644098Y-107562091D01*
X125729832Y-107403529D01*
X125844731Y-107264640D01*
X125984419Y-107150714D01*
X126143574Y-107066089D01*
X126316136Y-107013990D01*
X126495531Y-106996400D01*
X126504469Y-106996400D01*
X126517364Y-106996490D01*
X126517364Y-106996490D01*
G37*
G36*
X117557364Y-105916490D02*
X117736496Y-105936583D01*
X117908314Y-105991087D01*
X118066273Y-106077925D01*
X118204356Y-106193791D01*
X118317305Y-106334271D01*
X118400816Y-106494013D01*
X118451710Y-106666935D01*
X118451711Y-106666943D01*
X118451711Y-106666944D01*
X118466873Y-106833552D01*
X118468046Y-106846448D01*
X118449205Y-107025716D01*
X118395902Y-107197909D01*
X118310168Y-107356471D01*
X118195269Y-107495360D01*
X118055581Y-107609286D01*
X117896426Y-107693911D01*
X117723864Y-107746010D01*
X117544469Y-107763600D01*
X117535531Y-107763600D01*
X117522636Y-107763510D01*
X117343504Y-107743417D01*
X117171686Y-107688913D01*
X117013727Y-107602075D01*
X116875644Y-107486209D01*
X116762695Y-107345729D01*
X116679184Y-107185987D01*
X116628290Y-107013065D01*
X116628289Y-107013056D01*
X116611954Y-106833556D01*
X116629465Y-106666944D01*
X116630795Y-106654284D01*
X116684098Y-106482091D01*
X116769832Y-106323529D01*
X116884731Y-106184640D01*
X117024419Y-106070714D01*
X117183574Y-105986089D01*
X117356136Y-105933990D01*
X117535531Y-105916400D01*
X117544469Y-105916400D01*
X117557364Y-105916490D01*
X117557364Y-105916490D01*
G37*
G36*
X115017364Y-105916490D02*
X115196496Y-105936583D01*
X115368314Y-105991087D01*
X115526273Y-106077925D01*
X115664356Y-106193791D01*
X115777305Y-106334271D01*
X115860816Y-106494013D01*
X115911710Y-106666935D01*
X115911711Y-106666943D01*
X115911711Y-106666944D01*
X115926873Y-106833552D01*
X115928046Y-106846448D01*
X115909205Y-107025716D01*
X115855902Y-107197909D01*
X115770168Y-107356471D01*
X115655269Y-107495360D01*
X115515581Y-107609286D01*
X115356426Y-107693911D01*
X115183864Y-107746010D01*
X115004469Y-107763600D01*
X114995531Y-107763600D01*
X114982636Y-107763510D01*
X114803504Y-107743417D01*
X114631686Y-107688913D01*
X114473727Y-107602075D01*
X114335644Y-107486209D01*
X114222695Y-107345729D01*
X114139184Y-107185987D01*
X114088290Y-107013065D01*
X114088289Y-107013056D01*
X114071954Y-106833556D01*
X114089465Y-106666944D01*
X114090795Y-106654284D01*
X114144098Y-106482091D01*
X114229832Y-106323529D01*
X114344731Y-106184640D01*
X114484419Y-106070714D01*
X114643574Y-105986089D01*
X114816136Y-105933990D01*
X114995531Y-105916400D01*
X115004469Y-105916400D01*
X115017364Y-105916490D01*
X115017364Y-105916490D01*
G37*
G36*
X129057364Y-104456490D02*
X129236496Y-104476583D01*
X129408314Y-104531087D01*
X129566273Y-104617925D01*
X129704356Y-104733791D01*
X129817305Y-104874271D01*
X129900816Y-105034013D01*
X129951710Y-105206935D01*
X129951711Y-105206943D01*
X129951711Y-105206944D01*
X129966873Y-105373552D01*
X129968046Y-105386448D01*
X129949205Y-105565716D01*
X129895902Y-105737909D01*
X129810168Y-105896471D01*
X129695269Y-106035360D01*
X129555581Y-106149286D01*
X129396426Y-106233911D01*
X129223864Y-106286010D01*
X129044469Y-106303600D01*
X129035531Y-106303600D01*
X129022636Y-106303510D01*
X128843504Y-106283417D01*
X128671686Y-106228913D01*
X128513727Y-106142075D01*
X128375644Y-106026209D01*
X128262695Y-105885729D01*
X128179184Y-105725987D01*
X128128290Y-105553065D01*
X128128289Y-105553056D01*
X128111954Y-105373556D01*
X128127724Y-105223510D01*
X128130795Y-105194284D01*
X128184098Y-105022091D01*
X128269832Y-104863529D01*
X128384731Y-104724640D01*
X128524419Y-104610714D01*
X128683574Y-104526089D01*
X128856136Y-104473990D01*
X129035531Y-104456400D01*
X129044469Y-104456400D01*
X129057364Y-104456490D01*
X129057364Y-104456490D01*
G37*
G36*
X126517364Y-104456490D02*
X126696496Y-104476583D01*
X126868314Y-104531087D01*
X127026273Y-104617925D01*
X127164356Y-104733791D01*
X127277305Y-104874271D01*
X127360816Y-105034013D01*
X127411710Y-105206935D01*
X127411711Y-105206943D01*
X127411711Y-105206944D01*
X127426873Y-105373552D01*
X127428046Y-105386448D01*
X127409205Y-105565716D01*
X127355902Y-105737909D01*
X127270168Y-105896471D01*
X127155269Y-106035360D01*
X127015581Y-106149286D01*
X126856426Y-106233911D01*
X126683864Y-106286010D01*
X126504469Y-106303600D01*
X126495531Y-106303600D01*
X126482636Y-106303510D01*
X126303504Y-106283417D01*
X126131686Y-106228913D01*
X125973727Y-106142075D01*
X125835644Y-106026209D01*
X125722695Y-105885729D01*
X125639184Y-105725987D01*
X125588290Y-105553065D01*
X125588289Y-105553056D01*
X125571954Y-105373556D01*
X125587724Y-105223510D01*
X125590795Y-105194284D01*
X125644098Y-105022091D01*
X125729832Y-104863529D01*
X125844731Y-104724640D01*
X125984419Y-104610714D01*
X126143574Y-104526089D01*
X126316136Y-104473990D01*
X126495531Y-104456400D01*
X126504469Y-104456400D01*
X126517364Y-104456490D01*
X126517364Y-104456490D01*
G37*
G36*
X117557364Y-103376490D02*
X117736496Y-103396583D01*
X117908314Y-103451087D01*
X118066273Y-103537925D01*
X118204356Y-103653791D01*
X118317305Y-103794271D01*
X118400816Y-103954013D01*
X118451710Y-104126935D01*
X118451711Y-104126943D01*
X118451711Y-104126944D01*
X118466873Y-104293552D01*
X118468046Y-104306448D01*
X118449205Y-104485716D01*
X118395902Y-104657909D01*
X118310168Y-104816471D01*
X118195269Y-104955360D01*
X118055581Y-105069286D01*
X117896426Y-105153911D01*
X117723864Y-105206010D01*
X117544469Y-105223600D01*
X117535531Y-105223600D01*
X117522636Y-105223510D01*
X117343504Y-105203417D01*
X117171686Y-105148913D01*
X117013727Y-105062075D01*
X116875644Y-104946209D01*
X116762695Y-104805729D01*
X116679184Y-104645987D01*
X116628290Y-104473065D01*
X116628289Y-104473056D01*
X116611954Y-104293556D01*
X116629465Y-104126944D01*
X116630795Y-104114284D01*
X116684098Y-103942091D01*
X116769832Y-103783529D01*
X116884731Y-103644640D01*
X117024419Y-103530714D01*
X117183574Y-103446089D01*
X117356136Y-103393990D01*
X117535531Y-103376400D01*
X117544469Y-103376400D01*
X117557364Y-103376490D01*
X117557364Y-103376490D01*
G37*
G36*
X115923600Y-105223600D02*
X114076400Y-105223600D01*
X114076400Y-103376400D01*
X115923600Y-103376400D01*
X115923600Y-105223600D01*
X115923600Y-105223600D01*
G37*
G36*
X127423600Y-103763600D02*
X125576400Y-103763600D01*
X125576400Y-101916400D01*
X127423600Y-101916400D01*
X127423600Y-103763600D01*
X127423600Y-103763600D01*
G37*
G36*
X129057364Y-101916490D02*
X129236496Y-101936583D01*
X129408314Y-101991087D01*
X129566273Y-102077925D01*
X129704356Y-102193791D01*
X129817305Y-102334271D01*
X129900816Y-102494013D01*
X129951710Y-102666935D01*
X129951711Y-102666943D01*
X129951711Y-102666944D01*
X129966873Y-102833552D01*
X129968046Y-102846448D01*
X129949205Y-103025716D01*
X129895902Y-103197909D01*
X129810168Y-103356471D01*
X129695269Y-103495360D01*
X129555581Y-103609286D01*
X129396426Y-103693911D01*
X129223864Y-103746010D01*
X129044469Y-103763600D01*
X129035531Y-103763600D01*
X129022636Y-103763510D01*
X128843504Y-103743417D01*
X128671686Y-103688913D01*
X128513727Y-103602075D01*
X128375644Y-103486209D01*
X128262695Y-103345729D01*
X128179184Y-103185987D01*
X128128290Y-103013065D01*
X128128289Y-103013056D01*
X128111954Y-102833556D01*
X128129465Y-102666944D01*
X128130795Y-102654284D01*
X128184098Y-102482091D01*
X128269832Y-102323529D01*
X128384731Y-102184640D01*
X128524419Y-102070714D01*
X128683574Y-101986089D01*
X128856136Y-101933990D01*
X129035531Y-101916400D01*
X129044469Y-101916400D01*
X129057364Y-101916490D01*
X129057364Y-101916490D01*
G37*
M02*
