%TF.GenerationSoftware,KiCad,Pcbnew,no-vcs-found-a6f8405~61~ubuntu14.04.1*%
%TF.CreationDate,2017-11-06T16:00:49-05:00*%
%TF.ProjectId,camera_side_breakout,63616D6572615F736964655F62726561,rev?*%
%TF.SameCoordinates,Original*%
%TF.FileFunction,Legend,Top*%
%TF.FilePolarity,Positive*%
%FSLAX46Y46*%
G04 Gerber Fmt 4.6, Leading zero omitted, Abs format (unit mm)*
G04 Created by KiCad (PCBNEW no-vcs-found-a6f8405~61~ubuntu14.04.1) date Mon Nov  6 16:00:49 2017*
%MOMM*%
%LPD*%
G01*
G04 APERTURE LIST*
%ADD10C,0.600000*%
%ADD11C,0.300000*%
%ADD12C,0.150000*%
G04 APERTURE END LIST*
D10*
X120000000Y-118000000D02*
X122000000Y-116000000D01*
X120000000Y-118000000D02*
X122000000Y-120000000D01*
D11*
X120678571Y-125964285D02*
X120678571Y-125107142D01*
X122178571Y-125535714D02*
X120678571Y-125535714D01*
X120678571Y-124321428D02*
X120678571Y-124035714D01*
X120750000Y-123892857D01*
X120892857Y-123750000D01*
X121178571Y-123678571D01*
X121678571Y-123678571D01*
X121964285Y-123750000D01*
X122107142Y-123892857D01*
X122178571Y-124035714D01*
X122178571Y-124321428D01*
X122107142Y-124464285D01*
X121964285Y-124607142D01*
X121678571Y-124678571D01*
X121178571Y-124678571D01*
X120892857Y-124607142D01*
X120750000Y-124464285D01*
X120678571Y-124321428D01*
X122178571Y-123035714D02*
X120678571Y-123035714D01*
X120678571Y-122464285D01*
X120750000Y-122321428D01*
X120821428Y-122250000D01*
X120964285Y-122178571D01*
X121178571Y-122178571D01*
X121321428Y-122250000D01*
X121392857Y-122321428D01*
X121464285Y-122464285D01*
X121464285Y-123035714D01*
D12*
X120650000Y-114250000D02*
X120683333Y-114283333D01*
X120716666Y-114383333D01*
X120716666Y-114450000D01*
X120683333Y-114550000D01*
X120616666Y-114616666D01*
X120550000Y-114650000D01*
X120416666Y-114683333D01*
X120316666Y-114683333D01*
X120183333Y-114650000D01*
X120116666Y-114616666D01*
X120050000Y-114550000D01*
X120016666Y-114450000D01*
X120016666Y-114383333D01*
X120050000Y-114283333D01*
X120083333Y-114250000D01*
X120716666Y-113650000D02*
X120350000Y-113650000D01*
X120283333Y-113683333D01*
X120250000Y-113750000D01*
X120250000Y-113883333D01*
X120283333Y-113950000D01*
X120683333Y-113650000D02*
X120716666Y-113716666D01*
X120716666Y-113883333D01*
X120683333Y-113950000D01*
X120616666Y-113983333D01*
X120550000Y-113983333D01*
X120483333Y-113950000D01*
X120450000Y-113883333D01*
X120450000Y-113716666D01*
X120416666Y-113650000D01*
X120716666Y-113316666D02*
X120250000Y-113316666D01*
X120316666Y-113316666D02*
X120283333Y-113283333D01*
X120250000Y-113216666D01*
X120250000Y-113116666D01*
X120283333Y-113050000D01*
X120350000Y-113016666D01*
X120716666Y-113016666D01*
X120350000Y-113016666D02*
X120283333Y-112983333D01*
X120250000Y-112916666D01*
X120250000Y-112816666D01*
X120283333Y-112750000D01*
X120350000Y-112716666D01*
X120716666Y-112716666D01*
X120683333Y-112116666D02*
X120716666Y-112183333D01*
X120716666Y-112316666D01*
X120683333Y-112383333D01*
X120616666Y-112416666D01*
X120350000Y-112416666D01*
X120283333Y-112383333D01*
X120250000Y-112316666D01*
X120250000Y-112183333D01*
X120283333Y-112116666D01*
X120350000Y-112083333D01*
X120416666Y-112083333D01*
X120483333Y-112416666D01*
X120716666Y-111783333D02*
X120250000Y-111783333D01*
X120383333Y-111783333D02*
X120316666Y-111750000D01*
X120283333Y-111716666D01*
X120250000Y-111650000D01*
X120250000Y-111583333D01*
X120716666Y-111050000D02*
X120350000Y-111050000D01*
X120283333Y-111083333D01*
X120250000Y-111150000D01*
X120250000Y-111283333D01*
X120283333Y-111350000D01*
X120683333Y-111050000D02*
X120716666Y-111116666D01*
X120716666Y-111283333D01*
X120683333Y-111350000D01*
X120616666Y-111383333D01*
X120550000Y-111383333D01*
X120483333Y-111350000D01*
X120450000Y-111283333D01*
X120450000Y-111116666D01*
X120416666Y-111050000D01*
X120350000Y-109950000D02*
X120383333Y-109850000D01*
X120416666Y-109816666D01*
X120483333Y-109783333D01*
X120583333Y-109783333D01*
X120650000Y-109816666D01*
X120683333Y-109850000D01*
X120716666Y-109916666D01*
X120716666Y-110183333D01*
X120016666Y-110183333D01*
X120016666Y-109950000D01*
X120050000Y-109883333D01*
X120083333Y-109850000D01*
X120150000Y-109816666D01*
X120216666Y-109816666D01*
X120283333Y-109850000D01*
X120316666Y-109883333D01*
X120350000Y-109950000D01*
X120350000Y-110183333D01*
X120716666Y-109483333D02*
X120250000Y-109483333D01*
X120383333Y-109483333D02*
X120316666Y-109450000D01*
X120283333Y-109416666D01*
X120250000Y-109350000D01*
X120250000Y-109283333D01*
X120683333Y-108783333D02*
X120716666Y-108850000D01*
X120716666Y-108983333D01*
X120683333Y-109050000D01*
X120616666Y-109083333D01*
X120350000Y-109083333D01*
X120283333Y-109050000D01*
X120250000Y-108983333D01*
X120250000Y-108850000D01*
X120283333Y-108783333D01*
X120350000Y-108750000D01*
X120416666Y-108750000D01*
X120483333Y-109083333D01*
X120716666Y-108150000D02*
X120350000Y-108150000D01*
X120283333Y-108183333D01*
X120250000Y-108250000D01*
X120250000Y-108383333D01*
X120283333Y-108450000D01*
X120683333Y-108150000D02*
X120716666Y-108216666D01*
X120716666Y-108383333D01*
X120683333Y-108450000D01*
X120616666Y-108483333D01*
X120550000Y-108483333D01*
X120483333Y-108450000D01*
X120450000Y-108383333D01*
X120450000Y-108216666D01*
X120416666Y-108150000D01*
X120716666Y-107816666D02*
X120016666Y-107816666D01*
X120450000Y-107750000D02*
X120716666Y-107550000D01*
X120250000Y-107550000D02*
X120516666Y-107816666D01*
X120716666Y-107150000D02*
X120683333Y-107216666D01*
X120650000Y-107250000D01*
X120583333Y-107283333D01*
X120383333Y-107283333D01*
X120316666Y-107250000D01*
X120283333Y-107216666D01*
X120250000Y-107150000D01*
X120250000Y-107050000D01*
X120283333Y-106983333D01*
X120316666Y-106950000D01*
X120383333Y-106916666D01*
X120583333Y-106916666D01*
X120650000Y-106950000D01*
X120683333Y-106983333D01*
X120716666Y-107050000D01*
X120716666Y-107150000D01*
X120250000Y-106316666D02*
X120716666Y-106316666D01*
X120250000Y-106616666D02*
X120616666Y-106616666D01*
X120683333Y-106583333D01*
X120716666Y-106516666D01*
X120716666Y-106416666D01*
X120683333Y-106350000D01*
X120650000Y-106316666D01*
X120250000Y-106083333D02*
X120250000Y-105816666D01*
X120016666Y-105983333D02*
X120616666Y-105983333D01*
X120683333Y-105950000D01*
X120716666Y-105883333D01*
X120716666Y-105816666D01*
X120350000Y-104816666D02*
X120383333Y-104716666D01*
X120416666Y-104683333D01*
X120483333Y-104650000D01*
X120583333Y-104650000D01*
X120650000Y-104683333D01*
X120683333Y-104716666D01*
X120716666Y-104783333D01*
X120716666Y-105050000D01*
X120016666Y-105050000D01*
X120016666Y-104816666D01*
X120050000Y-104750000D01*
X120083333Y-104716666D01*
X120150000Y-104683333D01*
X120216666Y-104683333D01*
X120283333Y-104716666D01*
X120316666Y-104750000D01*
X120350000Y-104816666D01*
X120350000Y-105050000D01*
X120716666Y-104250000D02*
X120683333Y-104316666D01*
X120650000Y-104350000D01*
X120583333Y-104383333D01*
X120383333Y-104383333D01*
X120316666Y-104350000D01*
X120283333Y-104316666D01*
X120250000Y-104250000D01*
X120250000Y-104150000D01*
X120283333Y-104083333D01*
X120316666Y-104050000D01*
X120383333Y-104016666D01*
X120583333Y-104016666D01*
X120650000Y-104050000D01*
X120683333Y-104083333D01*
X120716666Y-104150000D01*
X120716666Y-104250000D01*
X120716666Y-103416666D02*
X120350000Y-103416666D01*
X120283333Y-103450000D01*
X120250000Y-103516666D01*
X120250000Y-103650000D01*
X120283333Y-103716666D01*
X120683333Y-103416666D02*
X120716666Y-103483333D01*
X120716666Y-103650000D01*
X120683333Y-103716666D01*
X120616666Y-103750000D01*
X120550000Y-103750000D01*
X120483333Y-103716666D01*
X120450000Y-103650000D01*
X120450000Y-103483333D01*
X120416666Y-103416666D01*
X120716666Y-103083333D02*
X120250000Y-103083333D01*
X120383333Y-103083333D02*
X120316666Y-103050000D01*
X120283333Y-103016666D01*
X120250000Y-102950000D01*
X120250000Y-102883333D01*
X120716666Y-102350000D02*
X120016666Y-102350000D01*
X120683333Y-102350000D02*
X120716666Y-102416666D01*
X120716666Y-102550000D01*
X120683333Y-102616666D01*
X120650000Y-102650000D01*
X120583333Y-102683333D01*
X120383333Y-102683333D01*
X120316666Y-102650000D01*
X120283333Y-102616666D01*
X120250000Y-102550000D01*
X120250000Y-102416666D01*
X120283333Y-102350000D01*
X121450000Y-112633333D02*
X121916666Y-112500000D01*
X121583333Y-112366666D01*
X121916666Y-112233333D01*
X121450000Y-112100000D01*
X121916666Y-111833333D02*
X121216666Y-111833333D01*
X121483333Y-111833333D02*
X121450000Y-111766666D01*
X121450000Y-111633333D01*
X121483333Y-111566666D01*
X121516666Y-111533333D01*
X121583333Y-111500000D01*
X121783333Y-111500000D01*
X121850000Y-111533333D01*
X121883333Y-111566666D01*
X121916666Y-111633333D01*
X121916666Y-111766666D01*
X121883333Y-111833333D01*
X121916666Y-111200000D02*
X121450000Y-111200000D01*
X121583333Y-111200000D02*
X121516666Y-111166666D01*
X121483333Y-111133333D01*
X121450000Y-111066666D01*
X121450000Y-111000000D01*
X121916666Y-110466666D02*
X121550000Y-110466666D01*
X121483333Y-110500000D01*
X121450000Y-110566666D01*
X121450000Y-110700000D01*
X121483333Y-110766666D01*
X121883333Y-110466666D02*
X121916666Y-110533333D01*
X121916666Y-110700000D01*
X121883333Y-110766666D01*
X121816666Y-110800000D01*
X121750000Y-110800000D01*
X121683333Y-110766666D01*
X121650000Y-110700000D01*
X121650000Y-110533333D01*
X121616666Y-110466666D01*
X121450000Y-109833333D02*
X121916666Y-109833333D01*
X121450000Y-110133333D02*
X121816666Y-110133333D01*
X121883333Y-110100000D01*
X121916666Y-110033333D01*
X121916666Y-109933333D01*
X121883333Y-109866666D01*
X121850000Y-109833333D01*
X121450000Y-109500000D02*
X121916666Y-109500000D01*
X121516666Y-109500000D02*
X121483333Y-109466666D01*
X121450000Y-109400000D01*
X121450000Y-109300000D01*
X121483333Y-109233333D01*
X121550000Y-109200000D01*
X121916666Y-109200000D01*
X121583333Y-108433333D02*
X121550000Y-108466666D01*
X121516666Y-108533333D01*
X121516666Y-108600000D01*
X121550000Y-108666666D01*
X121583333Y-108700000D01*
X121650000Y-108733333D01*
X121716666Y-108733333D01*
X121783333Y-108700000D01*
X121816666Y-108666666D01*
X121850000Y-108600000D01*
X121850000Y-108533333D01*
X121816666Y-108466666D01*
X121783333Y-108433333D01*
X121516666Y-108433333D02*
X121783333Y-108433333D01*
X121816666Y-108400000D01*
X121816666Y-108366666D01*
X121783333Y-108300000D01*
X121716666Y-108266666D01*
X121550000Y-108266666D01*
X121450000Y-108333333D01*
X121383333Y-108433333D01*
X121350000Y-108566666D01*
X121383333Y-108700000D01*
X121450000Y-108800000D01*
X121550000Y-108866666D01*
X121683333Y-108900000D01*
X121816666Y-108866666D01*
X121916666Y-108800000D01*
X121983333Y-108700000D01*
X122016666Y-108566666D01*
X121983333Y-108433333D01*
X121916666Y-108333333D01*
X121916666Y-107966666D02*
X121450000Y-107966666D01*
X121516666Y-107966666D02*
X121483333Y-107933333D01*
X121450000Y-107866666D01*
X121450000Y-107766666D01*
X121483333Y-107700000D01*
X121550000Y-107666666D01*
X121916666Y-107666666D01*
X121550000Y-107666666D02*
X121483333Y-107633333D01*
X121450000Y-107566666D01*
X121450000Y-107466666D01*
X121483333Y-107400000D01*
X121550000Y-107366666D01*
X121916666Y-107366666D01*
X121916666Y-107033333D02*
X121450000Y-107033333D01*
X121216666Y-107033333D02*
X121250000Y-107066666D01*
X121283333Y-107033333D01*
X121250000Y-107000000D01*
X121216666Y-107033333D01*
X121283333Y-107033333D01*
X121450000Y-106800000D02*
X121450000Y-106533333D01*
X121216666Y-106700000D02*
X121816666Y-106700000D01*
X121883333Y-106666666D01*
X121916666Y-106600000D01*
X121916666Y-106533333D01*
X121850000Y-106300000D02*
X121883333Y-106266666D01*
X121916666Y-106300000D01*
X121883333Y-106333333D01*
X121850000Y-106300000D01*
X121916666Y-106300000D01*
X121883333Y-105700000D02*
X121916666Y-105766666D01*
X121916666Y-105900000D01*
X121883333Y-105966666D01*
X121816666Y-106000000D01*
X121550000Y-106000000D01*
X121483333Y-105966666D01*
X121450000Y-105900000D01*
X121450000Y-105766666D01*
X121483333Y-105700000D01*
X121550000Y-105666666D01*
X121616666Y-105666666D01*
X121683333Y-106000000D01*
X121916666Y-105066666D02*
X121216666Y-105066666D01*
X121883333Y-105066666D02*
X121916666Y-105133333D01*
X121916666Y-105266666D01*
X121883333Y-105333333D01*
X121850000Y-105366666D01*
X121783333Y-105400000D01*
X121583333Y-105400000D01*
X121516666Y-105366666D01*
X121483333Y-105333333D01*
X121450000Y-105266666D01*
X121450000Y-105133333D01*
X121483333Y-105066666D01*
X121450000Y-104433333D02*
X121916666Y-104433333D01*
X121450000Y-104733333D02*
X121816666Y-104733333D01*
X121883333Y-104700000D01*
X121916666Y-104633333D01*
X121916666Y-104533333D01*
X121883333Y-104466666D01*
X121850000Y-104433333D01*
%TO.C,P101*%
X118810000Y-125890000D02*
X118810000Y-103030000D01*
X113730000Y-105570000D02*
X113730000Y-125890000D01*
X118810000Y-125890000D02*
X113730000Y-125890000D01*
X118810000Y-103030000D02*
X116270000Y-103030000D01*
X115000000Y-102750000D02*
X113450000Y-102750000D01*
X116270000Y-103030000D02*
X116270000Y-105570000D01*
X116270000Y-105570000D02*
X113730000Y-105570000D01*
X113450000Y-102750000D02*
X113450000Y-104300000D01*
%TO.C,P102*%
X130310000Y-126970000D02*
X130310000Y-101570000D01*
X125230000Y-104110000D02*
X125230000Y-126970000D01*
X130310000Y-126970000D02*
X125230000Y-126970000D01*
X130310000Y-101570000D02*
X127770000Y-101570000D01*
X126500000Y-101290000D02*
X124950000Y-101290000D01*
X127770000Y-101570000D02*
X127770000Y-104110000D01*
X127770000Y-104110000D02*
X125230000Y-104110000D01*
X124950000Y-101290000D02*
X124950000Y-102840000D01*
%TD*%
M02*
