M48
;DRILL file {KiCad no-vcs-found-a6f8405~61~ubuntu14.04.1} date Mon Nov  6 16:00:52 2017
;FORMAT={-:-/ absolute / inch / decimal}
FMAT,2
INCH,TZ
T1C0.040
%
G90
G05
M72
T1
X4.9803Y-4.0488
X4.9803Y-4.1488
X4.9803Y-4.2488
X4.9803Y-4.3488
X4.9803Y-4.4488
X4.9803Y-4.5488
X4.9803Y-4.6488
X4.9803Y-4.7488
X4.9803Y-4.8488
X4.9803Y-4.9488
X5.0803Y-4.0488
X5.0803Y-4.1488
X5.0803Y-4.2488
X5.0803Y-4.3488
X5.0803Y-4.4488
X5.0803Y-4.5488
X5.0803Y-4.6488
X5.0803Y-4.7488
X5.0803Y-4.8488
X5.0803Y-4.9488
X4.5276Y-4.1063
X4.5276Y-4.2063
X4.5276Y-4.3063
X4.5276Y-4.4063
X4.5276Y-4.5063
X4.5276Y-4.6063
X4.5276Y-4.7063
X4.5276Y-4.8063
X4.5276Y-4.9063
X4.6276Y-4.1063
X4.6276Y-4.2063
X4.6276Y-4.3063
X4.6276Y-4.4063
X4.6276Y-4.5063
X4.6276Y-4.6063
X4.6276Y-4.7063
X4.6276Y-4.8063
X4.6276Y-4.9063
T0
M30
