%TF.GenerationSoftware,KiCad,Pcbnew,no-vcs-found-a6f8405~61~ubuntu14.04.1*%
%TF.CreationDate,2017-11-06T16:00:49-05:00*%
%TF.ProjectId,camera_side_breakout,63616D6572615F736964655F62726561,rev?*%
%TF.SameCoordinates,Original*%
%TF.FileFunction,Copper,L1,Top,Signal*%
%TF.FilePolarity,Positive*%
%FSLAX46Y46*%
G04 Gerber Fmt 4.6, Leading zero omitted, Abs format (unit mm)*
G04 Created by KiCad (PCBNEW no-vcs-found-a6f8405~61~ubuntu14.04.1) date Mon Nov  6 16:00:49 2017*
%MOMM*%
%LPD*%
G01*
G04 APERTURE LIST*
%TA.AperFunction,ComponentPad*%
%ADD10R,1.727200X1.727200*%
%TD*%
%TA.AperFunction,ComponentPad*%
%ADD11O,1.727200X1.727200*%
%TD*%
%TA.AperFunction,Conductor*%
%ADD12C,0.254000*%
%TD*%
G04 APERTURE END LIST*
D10*
%TO.P,P101,1*%
%TO.N,/RESET*%
X115000000Y-104300000D03*
D11*
%TO.P,P101,2*%
%TO.N,/PWDN*%
X117540000Y-104300000D03*
%TO.P,P101,3*%
%TO.N,/D1*%
X115000000Y-106840000D03*
%TO.P,P101,4*%
%TO.N,/D0*%
X117540000Y-106840000D03*
%TO.P,P101,5*%
%TO.N,/D3*%
X115000000Y-109380000D03*
%TO.P,P101,6*%
%TO.N,/D2*%
X117540000Y-109380000D03*
%TO.P,P101,7*%
%TO.N,/D5*%
X115000000Y-111920000D03*
%TO.P,P101,8*%
%TO.N,/D4*%
X117540000Y-111920000D03*
%TO.P,P101,9*%
%TO.N,/D7*%
X115000000Y-114460000D03*
%TO.P,P101,10*%
%TO.N,/D6*%
X117540000Y-114460000D03*
%TO.P,P101,11*%
%TO.N,/PCLK*%
X115000000Y-117000000D03*
%TO.P,P101,12*%
%TO.N,/XCLK*%
X117540000Y-117000000D03*
%TO.P,P101,13*%
%TO.N,/VSYNC*%
X115000000Y-119540000D03*
%TO.P,P101,14*%
%TO.N,/HREF*%
X117540000Y-119540000D03*
%TO.P,P101,15*%
%TO.N,/SIOC*%
X115000000Y-122080000D03*
%TO.P,P101,16*%
%TO.N,/SIOD*%
X117540000Y-122080000D03*
%TO.P,P101,17*%
%TO.N,/3V3*%
X115000000Y-124620000D03*
%TO.P,P101,18*%
%TO.N,/GND*%
X117540000Y-124620000D03*
%TD*%
D10*
%TO.P,P102,1*%
%TO.N,/GND*%
X126500000Y-102840000D03*
D11*
%TO.P,P102,2*%
X129040000Y-102840000D03*
%TO.P,P102,3*%
%TO.N,/RESET*%
X126500000Y-105380000D03*
%TO.P,P102,4*%
%TO.N,/PWDN*%
X129040000Y-105380000D03*
%TO.P,P102,5*%
%TO.N,/D1*%
X126500000Y-107920000D03*
%TO.P,P102,6*%
%TO.N,/D0*%
X129040000Y-107920000D03*
%TO.P,P102,7*%
%TO.N,/D3*%
X126500000Y-110460000D03*
%TO.P,P102,8*%
%TO.N,/D2*%
X129040000Y-110460000D03*
%TO.P,P102,9*%
%TO.N,/D5*%
X126500000Y-113000000D03*
%TO.P,P102,10*%
%TO.N,/D4*%
X129040000Y-113000000D03*
%TO.P,P102,11*%
%TO.N,/D7*%
X126500000Y-115540000D03*
%TO.P,P102,12*%
%TO.N,/D6*%
X129040000Y-115540000D03*
%TO.P,P102,13*%
%TO.N,/PCLK*%
X126500000Y-118080000D03*
%TO.P,P102,14*%
%TO.N,/XCLK*%
X129040000Y-118080000D03*
%TO.P,P102,15*%
%TO.N,/VSYNC*%
X126500000Y-120620000D03*
%TO.P,P102,16*%
%TO.N,/HREF*%
X129040000Y-120620000D03*
%TO.P,P102,17*%
%TO.N,/SIOC*%
X126500000Y-123160000D03*
%TO.P,P102,18*%
%TO.N,/SIOD*%
X129040000Y-123160000D03*
%TO.P,P102,19*%
%TO.N,/3V3*%
X126500000Y-125700000D03*
%TO.P,P102,20*%
%TO.N,/GND*%
X129040000Y-125700000D03*
%TD*%
D12*
%TO.N,/GND*%
G36*
X130790000Y-127290000D02*
X123035408Y-127290000D01*
X113070648Y-126293524D01*
X113035065Y-126296975D01*
X113000000Y-126290000D01*
X112710000Y-126290000D01*
X112710000Y-106840000D01*
X113472041Y-106840000D01*
X113586115Y-107413489D01*
X113910971Y-107899670D01*
X114225752Y-108110000D01*
X113910971Y-108320330D01*
X113586115Y-108806511D01*
X113472041Y-109380000D01*
X113586115Y-109953489D01*
X113910971Y-110439670D01*
X114225752Y-110650000D01*
X113910971Y-110860330D01*
X113586115Y-111346511D01*
X113472041Y-111920000D01*
X113586115Y-112493489D01*
X113910971Y-112979670D01*
X114225752Y-113190000D01*
X113910971Y-113400330D01*
X113586115Y-113886511D01*
X113472041Y-114460000D01*
X113586115Y-115033489D01*
X113910971Y-115519670D01*
X114225752Y-115730000D01*
X113910971Y-115940330D01*
X113586115Y-116426511D01*
X113472041Y-117000000D01*
X113586115Y-117573489D01*
X113910971Y-118059670D01*
X114225752Y-118270000D01*
X113910971Y-118480330D01*
X113586115Y-118966511D01*
X113472041Y-119540000D01*
X113586115Y-120113489D01*
X113910971Y-120599670D01*
X114225752Y-120810000D01*
X113910971Y-121020330D01*
X113586115Y-121506511D01*
X113472041Y-122080000D01*
X113586115Y-122653489D01*
X113910971Y-123139670D01*
X114225752Y-123350000D01*
X113910971Y-123560330D01*
X113586115Y-124046511D01*
X113472041Y-124620000D01*
X113586115Y-125193489D01*
X113910971Y-125679670D01*
X114397152Y-126004526D01*
X114970641Y-126118600D01*
X115029359Y-126118600D01*
X115602848Y-126004526D01*
X116089029Y-125679670D01*
X116269992Y-125408839D01*
X116651510Y-125826821D01*
X117180973Y-126074968D01*
X117413000Y-125954469D01*
X117413000Y-124747000D01*
X117667000Y-124747000D01*
X117667000Y-125954469D01*
X117899027Y-126074968D01*
X118428490Y-125826821D01*
X118822688Y-125394947D01*
X118994958Y-124979026D01*
X118873817Y-124747000D01*
X117667000Y-124747000D01*
X117413000Y-124747000D01*
X117393000Y-124747000D01*
X117393000Y-124493000D01*
X117413000Y-124493000D01*
X117413000Y-124473000D01*
X117667000Y-124473000D01*
X117667000Y-124493000D01*
X118873817Y-124493000D01*
X118994958Y-124260974D01*
X118822688Y-123845053D01*
X118428490Y-123413179D01*
X118305772Y-123355664D01*
X118629029Y-123139670D01*
X118953885Y-122653489D01*
X119067959Y-122080000D01*
X118953885Y-121506511D01*
X118629029Y-121020330D01*
X118314248Y-120810000D01*
X118629029Y-120599670D01*
X118953885Y-120113489D01*
X119067959Y-119540000D01*
X118953885Y-118966511D01*
X118629029Y-118480330D01*
X118314248Y-118270000D01*
X118629029Y-118059670D01*
X118953885Y-117573489D01*
X119067959Y-117000000D01*
X118953885Y-116426511D01*
X118629029Y-115940330D01*
X118314248Y-115730000D01*
X118629029Y-115519670D01*
X118953885Y-115033489D01*
X119067959Y-114460000D01*
X118953885Y-113886511D01*
X118629029Y-113400330D01*
X118314248Y-113190000D01*
X118629029Y-112979670D01*
X118953885Y-112493489D01*
X119067959Y-111920000D01*
X118953885Y-111346511D01*
X118629029Y-110860330D01*
X118314248Y-110650000D01*
X118629029Y-110439670D01*
X118953885Y-109953489D01*
X119067959Y-109380000D01*
X118953885Y-108806511D01*
X118629029Y-108320330D01*
X118314248Y-108110000D01*
X118629029Y-107899670D01*
X118953885Y-107413489D01*
X119067959Y-106840000D01*
X118953885Y-106266511D01*
X118629029Y-105780330D01*
X118314248Y-105570000D01*
X118598603Y-105380000D01*
X124972041Y-105380000D01*
X125086115Y-105953489D01*
X125410971Y-106439670D01*
X125725752Y-106650000D01*
X125410971Y-106860330D01*
X125086115Y-107346511D01*
X124972041Y-107920000D01*
X125086115Y-108493489D01*
X125410971Y-108979670D01*
X125725752Y-109190000D01*
X125410971Y-109400330D01*
X125086115Y-109886511D01*
X124972041Y-110460000D01*
X125086115Y-111033489D01*
X125410971Y-111519670D01*
X125725752Y-111730000D01*
X125410971Y-111940330D01*
X125086115Y-112426511D01*
X124972041Y-113000000D01*
X125086115Y-113573489D01*
X125410971Y-114059670D01*
X125725752Y-114270000D01*
X125410971Y-114480330D01*
X125086115Y-114966511D01*
X124972041Y-115540000D01*
X125086115Y-116113489D01*
X125410971Y-116599670D01*
X125725752Y-116810000D01*
X125410971Y-117020330D01*
X125086115Y-117506511D01*
X124972041Y-118080000D01*
X125086115Y-118653489D01*
X125410971Y-119139670D01*
X125725752Y-119350000D01*
X125410971Y-119560330D01*
X125086115Y-120046511D01*
X124972041Y-120620000D01*
X125086115Y-121193489D01*
X125410971Y-121679670D01*
X125725752Y-121890000D01*
X125410971Y-122100330D01*
X125086115Y-122586511D01*
X124972041Y-123160000D01*
X125086115Y-123733489D01*
X125410971Y-124219670D01*
X125725752Y-124430000D01*
X125410971Y-124640330D01*
X125086115Y-125126511D01*
X124972041Y-125700000D01*
X125086115Y-126273489D01*
X125410971Y-126759670D01*
X125897152Y-127084526D01*
X126470641Y-127198600D01*
X126529359Y-127198600D01*
X127102848Y-127084526D01*
X127589029Y-126759670D01*
X127769992Y-126488839D01*
X128151510Y-126906821D01*
X128680973Y-127154968D01*
X128913000Y-127034469D01*
X128913000Y-125827000D01*
X129167000Y-125827000D01*
X129167000Y-127034469D01*
X129399027Y-127154968D01*
X129928490Y-126906821D01*
X130322688Y-126474947D01*
X130494958Y-126059026D01*
X130373817Y-125827000D01*
X129167000Y-125827000D01*
X128913000Y-125827000D01*
X128893000Y-125827000D01*
X128893000Y-125573000D01*
X128913000Y-125573000D01*
X128913000Y-125553000D01*
X129167000Y-125553000D01*
X129167000Y-125573000D01*
X130373817Y-125573000D01*
X130494958Y-125340974D01*
X130322688Y-124925053D01*
X129928490Y-124493179D01*
X129805772Y-124435664D01*
X130129029Y-124219670D01*
X130453885Y-123733489D01*
X130567959Y-123160000D01*
X130453885Y-122586511D01*
X130129029Y-122100330D01*
X129814248Y-121890000D01*
X130129029Y-121679670D01*
X130453885Y-121193489D01*
X130567959Y-120620000D01*
X130453885Y-120046511D01*
X130129029Y-119560330D01*
X129814248Y-119350000D01*
X130129029Y-119139670D01*
X130453885Y-118653489D01*
X130567959Y-118080000D01*
X130453885Y-117506511D01*
X130129029Y-117020330D01*
X129814248Y-116810000D01*
X130129029Y-116599670D01*
X130453885Y-116113489D01*
X130567959Y-115540000D01*
X130453885Y-114966511D01*
X130129029Y-114480330D01*
X129814248Y-114270000D01*
X130129029Y-114059670D01*
X130453885Y-113573489D01*
X130567959Y-113000000D01*
X130453885Y-112426511D01*
X130129029Y-111940330D01*
X129814248Y-111730000D01*
X130129029Y-111519670D01*
X130453885Y-111033489D01*
X130567959Y-110460000D01*
X130453885Y-109886511D01*
X130129029Y-109400330D01*
X129814248Y-109190000D01*
X130129029Y-108979670D01*
X130453885Y-108493489D01*
X130567959Y-107920000D01*
X130453885Y-107346511D01*
X130129029Y-106860330D01*
X129814248Y-106650000D01*
X130129029Y-106439670D01*
X130453885Y-105953489D01*
X130567959Y-105380000D01*
X130453885Y-104806511D01*
X130129029Y-104320330D01*
X129805772Y-104104336D01*
X129928490Y-104046821D01*
X130322688Y-103614947D01*
X130494958Y-103199026D01*
X130373817Y-102967000D01*
X129167000Y-102967000D01*
X129167000Y-102987000D01*
X128913000Y-102987000D01*
X128913000Y-102967000D01*
X126627000Y-102967000D01*
X126627000Y-102987000D01*
X126373000Y-102987000D01*
X126373000Y-102967000D01*
X125160150Y-102967000D01*
X125001400Y-103125750D01*
X125001400Y-103829910D01*
X125098073Y-104063299D01*
X125276702Y-104241927D01*
X125432023Y-104306263D01*
X125410971Y-104320330D01*
X125086115Y-104806511D01*
X124972041Y-105380000D01*
X118598603Y-105380000D01*
X118629029Y-105359670D01*
X118953885Y-104873489D01*
X119067959Y-104300000D01*
X118953885Y-103726511D01*
X118629029Y-103240330D01*
X118142848Y-102915474D01*
X117569359Y-102801400D01*
X117510641Y-102801400D01*
X116937152Y-102915474D01*
X116469568Y-103227904D01*
X116461757Y-103188635D01*
X116321409Y-102978591D01*
X116111365Y-102838243D01*
X115863600Y-102788960D01*
X114136400Y-102788960D01*
X113888635Y-102838243D01*
X113678591Y-102978591D01*
X113538243Y-103188635D01*
X113488960Y-103436400D01*
X113488960Y-105163600D01*
X113538243Y-105411365D01*
X113678591Y-105621409D01*
X113888635Y-105761757D01*
X113927267Y-105769441D01*
X113910971Y-105780330D01*
X113586115Y-106266511D01*
X113472041Y-106840000D01*
X112710000Y-106840000D01*
X112710000Y-102710000D01*
X113000000Y-102710000D01*
X113068946Y-102696286D01*
X113139242Y-102696212D01*
X117369852Y-101850090D01*
X125001400Y-101850090D01*
X125001400Y-102554250D01*
X125160150Y-102713000D01*
X126373000Y-102713000D01*
X126373000Y-101500150D01*
X126627000Y-101500150D01*
X126627000Y-102713000D01*
X128913000Y-102713000D01*
X128913000Y-101505531D01*
X129167000Y-101505531D01*
X129167000Y-102713000D01*
X130373817Y-102713000D01*
X130494958Y-102480974D01*
X130322688Y-102065053D01*
X129928490Y-101633179D01*
X129399027Y-101385032D01*
X129167000Y-101505531D01*
X128913000Y-101505531D01*
X128680973Y-101385032D01*
X128151510Y-101633179D01*
X127984529Y-101816119D01*
X127901927Y-101616701D01*
X127723298Y-101438073D01*
X127489909Y-101341400D01*
X126785750Y-101341400D01*
X126627000Y-101500150D01*
X126373000Y-101500150D01*
X126214250Y-101341400D01*
X125510091Y-101341400D01*
X125276702Y-101438073D01*
X125098073Y-101616701D01*
X125001400Y-101850090D01*
X117369852Y-101850090D01*
X123070302Y-100710000D01*
X130790000Y-100710000D01*
X130790000Y-127290000D01*
X130790000Y-127290000D01*
G37*
X130790000Y-127290000D02*
X123035408Y-127290000D01*
X113070648Y-126293524D01*
X113035065Y-126296975D01*
X113000000Y-126290000D01*
X112710000Y-126290000D01*
X112710000Y-106840000D01*
X113472041Y-106840000D01*
X113586115Y-107413489D01*
X113910971Y-107899670D01*
X114225752Y-108110000D01*
X113910971Y-108320330D01*
X113586115Y-108806511D01*
X113472041Y-109380000D01*
X113586115Y-109953489D01*
X113910971Y-110439670D01*
X114225752Y-110650000D01*
X113910971Y-110860330D01*
X113586115Y-111346511D01*
X113472041Y-111920000D01*
X113586115Y-112493489D01*
X113910971Y-112979670D01*
X114225752Y-113190000D01*
X113910971Y-113400330D01*
X113586115Y-113886511D01*
X113472041Y-114460000D01*
X113586115Y-115033489D01*
X113910971Y-115519670D01*
X114225752Y-115730000D01*
X113910971Y-115940330D01*
X113586115Y-116426511D01*
X113472041Y-117000000D01*
X113586115Y-117573489D01*
X113910971Y-118059670D01*
X114225752Y-118270000D01*
X113910971Y-118480330D01*
X113586115Y-118966511D01*
X113472041Y-119540000D01*
X113586115Y-120113489D01*
X113910971Y-120599670D01*
X114225752Y-120810000D01*
X113910971Y-121020330D01*
X113586115Y-121506511D01*
X113472041Y-122080000D01*
X113586115Y-122653489D01*
X113910971Y-123139670D01*
X114225752Y-123350000D01*
X113910971Y-123560330D01*
X113586115Y-124046511D01*
X113472041Y-124620000D01*
X113586115Y-125193489D01*
X113910971Y-125679670D01*
X114397152Y-126004526D01*
X114970641Y-126118600D01*
X115029359Y-126118600D01*
X115602848Y-126004526D01*
X116089029Y-125679670D01*
X116269992Y-125408839D01*
X116651510Y-125826821D01*
X117180973Y-126074968D01*
X117413000Y-125954469D01*
X117413000Y-124747000D01*
X117667000Y-124747000D01*
X117667000Y-125954469D01*
X117899027Y-126074968D01*
X118428490Y-125826821D01*
X118822688Y-125394947D01*
X118994958Y-124979026D01*
X118873817Y-124747000D01*
X117667000Y-124747000D01*
X117413000Y-124747000D01*
X117393000Y-124747000D01*
X117393000Y-124493000D01*
X117413000Y-124493000D01*
X117413000Y-124473000D01*
X117667000Y-124473000D01*
X117667000Y-124493000D01*
X118873817Y-124493000D01*
X118994958Y-124260974D01*
X118822688Y-123845053D01*
X118428490Y-123413179D01*
X118305772Y-123355664D01*
X118629029Y-123139670D01*
X118953885Y-122653489D01*
X119067959Y-122080000D01*
X118953885Y-121506511D01*
X118629029Y-121020330D01*
X118314248Y-120810000D01*
X118629029Y-120599670D01*
X118953885Y-120113489D01*
X119067959Y-119540000D01*
X118953885Y-118966511D01*
X118629029Y-118480330D01*
X118314248Y-118270000D01*
X118629029Y-118059670D01*
X118953885Y-117573489D01*
X119067959Y-117000000D01*
X118953885Y-116426511D01*
X118629029Y-115940330D01*
X118314248Y-115730000D01*
X118629029Y-115519670D01*
X118953885Y-115033489D01*
X119067959Y-114460000D01*
X118953885Y-113886511D01*
X118629029Y-113400330D01*
X118314248Y-113190000D01*
X118629029Y-112979670D01*
X118953885Y-112493489D01*
X119067959Y-111920000D01*
X118953885Y-111346511D01*
X118629029Y-110860330D01*
X118314248Y-110650000D01*
X118629029Y-110439670D01*
X118953885Y-109953489D01*
X119067959Y-109380000D01*
X118953885Y-108806511D01*
X118629029Y-108320330D01*
X118314248Y-108110000D01*
X118629029Y-107899670D01*
X118953885Y-107413489D01*
X119067959Y-106840000D01*
X118953885Y-106266511D01*
X118629029Y-105780330D01*
X118314248Y-105570000D01*
X118598603Y-105380000D01*
X124972041Y-105380000D01*
X125086115Y-105953489D01*
X125410971Y-106439670D01*
X125725752Y-106650000D01*
X125410971Y-106860330D01*
X125086115Y-107346511D01*
X124972041Y-107920000D01*
X125086115Y-108493489D01*
X125410971Y-108979670D01*
X125725752Y-109190000D01*
X125410971Y-109400330D01*
X125086115Y-109886511D01*
X124972041Y-110460000D01*
X125086115Y-111033489D01*
X125410971Y-111519670D01*
X125725752Y-111730000D01*
X125410971Y-111940330D01*
X125086115Y-112426511D01*
X124972041Y-113000000D01*
X125086115Y-113573489D01*
X125410971Y-114059670D01*
X125725752Y-114270000D01*
X125410971Y-114480330D01*
X125086115Y-114966511D01*
X124972041Y-115540000D01*
X125086115Y-116113489D01*
X125410971Y-116599670D01*
X125725752Y-116810000D01*
X125410971Y-117020330D01*
X125086115Y-117506511D01*
X124972041Y-118080000D01*
X125086115Y-118653489D01*
X125410971Y-119139670D01*
X125725752Y-119350000D01*
X125410971Y-119560330D01*
X125086115Y-120046511D01*
X124972041Y-120620000D01*
X125086115Y-121193489D01*
X125410971Y-121679670D01*
X125725752Y-121890000D01*
X125410971Y-122100330D01*
X125086115Y-122586511D01*
X124972041Y-123160000D01*
X125086115Y-123733489D01*
X125410971Y-124219670D01*
X125725752Y-124430000D01*
X125410971Y-124640330D01*
X125086115Y-125126511D01*
X124972041Y-125700000D01*
X125086115Y-126273489D01*
X125410971Y-126759670D01*
X125897152Y-127084526D01*
X126470641Y-127198600D01*
X126529359Y-127198600D01*
X127102848Y-127084526D01*
X127589029Y-126759670D01*
X127769992Y-126488839D01*
X128151510Y-126906821D01*
X128680973Y-127154968D01*
X128913000Y-127034469D01*
X128913000Y-125827000D01*
X129167000Y-125827000D01*
X129167000Y-127034469D01*
X129399027Y-127154968D01*
X129928490Y-126906821D01*
X130322688Y-126474947D01*
X130494958Y-126059026D01*
X130373817Y-125827000D01*
X129167000Y-125827000D01*
X128913000Y-125827000D01*
X128893000Y-125827000D01*
X128893000Y-125573000D01*
X128913000Y-125573000D01*
X128913000Y-125553000D01*
X129167000Y-125553000D01*
X129167000Y-125573000D01*
X130373817Y-125573000D01*
X130494958Y-125340974D01*
X130322688Y-124925053D01*
X129928490Y-124493179D01*
X129805772Y-124435664D01*
X130129029Y-124219670D01*
X130453885Y-123733489D01*
X130567959Y-123160000D01*
X130453885Y-122586511D01*
X130129029Y-122100330D01*
X129814248Y-121890000D01*
X130129029Y-121679670D01*
X130453885Y-121193489D01*
X130567959Y-120620000D01*
X130453885Y-120046511D01*
X130129029Y-119560330D01*
X129814248Y-119350000D01*
X130129029Y-119139670D01*
X130453885Y-118653489D01*
X130567959Y-118080000D01*
X130453885Y-117506511D01*
X130129029Y-117020330D01*
X129814248Y-116810000D01*
X130129029Y-116599670D01*
X130453885Y-116113489D01*
X130567959Y-115540000D01*
X130453885Y-114966511D01*
X130129029Y-114480330D01*
X129814248Y-114270000D01*
X130129029Y-114059670D01*
X130453885Y-113573489D01*
X130567959Y-113000000D01*
X130453885Y-112426511D01*
X130129029Y-111940330D01*
X129814248Y-111730000D01*
X130129029Y-111519670D01*
X130453885Y-111033489D01*
X130567959Y-110460000D01*
X130453885Y-109886511D01*
X130129029Y-109400330D01*
X129814248Y-109190000D01*
X130129029Y-108979670D01*
X130453885Y-108493489D01*
X130567959Y-107920000D01*
X130453885Y-107346511D01*
X130129029Y-106860330D01*
X129814248Y-106650000D01*
X130129029Y-106439670D01*
X130453885Y-105953489D01*
X130567959Y-105380000D01*
X130453885Y-104806511D01*
X130129029Y-104320330D01*
X129805772Y-104104336D01*
X129928490Y-104046821D01*
X130322688Y-103614947D01*
X130494958Y-103199026D01*
X130373817Y-102967000D01*
X129167000Y-102967000D01*
X129167000Y-102987000D01*
X128913000Y-102987000D01*
X128913000Y-102967000D01*
X126627000Y-102967000D01*
X126627000Y-102987000D01*
X126373000Y-102987000D01*
X126373000Y-102967000D01*
X125160150Y-102967000D01*
X125001400Y-103125750D01*
X125001400Y-103829910D01*
X125098073Y-104063299D01*
X125276702Y-104241927D01*
X125432023Y-104306263D01*
X125410971Y-104320330D01*
X125086115Y-104806511D01*
X124972041Y-105380000D01*
X118598603Y-105380000D01*
X118629029Y-105359670D01*
X118953885Y-104873489D01*
X119067959Y-104300000D01*
X118953885Y-103726511D01*
X118629029Y-103240330D01*
X118142848Y-102915474D01*
X117569359Y-102801400D01*
X117510641Y-102801400D01*
X116937152Y-102915474D01*
X116469568Y-103227904D01*
X116461757Y-103188635D01*
X116321409Y-102978591D01*
X116111365Y-102838243D01*
X115863600Y-102788960D01*
X114136400Y-102788960D01*
X113888635Y-102838243D01*
X113678591Y-102978591D01*
X113538243Y-103188635D01*
X113488960Y-103436400D01*
X113488960Y-105163600D01*
X113538243Y-105411365D01*
X113678591Y-105621409D01*
X113888635Y-105761757D01*
X113927267Y-105769441D01*
X113910971Y-105780330D01*
X113586115Y-106266511D01*
X113472041Y-106840000D01*
X112710000Y-106840000D01*
X112710000Y-102710000D01*
X113000000Y-102710000D01*
X113068946Y-102696286D01*
X113139242Y-102696212D01*
X117369852Y-101850090D01*
X125001400Y-101850090D01*
X125001400Y-102554250D01*
X125160150Y-102713000D01*
X126373000Y-102713000D01*
X126373000Y-101500150D01*
X126627000Y-101500150D01*
X126627000Y-102713000D01*
X128913000Y-102713000D01*
X128913000Y-101505531D01*
X129167000Y-101505531D01*
X129167000Y-102713000D01*
X130373817Y-102713000D01*
X130494958Y-102480974D01*
X130322688Y-102065053D01*
X129928490Y-101633179D01*
X129399027Y-101385032D01*
X129167000Y-101505531D01*
X128913000Y-101505531D01*
X128680973Y-101385032D01*
X128151510Y-101633179D01*
X127984529Y-101816119D01*
X127901927Y-101616701D01*
X127723298Y-101438073D01*
X127489909Y-101341400D01*
X126785750Y-101341400D01*
X126627000Y-101500150D01*
X126373000Y-101500150D01*
X126214250Y-101341400D01*
X125510091Y-101341400D01*
X125276702Y-101438073D01*
X125098073Y-101616701D01*
X125001400Y-101850090D01*
X117369852Y-101850090D01*
X123070302Y-100710000D01*
X130790000Y-100710000D01*
X130790000Y-127290000D01*
%TD*%
M02*
