G04 #@! TF.FileFunction,Copper,L1,Top,Signal*
%FSLAX46Y46*%
G04 Gerber Fmt 4.6, Leading zero omitted, Abs format (unit mm)*
G04 Created by KiCad (PCBNEW 4.0.4+e1-6308~48~ubuntu14.04.1-stable) date Wed Oct 26 00:03:54 2016*
%MOMM*%
%LPD*%
G01*
G04 APERTURE LIST*
%ADD10C,0.100000*%
%ADD11R,1.727200X1.727200*%
%ADD12O,1.727200X1.727200*%
%ADD13C,0.254000*%
G04 APERTURE END LIST*
D10*
D11*
X115000000Y-104300000D03*
D12*
X117540000Y-104300000D03*
X115000000Y-106840000D03*
X117540000Y-106840000D03*
X115000000Y-109380000D03*
X117540000Y-109380000D03*
X115000000Y-111920000D03*
X117540000Y-111920000D03*
X115000000Y-114460000D03*
X117540000Y-114460000D03*
X115000000Y-117000000D03*
X117540000Y-117000000D03*
X115000000Y-119540000D03*
X117540000Y-119540000D03*
X115000000Y-122080000D03*
X117540000Y-122080000D03*
X115000000Y-124620000D03*
X117540000Y-124620000D03*
D11*
X125000000Y-102840000D03*
D12*
X127540000Y-102840000D03*
X125000000Y-105380000D03*
X127540000Y-105380000D03*
X125000000Y-107920000D03*
X127540000Y-107920000D03*
X125000000Y-110460000D03*
X127540000Y-110460000D03*
X125000000Y-113000000D03*
X127540000Y-113000000D03*
X125000000Y-115540000D03*
X127540000Y-115540000D03*
X125000000Y-118080000D03*
X127540000Y-118080000D03*
X125000000Y-120620000D03*
X127540000Y-120620000D03*
X125000000Y-123160000D03*
X127540000Y-123160000D03*
X125000000Y-125700000D03*
X127540000Y-125700000D03*
D13*
G36*
X129290000Y-127290000D02*
X123035408Y-127290000D01*
X113070648Y-126293524D01*
X113035065Y-126296975D01*
X113000000Y-126290000D01*
X112710000Y-126290000D01*
X112710000Y-106840000D01*
X113472041Y-106840000D01*
X113586115Y-107413489D01*
X113910971Y-107899670D01*
X114225752Y-108110000D01*
X113910971Y-108320330D01*
X113586115Y-108806511D01*
X113472041Y-109380000D01*
X113586115Y-109953489D01*
X113910971Y-110439670D01*
X114225752Y-110650000D01*
X113910971Y-110860330D01*
X113586115Y-111346511D01*
X113472041Y-111920000D01*
X113586115Y-112493489D01*
X113910971Y-112979670D01*
X114225752Y-113190000D01*
X113910971Y-113400330D01*
X113586115Y-113886511D01*
X113472041Y-114460000D01*
X113586115Y-115033489D01*
X113910971Y-115519670D01*
X114225752Y-115730000D01*
X113910971Y-115940330D01*
X113586115Y-116426511D01*
X113472041Y-117000000D01*
X113586115Y-117573489D01*
X113910971Y-118059670D01*
X114225752Y-118270000D01*
X113910971Y-118480330D01*
X113586115Y-118966511D01*
X113472041Y-119540000D01*
X113586115Y-120113489D01*
X113910971Y-120599670D01*
X114225752Y-120810000D01*
X113910971Y-121020330D01*
X113586115Y-121506511D01*
X113472041Y-122080000D01*
X113586115Y-122653489D01*
X113910971Y-123139670D01*
X114225752Y-123350000D01*
X113910971Y-123560330D01*
X113586115Y-124046511D01*
X113472041Y-124620000D01*
X113586115Y-125193489D01*
X113910971Y-125679670D01*
X114397152Y-126004526D01*
X114970641Y-126118600D01*
X115029359Y-126118600D01*
X115602848Y-126004526D01*
X116089029Y-125679670D01*
X116269992Y-125408839D01*
X116651510Y-125826821D01*
X117180973Y-126074968D01*
X117413000Y-125954469D01*
X117413000Y-124747000D01*
X117667000Y-124747000D01*
X117667000Y-125954469D01*
X117899027Y-126074968D01*
X118428490Y-125826821D01*
X118822688Y-125394947D01*
X118994958Y-124979026D01*
X118873817Y-124747000D01*
X117667000Y-124747000D01*
X117413000Y-124747000D01*
X117393000Y-124747000D01*
X117393000Y-124493000D01*
X117413000Y-124493000D01*
X117413000Y-124473000D01*
X117667000Y-124473000D01*
X117667000Y-124493000D01*
X118873817Y-124493000D01*
X118994958Y-124260974D01*
X118822688Y-123845053D01*
X118428490Y-123413179D01*
X118305772Y-123355664D01*
X118629029Y-123139670D01*
X118953885Y-122653489D01*
X119067959Y-122080000D01*
X118953885Y-121506511D01*
X118629029Y-121020330D01*
X118314248Y-120810000D01*
X118629029Y-120599670D01*
X118953885Y-120113489D01*
X119067959Y-119540000D01*
X118953885Y-118966511D01*
X118629029Y-118480330D01*
X118314248Y-118270000D01*
X118629029Y-118059670D01*
X118953885Y-117573489D01*
X119067959Y-117000000D01*
X118953885Y-116426511D01*
X118629029Y-115940330D01*
X118314248Y-115730000D01*
X118629029Y-115519670D01*
X118953885Y-115033489D01*
X119067959Y-114460000D01*
X118953885Y-113886511D01*
X118629029Y-113400330D01*
X118314248Y-113190000D01*
X118629029Y-112979670D01*
X118953885Y-112493489D01*
X119067959Y-111920000D01*
X118953885Y-111346511D01*
X118629029Y-110860330D01*
X118314248Y-110650000D01*
X118629029Y-110439670D01*
X118953885Y-109953489D01*
X119067959Y-109380000D01*
X118953885Y-108806511D01*
X118629029Y-108320330D01*
X118314248Y-108110000D01*
X118629029Y-107899670D01*
X118953885Y-107413489D01*
X119067959Y-106840000D01*
X118953885Y-106266511D01*
X118629029Y-105780330D01*
X118314248Y-105570000D01*
X118598603Y-105380000D01*
X123472041Y-105380000D01*
X123586115Y-105953489D01*
X123910971Y-106439670D01*
X124225752Y-106650000D01*
X123910971Y-106860330D01*
X123586115Y-107346511D01*
X123472041Y-107920000D01*
X123586115Y-108493489D01*
X123910971Y-108979670D01*
X124225752Y-109190000D01*
X123910971Y-109400330D01*
X123586115Y-109886511D01*
X123472041Y-110460000D01*
X123586115Y-111033489D01*
X123910971Y-111519670D01*
X124225752Y-111730000D01*
X123910971Y-111940330D01*
X123586115Y-112426511D01*
X123472041Y-113000000D01*
X123586115Y-113573489D01*
X123910971Y-114059670D01*
X124225752Y-114270000D01*
X123910971Y-114480330D01*
X123586115Y-114966511D01*
X123472041Y-115540000D01*
X123586115Y-116113489D01*
X123910971Y-116599670D01*
X124225752Y-116810000D01*
X123910971Y-117020330D01*
X123586115Y-117506511D01*
X123472041Y-118080000D01*
X123586115Y-118653489D01*
X123910971Y-119139670D01*
X124225752Y-119350000D01*
X123910971Y-119560330D01*
X123586115Y-120046511D01*
X123472041Y-120620000D01*
X123586115Y-121193489D01*
X123910971Y-121679670D01*
X124225752Y-121890000D01*
X123910971Y-122100330D01*
X123586115Y-122586511D01*
X123472041Y-123160000D01*
X123586115Y-123733489D01*
X123910971Y-124219670D01*
X124225752Y-124430000D01*
X123910971Y-124640330D01*
X123586115Y-125126511D01*
X123472041Y-125700000D01*
X123586115Y-126273489D01*
X123910971Y-126759670D01*
X124397152Y-127084526D01*
X124970641Y-127198600D01*
X125029359Y-127198600D01*
X125602848Y-127084526D01*
X126089029Y-126759670D01*
X126269992Y-126488839D01*
X126651510Y-126906821D01*
X127180973Y-127154968D01*
X127413000Y-127034469D01*
X127413000Y-125827000D01*
X127667000Y-125827000D01*
X127667000Y-127034469D01*
X127899027Y-127154968D01*
X128428490Y-126906821D01*
X128822688Y-126474947D01*
X128994958Y-126059026D01*
X128873817Y-125827000D01*
X127667000Y-125827000D01*
X127413000Y-125827000D01*
X127393000Y-125827000D01*
X127393000Y-125573000D01*
X127413000Y-125573000D01*
X127413000Y-125553000D01*
X127667000Y-125553000D01*
X127667000Y-125573000D01*
X128873817Y-125573000D01*
X128994958Y-125340974D01*
X128822688Y-124925053D01*
X128428490Y-124493179D01*
X128305772Y-124435664D01*
X128629029Y-124219670D01*
X128953885Y-123733489D01*
X129067959Y-123160000D01*
X128953885Y-122586511D01*
X128629029Y-122100330D01*
X128314248Y-121890000D01*
X128629029Y-121679670D01*
X128953885Y-121193489D01*
X129067959Y-120620000D01*
X128953885Y-120046511D01*
X128629029Y-119560330D01*
X128314248Y-119350000D01*
X128629029Y-119139670D01*
X128953885Y-118653489D01*
X129067959Y-118080000D01*
X128953885Y-117506511D01*
X128629029Y-117020330D01*
X128314248Y-116810000D01*
X128629029Y-116599670D01*
X128953885Y-116113489D01*
X129067959Y-115540000D01*
X128953885Y-114966511D01*
X128629029Y-114480330D01*
X128314248Y-114270000D01*
X128629029Y-114059670D01*
X128953885Y-113573489D01*
X129067959Y-113000000D01*
X128953885Y-112426511D01*
X128629029Y-111940330D01*
X128314248Y-111730000D01*
X128629029Y-111519670D01*
X128953885Y-111033489D01*
X129067959Y-110460000D01*
X128953885Y-109886511D01*
X128629029Y-109400330D01*
X128314248Y-109190000D01*
X128629029Y-108979670D01*
X128953885Y-108493489D01*
X129067959Y-107920000D01*
X128953885Y-107346511D01*
X128629029Y-106860330D01*
X128314248Y-106650000D01*
X128629029Y-106439670D01*
X128953885Y-105953489D01*
X129067959Y-105380000D01*
X128953885Y-104806511D01*
X128629029Y-104320330D01*
X128305772Y-104104336D01*
X128428490Y-104046821D01*
X128822688Y-103614947D01*
X128994958Y-103199026D01*
X128873817Y-102967000D01*
X127667000Y-102967000D01*
X127667000Y-102987000D01*
X127413000Y-102987000D01*
X127413000Y-102967000D01*
X125127000Y-102967000D01*
X125127000Y-102987000D01*
X124873000Y-102987000D01*
X124873000Y-102967000D01*
X123660150Y-102967000D01*
X123501400Y-103125750D01*
X123501400Y-103829910D01*
X123598073Y-104063299D01*
X123776702Y-104241927D01*
X123932023Y-104306263D01*
X123910971Y-104320330D01*
X123586115Y-104806511D01*
X123472041Y-105380000D01*
X118598603Y-105380000D01*
X118629029Y-105359670D01*
X118953885Y-104873489D01*
X119067959Y-104300000D01*
X118953885Y-103726511D01*
X118629029Y-103240330D01*
X118142848Y-102915474D01*
X117569359Y-102801400D01*
X117510641Y-102801400D01*
X116937152Y-102915474D01*
X116471558Y-103226574D01*
X116466762Y-103201083D01*
X116327690Y-102984959D01*
X116115490Y-102839969D01*
X115863600Y-102788960D01*
X114136400Y-102788960D01*
X113901083Y-102833238D01*
X113684959Y-102972310D01*
X113539969Y-103184510D01*
X113488960Y-103436400D01*
X113488960Y-105163600D01*
X113533238Y-105398917D01*
X113672310Y-105615041D01*
X113884510Y-105760031D01*
X113928131Y-105768864D01*
X113910971Y-105780330D01*
X113586115Y-106266511D01*
X113472041Y-106840000D01*
X112710000Y-106840000D01*
X112710000Y-102710000D01*
X113000000Y-102710000D01*
X113068946Y-102696286D01*
X113139242Y-102696212D01*
X117369852Y-101850090D01*
X123501400Y-101850090D01*
X123501400Y-102554250D01*
X123660150Y-102713000D01*
X124873000Y-102713000D01*
X124873000Y-101500150D01*
X125127000Y-101500150D01*
X125127000Y-102713000D01*
X127413000Y-102713000D01*
X127413000Y-101505531D01*
X127667000Y-101505531D01*
X127667000Y-102713000D01*
X128873817Y-102713000D01*
X128994958Y-102480974D01*
X128822688Y-102065053D01*
X128428490Y-101633179D01*
X127899027Y-101385032D01*
X127667000Y-101505531D01*
X127413000Y-101505531D01*
X127180973Y-101385032D01*
X126651510Y-101633179D01*
X126484529Y-101816119D01*
X126401927Y-101616701D01*
X126223298Y-101438073D01*
X125989909Y-101341400D01*
X125285750Y-101341400D01*
X125127000Y-101500150D01*
X124873000Y-101500150D01*
X124714250Y-101341400D01*
X124010091Y-101341400D01*
X123776702Y-101438073D01*
X123598073Y-101616701D01*
X123501400Y-101850090D01*
X117369852Y-101850090D01*
X123070302Y-100710000D01*
X129290000Y-100710000D01*
X129290000Y-127290000D01*
X129290000Y-127290000D01*
G37*
X129290000Y-127290000D02*
X123035408Y-127290000D01*
X113070648Y-126293524D01*
X113035065Y-126296975D01*
X113000000Y-126290000D01*
X112710000Y-126290000D01*
X112710000Y-106840000D01*
X113472041Y-106840000D01*
X113586115Y-107413489D01*
X113910971Y-107899670D01*
X114225752Y-108110000D01*
X113910971Y-108320330D01*
X113586115Y-108806511D01*
X113472041Y-109380000D01*
X113586115Y-109953489D01*
X113910971Y-110439670D01*
X114225752Y-110650000D01*
X113910971Y-110860330D01*
X113586115Y-111346511D01*
X113472041Y-111920000D01*
X113586115Y-112493489D01*
X113910971Y-112979670D01*
X114225752Y-113190000D01*
X113910971Y-113400330D01*
X113586115Y-113886511D01*
X113472041Y-114460000D01*
X113586115Y-115033489D01*
X113910971Y-115519670D01*
X114225752Y-115730000D01*
X113910971Y-115940330D01*
X113586115Y-116426511D01*
X113472041Y-117000000D01*
X113586115Y-117573489D01*
X113910971Y-118059670D01*
X114225752Y-118270000D01*
X113910971Y-118480330D01*
X113586115Y-118966511D01*
X113472041Y-119540000D01*
X113586115Y-120113489D01*
X113910971Y-120599670D01*
X114225752Y-120810000D01*
X113910971Y-121020330D01*
X113586115Y-121506511D01*
X113472041Y-122080000D01*
X113586115Y-122653489D01*
X113910971Y-123139670D01*
X114225752Y-123350000D01*
X113910971Y-123560330D01*
X113586115Y-124046511D01*
X113472041Y-124620000D01*
X113586115Y-125193489D01*
X113910971Y-125679670D01*
X114397152Y-126004526D01*
X114970641Y-126118600D01*
X115029359Y-126118600D01*
X115602848Y-126004526D01*
X116089029Y-125679670D01*
X116269992Y-125408839D01*
X116651510Y-125826821D01*
X117180973Y-126074968D01*
X117413000Y-125954469D01*
X117413000Y-124747000D01*
X117667000Y-124747000D01*
X117667000Y-125954469D01*
X117899027Y-126074968D01*
X118428490Y-125826821D01*
X118822688Y-125394947D01*
X118994958Y-124979026D01*
X118873817Y-124747000D01*
X117667000Y-124747000D01*
X117413000Y-124747000D01*
X117393000Y-124747000D01*
X117393000Y-124493000D01*
X117413000Y-124493000D01*
X117413000Y-124473000D01*
X117667000Y-124473000D01*
X117667000Y-124493000D01*
X118873817Y-124493000D01*
X118994958Y-124260974D01*
X118822688Y-123845053D01*
X118428490Y-123413179D01*
X118305772Y-123355664D01*
X118629029Y-123139670D01*
X118953885Y-122653489D01*
X119067959Y-122080000D01*
X118953885Y-121506511D01*
X118629029Y-121020330D01*
X118314248Y-120810000D01*
X118629029Y-120599670D01*
X118953885Y-120113489D01*
X119067959Y-119540000D01*
X118953885Y-118966511D01*
X118629029Y-118480330D01*
X118314248Y-118270000D01*
X118629029Y-118059670D01*
X118953885Y-117573489D01*
X119067959Y-117000000D01*
X118953885Y-116426511D01*
X118629029Y-115940330D01*
X118314248Y-115730000D01*
X118629029Y-115519670D01*
X118953885Y-115033489D01*
X119067959Y-114460000D01*
X118953885Y-113886511D01*
X118629029Y-113400330D01*
X118314248Y-113190000D01*
X118629029Y-112979670D01*
X118953885Y-112493489D01*
X119067959Y-111920000D01*
X118953885Y-111346511D01*
X118629029Y-110860330D01*
X118314248Y-110650000D01*
X118629029Y-110439670D01*
X118953885Y-109953489D01*
X119067959Y-109380000D01*
X118953885Y-108806511D01*
X118629029Y-108320330D01*
X118314248Y-108110000D01*
X118629029Y-107899670D01*
X118953885Y-107413489D01*
X119067959Y-106840000D01*
X118953885Y-106266511D01*
X118629029Y-105780330D01*
X118314248Y-105570000D01*
X118598603Y-105380000D01*
X123472041Y-105380000D01*
X123586115Y-105953489D01*
X123910971Y-106439670D01*
X124225752Y-106650000D01*
X123910971Y-106860330D01*
X123586115Y-107346511D01*
X123472041Y-107920000D01*
X123586115Y-108493489D01*
X123910971Y-108979670D01*
X124225752Y-109190000D01*
X123910971Y-109400330D01*
X123586115Y-109886511D01*
X123472041Y-110460000D01*
X123586115Y-111033489D01*
X123910971Y-111519670D01*
X124225752Y-111730000D01*
X123910971Y-111940330D01*
X123586115Y-112426511D01*
X123472041Y-113000000D01*
X123586115Y-113573489D01*
X123910971Y-114059670D01*
X124225752Y-114270000D01*
X123910971Y-114480330D01*
X123586115Y-114966511D01*
X123472041Y-115540000D01*
X123586115Y-116113489D01*
X123910971Y-116599670D01*
X124225752Y-116810000D01*
X123910971Y-117020330D01*
X123586115Y-117506511D01*
X123472041Y-118080000D01*
X123586115Y-118653489D01*
X123910971Y-119139670D01*
X124225752Y-119350000D01*
X123910971Y-119560330D01*
X123586115Y-120046511D01*
X123472041Y-120620000D01*
X123586115Y-121193489D01*
X123910971Y-121679670D01*
X124225752Y-121890000D01*
X123910971Y-122100330D01*
X123586115Y-122586511D01*
X123472041Y-123160000D01*
X123586115Y-123733489D01*
X123910971Y-124219670D01*
X124225752Y-124430000D01*
X123910971Y-124640330D01*
X123586115Y-125126511D01*
X123472041Y-125700000D01*
X123586115Y-126273489D01*
X123910971Y-126759670D01*
X124397152Y-127084526D01*
X124970641Y-127198600D01*
X125029359Y-127198600D01*
X125602848Y-127084526D01*
X126089029Y-126759670D01*
X126269992Y-126488839D01*
X126651510Y-126906821D01*
X127180973Y-127154968D01*
X127413000Y-127034469D01*
X127413000Y-125827000D01*
X127667000Y-125827000D01*
X127667000Y-127034469D01*
X127899027Y-127154968D01*
X128428490Y-126906821D01*
X128822688Y-126474947D01*
X128994958Y-126059026D01*
X128873817Y-125827000D01*
X127667000Y-125827000D01*
X127413000Y-125827000D01*
X127393000Y-125827000D01*
X127393000Y-125573000D01*
X127413000Y-125573000D01*
X127413000Y-125553000D01*
X127667000Y-125553000D01*
X127667000Y-125573000D01*
X128873817Y-125573000D01*
X128994958Y-125340974D01*
X128822688Y-124925053D01*
X128428490Y-124493179D01*
X128305772Y-124435664D01*
X128629029Y-124219670D01*
X128953885Y-123733489D01*
X129067959Y-123160000D01*
X128953885Y-122586511D01*
X128629029Y-122100330D01*
X128314248Y-121890000D01*
X128629029Y-121679670D01*
X128953885Y-121193489D01*
X129067959Y-120620000D01*
X128953885Y-120046511D01*
X128629029Y-119560330D01*
X128314248Y-119350000D01*
X128629029Y-119139670D01*
X128953885Y-118653489D01*
X129067959Y-118080000D01*
X128953885Y-117506511D01*
X128629029Y-117020330D01*
X128314248Y-116810000D01*
X128629029Y-116599670D01*
X128953885Y-116113489D01*
X129067959Y-115540000D01*
X128953885Y-114966511D01*
X128629029Y-114480330D01*
X128314248Y-114270000D01*
X128629029Y-114059670D01*
X128953885Y-113573489D01*
X129067959Y-113000000D01*
X128953885Y-112426511D01*
X128629029Y-111940330D01*
X128314248Y-111730000D01*
X128629029Y-111519670D01*
X128953885Y-111033489D01*
X129067959Y-110460000D01*
X128953885Y-109886511D01*
X128629029Y-109400330D01*
X128314248Y-109190000D01*
X128629029Y-108979670D01*
X128953885Y-108493489D01*
X129067959Y-107920000D01*
X128953885Y-107346511D01*
X128629029Y-106860330D01*
X128314248Y-106650000D01*
X128629029Y-106439670D01*
X128953885Y-105953489D01*
X129067959Y-105380000D01*
X128953885Y-104806511D01*
X128629029Y-104320330D01*
X128305772Y-104104336D01*
X128428490Y-104046821D01*
X128822688Y-103614947D01*
X128994958Y-103199026D01*
X128873817Y-102967000D01*
X127667000Y-102967000D01*
X127667000Y-102987000D01*
X127413000Y-102987000D01*
X127413000Y-102967000D01*
X125127000Y-102967000D01*
X125127000Y-102987000D01*
X124873000Y-102987000D01*
X124873000Y-102967000D01*
X123660150Y-102967000D01*
X123501400Y-103125750D01*
X123501400Y-103829910D01*
X123598073Y-104063299D01*
X123776702Y-104241927D01*
X123932023Y-104306263D01*
X123910971Y-104320330D01*
X123586115Y-104806511D01*
X123472041Y-105380000D01*
X118598603Y-105380000D01*
X118629029Y-105359670D01*
X118953885Y-104873489D01*
X119067959Y-104300000D01*
X118953885Y-103726511D01*
X118629029Y-103240330D01*
X118142848Y-102915474D01*
X117569359Y-102801400D01*
X117510641Y-102801400D01*
X116937152Y-102915474D01*
X116471558Y-103226574D01*
X116466762Y-103201083D01*
X116327690Y-102984959D01*
X116115490Y-102839969D01*
X115863600Y-102788960D01*
X114136400Y-102788960D01*
X113901083Y-102833238D01*
X113684959Y-102972310D01*
X113539969Y-103184510D01*
X113488960Y-103436400D01*
X113488960Y-105163600D01*
X113533238Y-105398917D01*
X113672310Y-105615041D01*
X113884510Y-105760031D01*
X113928131Y-105768864D01*
X113910971Y-105780330D01*
X113586115Y-106266511D01*
X113472041Y-106840000D01*
X112710000Y-106840000D01*
X112710000Y-102710000D01*
X113000000Y-102710000D01*
X113068946Y-102696286D01*
X113139242Y-102696212D01*
X117369852Y-101850090D01*
X123501400Y-101850090D01*
X123501400Y-102554250D01*
X123660150Y-102713000D01*
X124873000Y-102713000D01*
X124873000Y-101500150D01*
X125127000Y-101500150D01*
X125127000Y-102713000D01*
X127413000Y-102713000D01*
X127413000Y-101505531D01*
X127667000Y-101505531D01*
X127667000Y-102713000D01*
X128873817Y-102713000D01*
X128994958Y-102480974D01*
X128822688Y-102065053D01*
X128428490Y-101633179D01*
X127899027Y-101385032D01*
X127667000Y-101505531D01*
X127413000Y-101505531D01*
X127180973Y-101385032D01*
X126651510Y-101633179D01*
X126484529Y-101816119D01*
X126401927Y-101616701D01*
X126223298Y-101438073D01*
X125989909Y-101341400D01*
X125285750Y-101341400D01*
X125127000Y-101500150D01*
X124873000Y-101500150D01*
X124714250Y-101341400D01*
X124010091Y-101341400D01*
X123776702Y-101438073D01*
X123598073Y-101616701D01*
X123501400Y-101850090D01*
X117369852Y-101850090D01*
X123070302Y-100710000D01*
X129290000Y-100710000D01*
X129290000Y-127290000D01*
M02*
